<svg width="1315" height="299" viewBox="0 0 1315 299" fill="none" xmlns="http://www.w3.org/2000/svg">
<path d="M125.627 297C106.247 293.53 89.567 287.43 72.777 277.65C67.727 274.72 68.147 274.28 77.627 272.47C85.077 271.05 87.627 269.92 87.627 268.03C87.627 266.24 78.7971 235.26 78.0771 234.55C77.7671 234.24 74.847 233.02 71.587 231.84C64.617 229.32 56.5271 224.57 51.0471 219.8L47.127 216.38L53.7971 219.95C60.6971 223.65 68.2171 225.44 73.5471 224.65L76.627 224.2L76.6671 215.57C76.6971 210.82 77.317 201.31 78.057 194.43C78.817 187.38 79.027 181.23 78.557 180.33C78.097 179.45 74.607 175.62 70.817 171.83C64.067 165.07 59.627 158.28 59.627 154.72C59.637 151.88 63.277 146.66 66.367 145.06C67.927 144.26 70.977 143.3 73.157 142.92L77.127 142.25L74.467 144.59C68.397 149.95 68.677 155.19 75.397 161.65C81.177 167.21 87.9071 170.99 101.637 176.4C131.537 188.17 150.587 190.58 171.127 185.19C198.577 177.98 220.537 167.68 226.757 159.09C230.527 153.89 230.437 150.42 226.417 145.84L223.197 142.18L226.667 142.91C235.287 144.73 239.627 148.84 239.627 155.18C239.627 159.17 234.897 166.2 227.037 173.91L220.347 180.46L220.967 186.2C221.307 189.35 222.137 199.24 222.797 208.18L224.007 224.43L226.567 224.58C234.417 225.02 241.457 223.11 248.127 218.72C254.247 214.69 250.247 218.89 243.097 223.99C239.717 226.4 233.397 229.74 229.047 231.41L221.127 234.45L216.537 250.94C211.067 270.57 211.057 270.55 221.347 272.44C231.117 274.24 231.567 274.69 226.477 277.65C212.437 285.83 195.547 292.42 179.627 295.96C169.437 298.22 136.057 298.86 125.627 297ZM168.537 281.36C177.737 279.38 180.597 275.61 183.627 261.45C184.667 256.56 186.507 250.61 187.697 248.24C190.477 242.73 197.987 232.11 202.817 226.85C207.607 221.65 213.377 212.07 214.707 207.15C216.367 200.95 213.847 196.43 208.707 196.43C205.607 196.43 204.167 197.83 200.297 204.61C198.227 208.23 196.387 209.89 192.107 211.98C187.157 214.41 185.787 214.63 178.857 214.19C168.887 213.55 163.067 210.95 155.557 203.78L149.627 198.13L143.697 203.78C136.217 210.91 130.357 213.55 120.537 214.18C108.897 214.93 103.537 211.9 96.2671 200.44C92.8671 195.06 86.867 195.02 84.657 200.36C82.427 205.75 87.7371 217.23 97.4171 227.93C106.657 238.14 115.627 254.33 115.627 260.79C115.627 265.02 118.547 272.91 121.357 276.27C123.287 278.58 125.687 280.03 129.137 280.96C135.277 282.6 161.477 282.87 168.537 281.36ZM6.93704 223.06C10.067 217.15 12.627 211.75 12.627 211.05C12.627 210.35 11.4471 206.88 10.0071 203.35C5.83705 193.13 1.85706 175.77 0.607056 162.34C-2.65294 127.28 7.31705 90.88 28.1071 61.93C35.6771 51.38 54.147 32.52 55.497 33.96C55.987 34.5 60.997 48.43 66.627 64.93C77.977 98.15 85.2571 115.94 92.3871 127.82C98.0771 137.28 109.707 149.44 118.617 155.22C126.787 160.52 125.677 160.6 115.777 155.43C101.537 147.99 85.747 134.4 76.157 121.35C73.557 117.82 71.307 114.8 71.157 114.63C70.997 114.47 69.607 116.33 68.067 118.77L65.2671 123.2L57.6371 115.5C48.1671 105.95 41.637 102.43 33.367 102.43C30.137 102.43 26.6571 102.88 25.6371 103.43C23.4171 104.61 18.4571 117.06 15.1371 129.77C11.1571 145.02 10.997 144.29 19.027 147C22.827 148.28 27.547 150.62 29.527 152.2C34.197 155.93 39.027 163.1 41.127 169.42L42.787 174.44L35.957 184.45C32.197 189.96 28.567 195.27 27.877 196.26C26.827 197.78 27.107 198.68 29.707 202.22C31.387 204.51 32.5171 206.8 32.1971 207.31C31.8871 207.82 24.7971 213.99 16.4471 221.02L1.25705 233.81L6.93704 223.06ZM282.007 220.14L266.887 206.93L269.757 202.75C271.337 200.45 272.627 198.27 272.627 197.91C272.627 197.55 269.247 192.38 265.127 186.43C260.927 180.38 257.637 174.58 257.647 173.27C257.677 170.04 260.957 163.11 265.177 157.36C268.897 152.3 277.477 147.11 284.237 145.84C288.207 145.1 288.357 144.19 286.087 134.43C284.077 125.78 280.967 116.22 277.867 109.16C275.097 102.84 273.767 102.07 265.587 102.06C258.677 102.04 252.187 105.73 242.887 114.97L234.637 123.16L231.887 118.8C230.367 116.4 228.907 114.45 228.627 114.47C228.347 114.49 226.857 116.51 225.297 118.97C218.197 130.18 198.057 148.19 184.627 155.35C178.467 158.63 171.677 161.32 175.017 159.16C176.057 158.48 179.477 156.25 182.617 154.2C190.697 148.91 202.337 136.33 207.857 126.89C215.207 114.35 220.847 100.51 232.827 65.68C238.927 47.94 244.237 33.43 244.637 33.43C245.037 33.43 249.397 37.42 254.317 42.29C286.627 74.23 302.967 118.34 298.727 162.14C297.407 175.77 293.397 193.18 289.247 203.35C287.807 206.88 286.627 210.22 286.627 210.77C286.627 211.32 289.117 216.64 292.167 222.6C295.217 228.56 297.577 233.41 297.417 233.39C297.257 233.38 290.327 227.41 282.007 220.14ZM144.127 143.55C136.317 141.49 127.287 134.85 120.317 126.03L117.127 122L121.887 125.27C124.497 127.06 130.127 130.2 134.387 132.23C141.217 135.5 143.007 135.93 149.627 135.9C158.527 135.86 165.517 133.41 175.177 126.94C182.777 121.84 182.257 123.64 173.627 132.27C164.297 141.6 153.057 145.89 144.127 143.55ZM182.817 72.73C176.597 68.7 167.007 64.96 160.547 64.02L155.967 63.36L153.117 50.39C151.547 43.26 150.007 37.43 149.687 37.43C149.357 37.43 147.807 43.24 146.227 50.34L143.347 63.26L136.967 64.46C131.027 65.58 120.757 69.96 114.417 74.08C112.927 75.05 111.547 75.64 111.347 75.39C110.237 74 98.537 9.12999 99.257 8.43999C100.527 7.22999 112.797 3.79999 123.127 1.76999C129.657 0.479989 136.927 0 149.627 0C168.377 0 177.647 1.27 193.427 6.03C200.177 8.06 201.637 8.84 201.227 10.23C200.957 11.16 197.977 26.32 194.607 43.92C191.247 61.51 188.407 75.96 188.307 76.03C188.207 76.1 185.737 74.61 182.817 72.73ZM127.477 250.76C124.647 247.54 124.427 244.95 126.747 242C128.667 239.56 129.417 239.31 133.517 239.7C136.057 239.95 140.717 240.76 143.877 241.5C148.717 242.63 150.537 242.63 155.377 241.47C158.537 240.72 163.327 240.06 166.007 240.02C170.167 239.94 171.187 240.32 172.867 242.57C174.627 244.91 174.697 245.51 173.487 247.97C171.297 252.45 169.647 252.94 161.887 251.48C155.307 250.24 143.807 250.45 133.107 252.01C129.967 252.47 128.737 252.2 127.477 250.76ZM138.657 228.35C129.707 223.89 128.137 223.41 125.557 224.3C122.967 225.21 122.627 225.1 122.627 223.38C122.627 222.31 123.567 220.49 124.717 219.34C127.137 216.92 128.447 217.11 139.457 221.5C143.477 223.11 148.057 224.43 149.627 224.43C151.197 224.43 155.777 223.11 159.797 221.5C170.807 217.11 172.117 216.92 174.537 219.34C175.687 220.49 176.627 222.32 176.627 223.41C176.627 225.13 176.287 225.25 173.997 224.38C170.777 223.16 169.547 223.53 160.777 228.35C150.287 234.12 150.237 234.12 138.657 228.35Z" fill="#1B3690"/>
<path d="M662.57 248.17C662.62 260.56 669.87 270.33 681.05 273.05C685.46 274.13 686.9 274.11 692.75 272.87C700.69 271.18 705.28 268.54 705.95 265.26C706.26 263.74 711.28 228.07 717.12 185.99C725.05 128.81 727.58 108.04 727.15 103.74C726.13 93.5101 720.13 84.8201 711.65 81.2601C706.85 79.2501 697.05 79.3301 690.36 81.4401C685.05 83.1101 684.65 83.45 684.11 86.86C680.05 112.47 662.56 243.46 662.57 248.17Z" fill="#1B3690"/>
<path d="M742.05 257.88C749.38 264.64 759.33 268.53 772.95 269.97C790.2 271.79 808.61 270.53 820.71 266.7L828.05 264.38L830.17 266.89C832.12 269.21 833.07 269.44 842.44 269.82C850.49 270.14 874.38 268.58 875.16 267.69C875.26 267.58 879.02 240.76 883.52 208.08C891.41 150.79 891.65 148.53 890.13 144.57C887.7 138.2 883.28 133.62 875.75 129.66C864.2 123.6 859.88 123.02 825.75 123C791.37 122.99 786.62 123.62 772.85 130.01C758.92 136.47 750.62 146.05 750.57 155.74L750.55 159.99H773.57H796.6L797.49 157.65C799.89 151.33 808.42 147.99 822.16 147.99C831.78 147.99 837.83 149.54 841.14 152.85C843.52 155.23 843.72 156.02 843.23 160.82C842.52 167.68 840.48 170.67 834.72 173.32C830.47 175.26 827.73 175.51 804.05 176.07C780.83 176.61 777.3 176.92 771.05 178.93C757.21 183.39 745.9 191.47 741.56 199.99C739.71 203.64 734.38 235.24 734.38 242.61C734.38 248.22 736.81 253.05 742.05 257.88Z" fill="#1B3690"/>
<path d="M1005.93 246.22C1008.06 257.54 1023.64 267.56 1042.87 269.95C1046.82 270.44 1061.97 270.71 1076.55 270.55C1106.28 270.22 1112.48 269.21 1126.11 262.53C1134.79 258.28 1143.89 249.25 1145.39 243.4C1145.95 241.25 1149.22 219.2 1152.67 194.39L1158.94 149.29L1157.11 144.51C1154.72 138.24 1148.83 132.48 1141.2 128.93C1129.34 123.41 1125.89 122.99 1092.59 123C1065.35 123 1061.13 123.22 1053.55 125.04C1037.66 128.84 1022.76 138.46 1019.06 147.3C1017.01 152.21 1005.11 241.85 1005.93 246.22Z" fill="#1B3690"/>
<path d="M323.03 247.49C324.68 258.32 333.84 264.49 351.94 266.98C355.3 267.44 374.25 267.71 394.05 267.58C434.35 267.31 438.09 266.8 452.19 259.65C468.85 251.2 471.28 246.72 475.59 216.49C477.45 203.45 478.47 192.92 478.11 190.65C476.63 181.39 469.68 173.61 459.63 169.94L453.53 167.71L461.39 163.89C475.61 156.97 480.45 149.11 483.56 127.84C486.2 109.75 486.12 107.51 482.55 101.3C477.84 93.0701 468.33 87.47 454.11 84.54C447.94 83.26 437.73 82.9901 395.59 82.9901C367.52 82.9901 344.55 83.3701 344.55 83.8201C344.55 84.2801 339.57 120.4 333.48 164.07C326.21 216.32 322.63 244.86 323.03 247.49Z" fill="#1B3690"/>
<path d="M497.88 241.85C499.07 253.44 513.84 263.96 533.08 266.93C542.81 268.43 594.07 267.53 600.11 265.76C618.17 260.45 632.27 249.47 638.32 235.99C643.08 225.38 641.33 219.97 632.65 218.51C623.94 217.04 593.36 225.46 592.77 229.49C591.95 235.02 591.27 236.07 586.79 238.7C582.47 241.25 581.02 241.52 570.27 241.85C556.11 242.27 552.55 241.7 548.58 238.36C544.89 235.25 544.88 235.02 547.73 214.25L549.96 198.01L596.5 197.75L643.05 197.49L646.38 173C650.2 144.99 650.09 143.7 643.38 136.42C638.42 131.04 629.84 126.64 620.13 124.47C613.94 123.1 607.68 122.9 580.42 123.22C549.81 123.57 547.67 123.72 541.05 125.9C526.27 130.79 515.56 138.13 511.46 146.17C509.12 150.74 497.18 234.96 497.88 241.85Z" fill="#1B3690"/>
<path d="M911.08 242.18C913.04 253.77 927.54 264.11 945.75 266.91C952.37 267.92 979.51 267.6 983.21 266.47C985.47 265.77 986.55 261.67 988.16 247.74L988.83 241.99H978.5C966.48 241.99 960.04 239.78 958.91 235.27C958.38 233.19 967.51 160.84 969.25 153.24C969.74 151.13 970.28 150.99 978.14 150.99C986.01 150.99 986.54 150.86 987 148.74C987.53 146.26 990.55 126.63 990.55 125.62C990.55 125.27 986.72 124.99 982.05 124.99C975.34 124.99 973.55 124.69 973.55 123.56C973.55 122.77 974.91 113.47 976.57 102.88C978.45 90.8601 979.23 83.2701 978.65 82.6901C978.13 82.1701 973.49 81.93 968.34 82.15C960.1 82.51 958.06 83 951.27 86.23C942.42 90.43 934.42 97.7501 931.56 104.26C930.54 106.58 929.2 111.41 928.58 114.99C926.71 125.74 927.49 124.99 918.14 124.99H909.87L908.21 136.74C907.3 143.2 906.55 149.05 906.55 149.74C906.55 150.64 908.92 150.99 915.05 150.99C919.72 150.99 923.55 151.18 923.55 151.41C923.55 151.65 920.6 171.33 917 195.15C912.77 223.18 910.68 239.78 911.08 242.18Z" fill="#1B3690"/>
<path d="M1189.7 125.51C1188.94 126.27 1168.89 267 1169.47 267.57C1169.7 267.8 1180.35 267.99 1193.14 267.99H1216.39L1216.95 265.24C1217.26 263.73 1220.7 238.87 1224.6 209.99C1229.09 176.7 1232.21 156.67 1233.13 155.25C1233.93 154.02 1236.49 152 1238.81 150.75C1242.64 148.71 1244.42 148.49 1257.2 148.49C1269.93 148.49 1271.56 148.69 1273.56 150.49C1276.59 153.23 1286.02 153.02 1293.84 150.03C1301.28 147.19 1311.59 140.25 1313.5 136.81C1314.85 134.38 1314.81 133.94 1313.16 132.12C1312.16 131.01 1307.45 128.62 1302.7 126.81L1294.05 123.52L1273.55 123.51C1253.7 123.49 1252.77 123.58 1244.38 126.33L1235.72 129.17L1232.81 127.02C1228.42 123.78 1217.96 122.68 1202.91 123.89C1195.98 124.44 1190.04 125.17 1189.7 125.51Z" fill="#1B3690"/>
<path d="M661.14 14.1801C648.67 24.4601 651.32 44.4201 666.05 51.1201C673.72 54.6201 683.96 53.1401 689.5 47.7501C693.37 43.9801 695.03 40.4001 695.99 33.7401L696.67 28.9901H685.61H674.55V32.4901V35.9901H680.55C685.79 35.9901 686.55 36.23 686.55 37.9C686.55 40.47 681.04 44.96 677.72 45.1C670.05 45.42 666.69 43.9001 663.51 38.6901C659.69 32.4401 661.79 22.69 667.74 18.96C672.01 16.28 679.88 16.6601 684.24 19.7701L687.25 21.91L689.92 19.1301C692.45 16.4801 692.5 16.26 690.82 14.78C682.68 7.65003 669.39 7.38006 661.14 14.1801Z" fill="#1B3690"/>
<path d="M732.55 30.7401C732.55 42.2401 732.87 51.9801 733.26 52.3701C733.66 52.7601 735.57 52.95 737.51 52.79L741.05 52.4901L741.34 43.7401C741.5 38.9301 741.95 35.01 742.34 35.04C742.73 35.07 746.11 39.12 749.86 44.04C756.63 52.94 756.69 52.9901 761.11 52.9901C763.55 52.9901 765.55 52.6501 765.54 52.2401C765.54 51.8301 762.56 47.7601 758.92 43.1901C755.28 38.6301 752.47 34.79 752.68 34.65C752.88 34.52 754.39 33.9701 756.02 33.4401C763.79 30.8901 765.82 19.8001 759.64 13.6201C756.54 10.5101 756.44 10.49 744.53 10.16L732.55 9.82007V30.7401Z" fill="#1B3690"/>
<path d="M803.4 45.2701C804.69 47.3401 807.39 49.94 809.4 51.03C814.47 53.78 823.85 53.3401 828.37 50.1201C834.45 45.7901 835.55 41.96 835.55 25.03V9.99005H831.55H827.55V23.34C827.55 30.68 827.08 38.0401 826.5 39.7001C824.53 45.3401 816.44 47.1101 811.93 42.8801C809.62 40.7101 809.55 40.1701 809.55 25.3201V9.99005H804.96H800.37L800.71 25.7401C801.02 40.2101 801.24 41.8001 803.4 45.2701Z" fill="#1B3690"/>
<path d="M874.55 9.99005V31.4901V52.9901H878.55H882.55V45.1201V37.2601L889.52 36.7601C893.53 36.4701 897.55 35.56 899 34.61C907.5 29.04 907.25 16.0901 898.55 11.7401C895.9 10.4201 892.55 9.99005 884.8 9.99005H874.55Z" fill="#1B3690"/>
<path d="M961.93 9.00006C939.29 9.04006 931.5 40.31 951.63 50.34C964.94 56.98 979.79 50.4 983.52 36.23C986.98 23.04 975.83 8.97006 961.93 9.00006Z" fill="#1B3690"/>
</svg>
