<svg width="992" height="595" viewBox="0 0 992 595" fill="none" xmlns="http://www.w3.org/2000/svg">
<path d="M358.05 593.49C346.87 590.77 339.62 581 339.57 568.61C339.56 563.9 357.05 432.91 361.11 407.3C361.65 403.89 362.05 403.55 367.36 401.88C374.05 399.77 383.85 399.69 388.65 401.7C397.13 405.26 403.13 413.95 404.15 424.18C404.58 428.48 402.05 449.25 394.12 506.43C388.28 548.51 383.26 584.18 382.95 585.7C382.28 588.98 377.69 591.62 369.75 593.31C363.9 594.55 362.46 594.57 358.05 593.49ZM449.95 590.41C436.33 588.97 426.38 585.08 419.05 578.32C413.81 573.49 411.38 568.66 411.38 563.05C411.38 555.68 416.71 524.08 418.56 520.43C422.9 511.91 434.21 503.83 448.05 499.37C454.3 497.36 457.83 497.05 481.05 496.51C504.73 495.95 507.47 495.7 511.72 493.76C517.48 491.11 519.52 488.12 520.23 481.26C520.72 476.46 520.52 475.67 518.14 473.29C514.83 469.98 508.78 468.43 499.16 468.43C485.42 468.43 476.89 471.77 474.49 478.09L473.6 480.43H450.57H427.55L427.57 476.18C427.62 466.49 435.92 456.91 449.85 450.45C463.62 444.06 468.37 443.43 502.75 443.44C536.88 443.46 541.2 444.04 552.75 450.1C560.28 454.06 564.7 458.64 567.13 465.01C568.65 468.97 568.41 471.23 560.52 528.52C556.02 561.2 552.26 588.02 552.16 588.13C551.38 589.02 527.49 590.58 519.44 590.26C510.07 589.88 509.12 589.65 507.17 587.33L505.05 584.82L497.71 587.14C485.61 590.97 467.2 592.23 449.95 590.41ZM502.96 562.47C506.16 560.92 508.15 559.16 509.07 557.05C510.41 553.97 515.27 517.81 514.45 516.99C514.21 516.76 510.88 517.45 507.04 518.53C502.91 519.69 494.52 520.83 486.55 521.31C471.96 522.18 466.17 524.03 463.05 528.79C461.27 531.5 458.07 554.39 458.97 557.97C459.63 560.61 464.02 563.34 469.55 564.56C471.47 564.98 478.71 565.2 485.63 565.05C496.36 564.81 498.92 564.43 502.96 562.47ZM719.87 590.39C700.64 588 685.06 577.98 682.93 566.66C682.11 562.29 694.01 472.65 696.06 467.74C699.76 458.9 714.66 449.28 730.55 445.48C738.13 443.66 742.35 443.44 769.59 443.44C802.89 443.43 806.34 443.85 818.2 449.37C825.83 452.92 831.72 458.68 834.11 464.95L835.94 469.73L829.67 514.83C826.22 539.64 822.95 561.69 822.39 563.84C820.89 569.69 811.79 578.72 803.11 582.97C789.48 589.65 783.28 590.66 753.55 590.99C738.97 591.15 723.82 590.88 719.87 590.39ZM767.3 556.91C769.38 556.08 771.68 554.45 772.41 553.28C773.66 551.28 784.32 473.84 783.46 473.03C783.23 472.82 780.5 473.12 777.38 473.69C772.86 474.52 769.34 474.37 760.09 472.92C749.3 471.22 748.24 471.21 745.06 472.72C743.18 473.62 740.96 475.39 740.13 476.67C739.13 478.2 736.89 492.1 733.58 517.41C730.81 538.54 728.55 556.14 728.55 556.52C728.55 556.91 730.24 556.83 732.3 556.35C737.64 555.11 746 555.31 753.55 556.86C762.31 558.66 762.94 558.66 767.3 556.91ZM28.9402 587.42C10.8402 584.93 1.68019 578.76 0.0301876 567.93C-0.369812 565.3 3.21019 536.76 10.4802 484.51C16.5702 440.84 21.5502 404.72 21.5502 404.26C21.5502 403.81 44.5202 403.43 72.5902 403.43C114.73 403.43 124.94 403.7 131.11 404.98C145.33 407.91 154.84 413.51 159.55 421.74C163.12 427.95 163.2 430.19 160.56 448.28C157.45 469.55 152.61 477.41 138.39 484.33L130.53 488.15L136.63 490.38C146.68 494.05 153.63 501.83 155.11 511.09C155.47 513.36 154.45 523.89 152.59 536.93C148.28 567.16 145.85 571.64 129.19 580.09C115.09 587.24 111.35 587.75 71.0502 588.02C51.2502 588.15 32.3002 587.88 28.9402 587.42ZM96.2202 560C99.0602 558.68 101.87 556.7 102.45 555.61C104.25 552.25 109.04 510.73 107.98 507.76C107.47 506.33 105.48 504.32 103.57 503.29C100.47 501.64 97.6202 501.43 77.8202 501.43C65.5702 501.43 55.5502 501.6 55.5502 501.82C55.5502 502.48 47.6102 556.77 47.0902 559.68L46.6002 562.43L68.8302 562.42C90.1902 562.41 91.2502 562.32 96.2202 560ZM100.85 474.36C102.95 473.78 106.07 472.05 107.79 470.51C110.78 467.84 111.03 467.02 113.14 452.82C115.69 435.68 115.4 434.1 109.05 430.93C105.54 429.18 102.63 428.89 85.3002 428.59C74.4402 428.4 65.5402 428.63 65.5202 429.09C65.5002 429.55 64.0102 440.17 62.1902 452.68L58.9002 475.43L77.9702 475.42C88.4702 475.42 98.7602 474.94 100.85 474.36ZM210.08 587.37C190.84 584.4 176.07 573.88 174.88 562.29C174.18 555.4 186.12 471.18 188.46 466.61C192.56 458.57 203.27 451.23 218.05 446.34C224.67 444.16 226.81 444.01 257.42 443.66C284.68 443.34 290.94 443.54 297.13 444.91C306.84 447.08 315.42 451.48 320.38 456.86C327.09 464.14 327.2 465.43 323.38 493.44L320.05 517.93L273.5 518.19L226.96 518.45L224.73 534.69C221.88 555.46 221.89 555.69 225.58 558.8C229.55 562.14 233.11 562.71 247.27 562.29C258.02 561.96 259.47 561.69 263.79 559.14C268.27 556.51 268.95 555.46 269.77 549.93C270.36 545.9 300.94 537.48 309.65 538.95C318.33 540.41 320.08 545.82 315.32 556.43C309.27 569.91 295.17 580.89 277.11 586.2C271.07 587.97 219.81 588.87 210.08 587.37ZM279.16 484.93C279.97 480.06 280.01 477.34 279.29 475.97C276.54 470.75 270.02 468.43 258.16 468.43C247.37 468.43 240.92 470.05 236.89 473.79C233.97 476.5 233.32 478 232.17 484.7L230.83 492.47L254.42 492.2L278.01 491.93L279.16 484.93ZM622.75 587.35C604.54 584.55 590.04 574.21 588.08 562.62C587.68 560.22 589.77 543.62 594 515.59C597.6 491.77 600.55 472.09 600.55 471.85C600.55 471.62 596.72 471.43 592.05 471.43C585.92 471.43 583.55 471.08 583.55 470.18C583.55 469.49 584.3 463.64 585.21 457.18L586.87 445.43H595.14C604.49 445.43 603.71 446.18 605.58 435.43C606.2 431.85 607.54 427.02 608.56 424.7C611.42 418.19 619.42 410.87 628.27 406.67C635.06 403.44 637.1 402.95 645.34 402.59C650.49 402.37 655.13 402.61 655.65 403.13C656.23 403.71 655.45 411.3 653.57 423.32C651.91 433.91 650.55 443.21 650.55 444C650.55 445.13 652.34 445.43 659.05 445.43C663.72 445.43 667.55 445.71 667.55 446.06C667.55 447.07 664.53 466.7 664 469.18C663.54 471.3 663.01 471.43 655.14 471.43C647.28 471.43 646.74 471.57 646.25 473.68C644.51 481.28 635.38 553.63 635.91 555.71C637.04 560.22 643.48 562.43 655.5 562.43H665.83L665.16 568.18C663.55 582.11 662.47 586.21 660.21 586.91C656.51 588.04 629.37 588.36 622.75 587.35ZM846.47 588.01C845.89 587.44 865.94 446.71 866.7 445.95C867.04 445.61 872.98 444.88 879.91 444.33C894.96 443.12 905.42 444.22 909.81 447.46L912.72 449.61L921.38 446.77C929.77 444.02 930.7 443.93 950.55 443.95L971.05 443.96L979.7 447.25C984.45 449.06 989.16 451.45 990.16 452.56C991.81 454.38 991.85 454.82 990.5 457.25C988.59 460.69 978.28 467.63 970.84 470.47C963.02 473.46 953.59 473.67 950.56 470.93C948.56 469.13 946.93 468.93 934.2 468.93C921.42 468.93 919.64 469.15 915.81 471.19C913.49 472.44 910.93 474.46 910.13 475.69C909.21 477.11 906.09 497.14 901.6 530.43C897.7 559.31 894.26 584.17 893.95 585.68L893.39 588.43H870.14C857.35 588.43 846.7 588.24 846.47 588.01ZM343.05 371.56C328.32 364.86 325.67 344.9 338.14 334.62C346.39 327.82 359.68 328.09 367.82 335.22C369.5 336.7 369.45 336.92 366.92 339.57L364.25 342.35L361.24 340.21C356.88 337.1 349.01 336.72 344.74 339.4C338.79 343.13 336.69 352.88 340.51 359.13C343.69 364.34 347.05 365.86 354.72 365.54C358.04 365.4 363.55 360.91 363.55 358.34C363.55 356.67 362.79 356.43 357.55 356.43H351.55V352.93V349.43H362.61H373.67L372.99 354.18C372.03 360.84 370.37 364.42 366.5 368.19C360.96 373.58 350.72 375.06 343.05 371.56ZM410.26 372.81C409.87 372.42 409.55 362.68 409.55 351.18V330.26L421.53 330.6C433.44 330.93 433.54 330.95 436.64 334.06C442.82 340.24 440.79 351.33 433.02 353.88C431.39 354.41 429.88 354.96 429.68 355.09C429.47 355.23 432.28 359.07 435.92 363.63C439.56 368.2 442.54 372.27 442.54 372.68C442.55 373.09 440.55 373.43 438.11 373.43C433.69 373.43 433.63 373.38 426.86 364.48C423.11 359.56 419.73 355.51 419.34 355.48C418.95 355.45 418.5 359.37 418.34 364.18L418.05 372.93L414.51 373.23C412.57 373.39 410.66 373.2 410.26 372.81ZM431.22 345.81C432.75 343.47 432.78 342.93 431.46 340.56C430.17 338.27 429.25 337.89 424.27 337.63L418.55 337.33V342.88V348.43H424.03C428.83 348.43 429.71 348.11 431.22 345.81ZM486.4 371.47C484.39 370.38 481.69 367.78 480.4 365.71C478.24 362.24 478.02 360.65 477.71 346.18L477.37 330.43H481.96H486.55V345.76C486.55 360.61 486.62 361.15 488.93 363.32C493.44 367.55 501.53 365.78 503.5 360.14C504.08 358.48 504.55 351.12 504.55 343.78V330.43H508.55H512.55V345.47C512.55 362.4 511.45 366.23 505.37 370.56C500.85 373.78 491.47 374.22 486.4 371.47ZM551.55 351.93V330.43H561.8C569.55 330.43 572.9 330.86 575.55 332.18C584.25 336.53 584.5 349.48 576 355.05C574.55 356 570.53 356.91 566.52 357.2L559.55 357.7V365.56V373.43H555.55H551.55V351.93ZM571.33 348.87C572.88 347.79 573.55 346.3 573.55 343.94C573.55 339.06 571.4 337.43 564.98 337.43H559.55V343.93V350.43H564.33C567.03 350.43 570.07 349.75 571.33 348.87ZM628.63 370.78C608.5 360.75 616.29 329.48 638.93 329.44C652.83 329.41 663.98 343.48 660.52 356.67C656.79 370.84 641.94 377.42 628.63 370.78ZM647.73 362.77C652.52 358.43 653.84 351.46 651.11 344.92C647.07 335.26 631.91 335.03 626.99 344.55C624.35 349.65 625.43 357.77 629.26 361.6C634.18 366.52 642.97 367.08 647.73 362.77ZM471.55 297C452.17 293.53 435.49 287.43 418.7 277.65C413.65 274.72 414.07 274.28 423.55 272.47C431 271.05 433.55 269.92 433.55 268.03C433.55 266.24 424.72 235.26 424 234.55C423.69 234.24 420.77 233.02 417.51 231.84C410.54 229.32 402.45 224.57 396.97 219.8L393.05 216.38L399.72 219.95C406.62 223.65 414.14 225.44 419.47 224.65L422.55 224.2L422.59 215.57C422.62 210.82 423.24 201.31 423.98 194.43C424.74 187.38 424.95 181.23 424.48 180.33C424.02 179.45 420.53 175.62 416.74 171.83C409.99 165.07 405.55 158.28 405.55 154.72C405.56 151.88 409.2 146.66 412.29 145.06C413.85 144.26 416.9 143.3 419.08 142.92L423.05 142.25L420.39 144.59C414.32 149.95 414.6 155.19 421.32 161.65C427.1 167.21 433.83 170.99 447.56 176.4C477.46 188.17 496.51 190.58 517.05 185.19C544.5 177.98 566.46 167.68 572.68 159.09C576.45 153.89 576.36 150.42 572.34 145.84L569.12 142.18L572.59 142.91C581.21 144.73 585.55 148.84 585.55 155.18C585.55 159.17 580.82 166.2 572.96 173.91L566.27 180.46L566.89 186.2C567.23 189.35 568.06 199.24 568.72 208.18L569.93 224.43L572.49 224.58C580.34 225.02 587.38 223.11 594.05 218.72C600.17 214.69 596.17 218.89 589.02 223.99C585.64 226.4 579.32 229.74 574.97 231.41L567.05 234.45L562.46 250.94C556.99 270.57 556.98 270.55 567.27 272.44C577.04 274.24 577.49 274.69 572.4 277.65C558.36 285.83 541.47 292.42 525.55 295.96C515.36 298.22 481.98 298.86 471.55 297ZM514.46 281.36C523.66 279.38 526.52 275.61 529.55 261.45C530.59 256.56 532.43 250.61 533.62 248.24C536.4 242.73 543.91 232.11 548.74 226.85C553.53 221.65 559.3 212.07 560.63 207.15C562.29 200.95 559.77 196.43 554.63 196.43C551.53 196.43 550.09 197.83 546.22 204.61C544.15 208.23 542.31 209.89 538.03 211.98C533.08 214.41 531.71 214.63 524.78 214.19C514.81 213.55 508.99 210.95 501.48 203.78L495.55 198.13L489.62 203.78C482.14 210.91 476.28 213.55 466.46 214.18C454.82 214.93 449.46 211.9 442.19 200.44C438.79 195.06 432.79 195.02 430.58 200.36C428.35 205.75 433.66 217.23 443.34 227.93C452.58 238.14 461.55 254.33 461.55 260.79C461.55 265.02 464.47 272.91 467.28 276.27C469.21 278.58 471.61 280.03 475.06 280.96C481.2 282.6 507.4 282.87 514.46 281.36ZM352.86 223.06C355.99 217.15 358.55 211.75 358.55 211.05C358.55 210.35 357.37 206.88 355.93 203.35C351.76 193.13 347.78 175.77 346.53 162.34C343.27 127.28 353.24 90.88 374.03 61.93C381.6 51.38 400.07 32.52 401.42 33.96C401.91 34.5 406.92 48.43 412.55 64.93C423.9 98.15 431.18 115.94 438.31 127.82C444 137.28 455.63 149.44 464.54 155.22C472.71 160.52 471.6 160.6 461.7 155.43C447.46 147.99 431.67 134.4 422.08 121.35C419.48 117.82 417.23 114.8 417.08 114.63C416.92 114.47 415.53 116.33 413.99 118.77L411.19 123.2L403.56 115.5C394.09 105.95 387.56 102.43 379.29 102.43C376.06 102.43 372.58 102.88 371.56 103.43C369.34 104.61 364.38 117.06 361.06 129.77C357.08 145.02 356.92 144.29 364.95 147C368.75 148.28 373.47 150.62 375.45 152.2C380.12 155.93 384.95 163.1 387.05 169.42L388.71 174.44L381.88 184.45C378.12 189.96 374.49 195.27 373.8 196.26C372.75 197.78 373.03 198.68 375.63 202.22C377.31 204.51 378.44 206.8 378.12 207.31C377.81 207.82 370.72 213.99 362.37 221.02L347.18 233.81L352.86 223.06ZM627.93 220.14L612.81 206.93L615.68 202.75C617.26 200.45 618.55 198.27 618.55 197.91C618.55 197.55 615.17 192.38 611.05 186.43C606.85 180.38 603.56 174.58 603.57 173.27C603.6 170.04 606.88 163.11 611.1 157.36C614.82 152.3 623.4 147.11 630.16 145.84C634.13 145.1 634.28 144.19 632.01 134.43C630 125.78 626.89 116.22 623.79 109.16C621.02 102.84 619.69 102.07 611.51 102.06C604.6 102.04 598.11 105.73 588.81 114.97L580.56 123.16L577.81 118.8C576.29 116.4 574.83 114.45 574.55 114.47C574.27 114.49 572.78 116.51 571.22 118.97C564.12 130.18 543.98 148.19 530.55 155.35C524.39 158.63 517.6 161.32 520.94 159.16C521.98 158.48 525.4 156.25 528.54 154.2C536.62 148.91 548.26 136.33 553.78 126.89C561.13 114.35 566.77 100.51 578.75 65.68C584.85 47.94 590.16 33.43 590.56 33.43C590.96 33.43 595.32 37.42 600.24 42.29C632.55 74.23 648.89 118.34 644.65 162.14C643.33 175.77 639.32 193.18 635.17 203.35C633.73 206.88 632.55 210.22 632.55 210.77C632.55 211.32 635.04 216.64 638.09 222.6C641.14 228.56 643.5 233.41 643.34 233.39C643.18 233.38 636.25 227.41 627.93 220.14ZM490.05 143.55C482.24 141.49 473.21 134.85 466.24 126.03L463.05 122L467.81 125.27C470.42 127.06 476.05 130.2 480.31 132.23C487.14 135.5 488.93 135.93 495.55 135.9C504.45 135.86 511.44 133.41 521.1 126.94C528.7 121.84 528.18 123.64 519.55 132.27C510.22 141.6 498.98 145.89 490.05 143.55ZM528.74 72.73C522.52 68.7 512.93 64.96 506.47 64.02L501.89 63.36L499.04 50.39C497.47 43.26 495.93 37.43 495.61 37.43C495.28 37.43 493.73 43.24 492.15 50.34L489.27 63.26L482.89 64.46C476.95 65.58 466.68 69.96 460.34 74.08C458.85 75.05 457.47 75.64 457.27 75.39C456.16 74 444.46 9.12999 445.18 8.43999C446.45 7.22999 458.72 3.79999 469.05 1.76999C475.58 0.479989 482.85 0 495.55 0C514.3 0 523.57 1.27 539.35 6.03C546.1 8.06 547.56 8.84 547.15 10.23C546.88 11.16 543.9 26.32 540.53 43.92C537.17 61.51 534.33 75.96 534.23 76.03C534.13 76.1 531.66 74.61 528.74 72.73ZM473.4 250.76C470.57 247.54 470.35 244.95 472.67 242C474.59 239.56 475.34 239.31 479.44 239.7C481.98 239.95 486.64 240.76 489.8 241.5C494.64 242.63 496.46 242.63 501.3 241.47C504.46 240.72 509.25 240.06 511.93 240.02C516.09 239.94 517.11 240.32 518.79 242.57C520.55 244.91 520.62 245.51 519.41 247.97C517.22 252.45 515.57 252.94 507.81 251.48C501.23 250.24 489.73 250.45 479.03 252.01C475.89 252.47 474.66 252.2 473.4 250.76ZM484.58 228.35C475.63 223.89 474.06 223.41 471.48 224.3C468.89 225.21 468.55 225.1 468.55 223.38C468.55 222.31 469.49 220.49 470.64 219.34C473.06 216.92 474.37 217.11 485.38 221.5C489.4 223.11 493.98 224.43 495.55 224.43C497.12 224.43 501.7 223.11 505.72 221.5C516.73 217.11 518.04 216.92 520.46 219.34C521.61 220.49 522.55 222.32 522.55 223.41C522.55 225.13 522.21 225.25 519.92 224.38C516.7 223.16 515.47 223.53 506.7 228.35C496.21 234.12 496.16 234.12 484.58 228.35Z" fill="white"/>
</svg>
