<svg xmlns="http://www.w3.org/2000/svg" width="1212" height="865" viewBox="0 0 1212 865">
<g>
<path d="M 527.00 775.46 C519.86,773.24 514.53,767.15 515.51,762.36 C515.72,761.34 516.17,758.36 516.51,755.75 L 517.12 751.00 L 528.43 751.00 L 539.74 751.00 L 538.90 755.50 C537.84,761.17 538.40,762.60 542.23,763.93 C546.22,765.32 558.82,765.31 562.84,763.91 C566.44,762.65 567.11,760.77 569.04,746.56 C570.24,737.81 570.21,737.59 568.02,735.81 C566.13,734.28 563.87,734.00 553.57,734.00 C539.38,734.00 532.69,732.42 527.49,727.85 C523.39,724.26 523.15,721.81 525.45,707.60 C526.69,699.96 527.35,698.24 530.08,695.42 C531.83,693.61 535.57,691.10 538.38,689.83 C542.95,687.78 545.34,687.49 560.71,687.18 C581.14,686.77 586.53,687.86 591.99,693.49 C596.34,697.98 596.88,704.06 593.18,707.05 C590.33,709.37 583.97,710.26 577.50,709.25 C572.62,708.49 572.51,708.39 572.82,705.31 C573.25,700.96 571.03,700.00 560.57,700.00 C549.76,700.00 548.48,701.02 547.47,710.42 C547.00,714.82 547.14,717.46 547.89,718.37 C548.71,719.36 553.03,719.86 563.76,720.20 C580.39,720.74 585.49,722.22 590.28,727.92 C593.55,731.81 593.58,732.90 590.99,750.70 C588.83,765.46 587.84,767.78 582.00,771.76 C575.63,776.09 570.00,777.01 550.07,776.93 C537.14,776.88 530.13,776.44 527.00,775.46 ZM 597.29 776.30 C595.50,775.95 595.17,775.35 595.55,773.19 C595.81,771.71 598.51,752.28 601.56,730.00 C604.61,707.72 607.29,688.94 607.52,688.25 C608.01,686.77 630.00,686.43 630.00,687.90 C630.00,688.39 627.56,705.72 624.57,726.40 C618.43,768.99 617.89,770.79 610.04,774.75 C605.83,776.87 602.40,777.29 597.29,776.30 ZM 636.75 774.59 C631.32,773.13 628.44,770.89 627.59,767.48 C627.10,765.55 635.61,699.46 637.60,689.75 L 638.16 687.00 L 669.61 687.00 C703.74,687.00 703.69,686.99 701.23,692.41 C699.04,697.19 693.96,698.47 675.78,698.82 L 659.07 699.13 L 658.53 702.32 C657.18,710.40 656.01,718.66 656.01,720.25 C656.00,721.84 657.43,722.00 672.14,722.00 L 688.27 722.00 L 687.64 726.64 C687.29,729.19 687.00,731.89 687.00,732.64 C687.00,733.73 683.75,734.00 670.50,734.00 C661.42,734.00 653.99,734.34 653.98,734.75 C653.96,735.16 653.07,741.35 652.00,748.50 C650.93,755.65 650.04,762.06 650.02,762.75 C650.01,763.71 654.65,764.00 670.00,764.00 L 690.00 764.00 L 690.00 768.42 C690.00,776.50 691.62,776.01 665.14,775.93 C649.30,775.89 639.93,775.44 636.75,774.59 ZM 462.30 657.92 C456.80,656.87 454.30,655.53 449.74,651.17 C445.30,646.92 442.00,638.86 441.99,632.21 C441.98,624.48 465.05,460.61 466.33,459.34 C468.07,457.60 477.78,455.00 482.50,455.00 C490.24,455.00 497.09,457.78 502.10,462.94 C507.65,468.66 510.00,474.89 510.01,483.93 C510.02,491.93 488.13,651.01 486.78,652.71 C485.40,654.45 476.29,657.63 471.00,658.22 C468.52,658.50 464.61,658.36 462.30,657.92 ZM 549.00 653.49 C534.18,650.18 520.99,640.59 518.13,631.03 C516.29,624.89 521.94,587.81 525.81,580.65 C529.31,574.16 536.74,567.68 545.39,563.54 C558.18,557.44 561.80,556.86 592.00,556.11 C617.77,555.47 619.77,555.28 623.74,553.20 C629.19,550.33 630.99,547.47 631.71,540.53 C632.24,535.35 632.07,534.68 629.49,531.99 C625.73,528.06 618.92,526.66 605.93,527.16 C597.14,527.49 594.79,527.94 591.01,530.04 C588.54,531.41 585.62,533.96 584.51,535.72 L 582.50 538.92 L 558.27 538.96 L 534.04 539.00 L 534.63 534.25 C535.96,523.49 543.27,514.91 556.62,508.44 C571.71,501.12 575.49,500.59 613.00,500.54 C642.47,500.51 647.27,500.72 652.92,502.32 C670.26,507.24 681.93,517.60 682.03,528.15 C682.08,533.97 665.69,651.47 664.74,652.11 C663.36,653.04 642.39,655.00 633.94,654.99 C625.01,654.99 619.55,653.63 617.66,650.93 C616.27,648.95 616.20,648.95 607.38,651.63 C599.11,654.14 597.02,654.35 577.00,654.63 C560.94,654.86 553.85,654.57 549.00,653.49 ZM 614.56 625.17 C616.79,623.90 619.14,622.01 619.78,620.98 C620.97,619.07 626.67,578.34 625.86,577.53 C625.61,577.28 622.51,577.99 618.96,579.10 C615.02,580.33 607.04,581.51 598.50,582.13 C581.25,583.39 577.99,584.20 573.69,588.28 C570.58,591.24 570.21,592.24 569.17,600.50 C566.64,620.74 566.65,620.35 568.64,622.79 C572.12,627.07 577.10,628.02 594.50,627.75 C609.16,627.52 610.84,627.31 614.56,625.17 ZM 832.31 653.01 C817.33,649.08 806.97,641.74 803.47,632.56 L 801.63 627.74 L 808.25 578.45 C813.34,540.54 815.34,528.26 816.89,525.22 C821.44,516.30 835.46,507.21 851.50,502.79 C858.98,500.73 861.64,500.59 892.50,500.54 C921.23,500.51 926.34,500.73 932.00,502.29 C949.44,507.10 959.63,515.06 962.08,525.81 C962.71,528.57 961.17,541.84 955.99,578.37 C949.85,621.60 948.77,627.72 946.54,631.52 C940.98,641.00 927.85,649.15 911.98,652.95 C904.34,654.78 900.32,654.98 871.50,654.94 C843.47,654.90 838.61,654.66 832.31,653.01 ZM 891.45 619.58 C893.32,618.80 895.52,617.12 896.34,615.83 C897.32,614.31 899.71,599.09 903.21,572.19 C908.42,532.06 908.52,530.89 906.54,531.44 C900.38,533.12 893.13,533.15 882.74,531.52 C872.53,529.92 871.16,529.90 867.83,531.30 C865.81,532.14 863.43,533.94 862.55,535.29 C861.43,536.99 859.31,550.18 855.58,578.62 C852.64,601.10 850.30,619.59 850.39,619.69 C850.48,619.80 852.34,619.48 854.53,618.97 C860.08,617.68 868.35,617.86 876.00,619.43 C884.76,621.22 887.46,621.25 891.45,619.58 ZM 109.40 650.51 C102.30,648.97 94.43,645.20 91.30,641.84 C88.16,638.47 86.00,632.75 86.00,627.80 C86.00,624.08 107.09,469.15 108.61,461.71 L 109.18 458.92 L 166.34 459.21 L 223.50 459.50 L 231.41 462.20 C245.32,466.93 254.99,475.67 256.42,484.80 C257.32,490.51 252.72,519.63 250.03,525.28 C245.54,534.72 236.15,542.51 224.50,546.49 C222.92,547.03 223.81,547.66 228.73,549.46 C236.52,552.30 241.40,555.98 245.06,561.76 C249.58,568.88 249.68,572.77 246.04,599.00 C243.53,617.06 242.23,623.57 240.44,627.11 C235.43,637.00 221.46,646.00 204.98,649.95 C197.15,651.83 193.41,651.98 156.00,651.91 C126.32,651.86 113.87,651.49 109.40,650.51 ZM 186.66 623.28 C194.11,619.30 194.36,618.60 197.49,593.09 C200.72,566.79 200.63,566.10 193.75,562.97 C189.96,561.25 187.06,561.04 166.92,561.02 L 144.34 561.00 L 140.08 591.25 C137.73,607.89 135.57,622.55 135.28,623.83 L 134.74 626.16 L 158.62 625.83 C181.03,625.52 182.76,625.36 186.66,623.28 ZM 194.58 532.10 C201.48,528.97 202.39,526.96 204.87,509.49 C207.41,491.65 207.24,490.83 200.32,487.41 C197.03,485.77 193.65,485.47 175.81,485.17 L 155.12 484.83 L 154.54 488.16 C153.96,491.50 148.00,532.90 148.00,533.62 C148.00,533.83 157.56,533.99 169.25,533.98 C187.77,533.96 191.02,533.72 194.58,532.10 ZM 299.37 650.05 C288.91,647.26 280.99,642.89 275.66,636.97 C267.89,628.33 267.91,629.90 274.97,578.00 C278.37,552.97 281.57,530.88 282.08,528.89 C284.74,518.49 299.31,507.93 318.10,502.79 C326.07,500.62 328.19,500.50 359.50,500.50 C395.13,500.50 398.53,500.90 410.68,506.45 C416.98,509.34 424.22,515.83 426.50,520.64 C428.76,525.41 428.58,529.66 425.03,555.50 C423.37,567.60 422.00,577.84 422.00,578.25 C422.00,578.66 399.95,579.00 373.00,579.00 C346.05,579.00 324.00,579.32 324.00,579.70 C324.00,580.09 322.85,588.72 321.43,598.88 C318.91,617.08 318.90,617.38 320.77,619.92 C324.05,624.39 330.89,626.08 344.00,625.68 C356.52,625.30 361.42,623.88 366.25,619.26 C368.15,617.44 369.00,615.62 369.00,613.36 L 369.00 610.10 L 379.75 606.64 C394.02,602.04 401.51,600.67 409.58,601.19 C417.88,601.71 420.52,604.11 419.68,610.35 C418.96,615.74 413.82,625.79 408.96,631.30 C403.13,637.93 391.32,645.47 381.71,648.69 L 373.50 651.45 L 340.00 651.70 C309.77,651.93 305.80,651.77 299.37,650.05 ZM 378.98 544.12 C380.07,537.14 380.02,535.96 378.54,533.71 C375.27,528.72 370.84,527.50 356.00,527.51 C344.16,527.53 342.01,527.79 338.50,529.66 C332.45,532.88 331.27,534.77 329.72,543.75 L 328.29 552.00 L 353.02 552.00 L 377.76 552.00 L 378.98 544.12 ZM 734.21 650.51 C715.75,646.39 703.03,634.96 703.01,622.44 C703.00,619.66 705.92,598.07 709.50,574.46 C713.08,550.85 716.00,531.19 716.00,530.77 C716.00,530.35 711.95,530.00 707.00,530.00 C701.92,530.00 698.00,529.58 698.00,529.04 C698.00,527.83 700.93,508.26 701.55,505.29 C701.98,503.24 702.66,503.06 710.74,502.79 L 719.45 502.50 L 721.14 493.38 C722.06,488.37 723.76,482.43 724.90,480.19 C730.10,469.99 744.35,460.37 757.78,457.97 C764.41,456.78 773.42,457.26 774.41,458.85 C774.77,459.44 770.83,486.73 768.49,499.75 L 767.91 503.00 L 776.95 503.00 C787.54,503.00 786.81,501.45 784.16,518.50 L 782.44 529.50 L 773.22 529.79 C768.15,529.95 764.00,530.49 764.00,530.99 C764.00,531.49 761.51,549.98 758.46,572.07 C755.42,594.17 752.87,613.76 752.80,615.61 C752.54,622.61 760.05,626.00 775.79,626.00 C783.28,626.00 785.11,626.28 784.70,627.35 C784.41,628.09 783.61,633.06 782.91,638.40 C782.21,643.74 781.08,648.87 780.40,649.81 C779.32,651.28 776.70,651.53 759.83,651.71 C746.21,651.85 738.64,651.50 734.21,650.51 ZM 974.00 650.25 C974.00,648.32 993.75,508.79 994.51,505.37 C995.13,502.56 997.04,502.15 1013.00,501.40 C1028.04,500.69 1036.88,501.82 1041.22,505.01 L 1043.93 507.01 L 1051.45 504.49 C1061.98,500.95 1073.34,499.65 1088.50,500.25 C1099.68,500.68 1102.87,501.21 1111.29,504.02 C1121.88,507.54 1126.00,510.07 1126.00,513.02 C1126.00,518.34 1108.00,529.15 1095.63,531.27 C1089.15,532.38 1088.59,532.32 1084.65,530.05 C1081.05,527.97 1078.88,527.60 1068.35,527.23 C1054.16,526.73 1046.85,528.31 1042.30,532.85 C1039.47,535.68 1039.45,535.80 1031.71,593.09 C1027.45,624.67 1023.97,650.84 1023.98,651.25 C1023.99,651.66 1012.75,652.00 999.00,652.00 C975.86,652.00 974.00,651.87 974.00,650.25 ZM 583.50 439.89 C567.03,437.52 546.12,430.30 531.54,421.96 C523.84,417.55 522.41,416.00 526.05,416.00 C530.64,416.00 542.16,412.74 542.72,411.29 C543.04,410.45 541.68,404.08 539.71,397.13 C537.73,390.19 535.62,382.62 535.03,380.31 C534.03,376.42 533.55,375.98 528.23,373.99 C519.64,370.78 512.03,366.46 507.00,361.95 L 502.50 357.92 L 506.50 360.29 C514.22,364.89 521.24,366.70 529.25,366.18 L 532.00 366.00 L 532.01 356.75 C532.01,351.66 532.45,343.67 532.99,339.00 C535.06,320.96 535.21,321.66 527.71,314.52 C519.70,306.89 515.00,299.80 515.00,295.34 C515.00,291.03 519.67,285.71 524.82,284.17 C531.36,282.21 532.12,282.68 528.40,286.40 C526.53,288.27 525.00,290.82 525.00,292.06 C525.00,295.74 529.47,302.28 534.41,305.83 C544.41,313.01 567.92,322.25 588.50,327.09 C605.57,331.11 624.54,328.73 649.86,319.39 C681.39,307.77 693.33,296.13 683.80,286.30 C681.07,283.48 680.89,283.01 682.55,283.04 C685.52,283.11 691.90,285.60 694.03,287.53 C695.07,288.47 696.43,290.77 697.04,292.64 C698.68,297.60 695.36,303.69 685.68,313.44 L 677.76 321.43 L 678.35 327.46 C678.67,330.78 679.48,340.78 680.15,349.67 C681.37,365.84 681.37,365.84 683.93,366.34 C688.19,367.16 696.10,365.23 703.25,361.60 C706.96,359.72 710.00,358.34 710.00,358.52 C710.00,358.71 706.58,361.36 702.40,364.41 C697.98,367.64 691.39,371.26 686.65,373.07 L 678.50 376.17 L 673.69 393.33 C668.04,413.53 667.82,412.83 680.42,414.99 C684.59,415.70 688.00,416.59 688.00,416.96 C688.00,418.18 673.16,426.17 663.64,430.09 C652.92,434.51 638.76,438.37 627.63,439.92 C618.63,441.17 592.27,441.15 583.50,439.89 ZM 623.49 424.01 C626.79,423.47 630.62,422.19 631.99,421.17 C635.82,418.35 638.82,412.13 640.44,403.67 C641.24,399.46 642.82,393.93 643.95,391.39 C646.32,386.03 653.36,375.91 659.67,368.81 C665.18,362.60 668.47,357.41 671.06,350.84 C673.46,344.75 672.92,340.65 669.41,338.35 C665.72,335.93 661.49,338.09 658.55,343.89 C655.67,349.57 653.78,351.33 647.55,354.08 C643.57,355.84 641.35,356.16 635.58,355.78 C626.49,355.19 620.55,352.53 612.42,345.39 L 605.96 339.72 L 600.23 344.91 C592.38,352.01 585.39,355.21 576.47,355.78 C570.65,356.16 568.43,355.84 564.45,354.08 C558.22,351.33 556.33,349.57 553.45,343.89 C547.57,332.31 536.09,337.50 540.42,349.77 C542.65,356.10 546.82,362.72 552.74,369.36 C558.89,376.25 566.32,387.12 568.58,392.55 C569.45,394.62 570.80,399.66 571.58,403.76 C574.01,416.45 578.21,422.29 585.78,423.53 C587.83,423.86 590.17,424.28 591.00,424.45 C594.63,425.22 618.05,424.90 623.49,424.01 ZM 456.11 374.47 C456.34,373.94 458.95,368.74 461.91,362.93 L 467.28 352.35 L 464.12 344.16 C442.57,288.28 456.38,224.72 499.35,181.89 C504.81,176.45 509.60,172.00 510.00,172.00 C510.40,172.00 515.12,184.94 520.48,200.75 C534.37,241.67 542.02,259.78 551.01,273.00 C555.99,280.34 569.57,293.17 576.45,297.06 C582.36,300.40 583.56,301.54 579.53,300.01 C574.80,298.21 568.45,294.68 561.00,289.70 C552.28,283.88 533.60,265.66 529.22,258.72 L 526.21 253.93 L 523.85 257.65 C522.56,259.69 521.22,261.79 520.87,262.30 C520.52,262.82 516.66,259.66 512.29,255.29 C501.13,244.13 491.70,240.19 482.13,242.68 C479.08,243.48 478.43,244.34 475.41,251.65 C471.95,260.01 467.46,275.90 466.85,281.94 C466.51,285.32 466.59,285.41 472.00,287.02 C479.83,289.36 483.13,291.29 487.42,296.04 C491.48,300.54 497.02,311.26 496.96,314.50 C496.94,315.60 493.36,321.64 489.02,327.93 L 481.12 339.36 L 484.06 343.08 C485.68,345.12 487.00,347.22 487.00,347.74 C487.00,348.27 484.41,350.92 481.25,353.62 C461.05,370.92 455.73,375.33 456.11,374.47 ZM 744.26 365.06 C738.08,359.62 731.17,353.59 728.90,351.65 L 724.79 348.12 L 727.98 343.68 L 731.17 339.23 L 722.96 327.25 L 714.76 315.26 L 715.99 311.38 C717.51,306.59 721.11,300.22 724.70,295.95 C727.55,292.55 737.24,287.43 742.75,286.39 C744.54,286.05 746.00,285.18 746.00,284.45 C746.00,281.51 742.80,268.01 740.32,260.51 C734.63,243.30 733.48,242.00 723.92,242.00 C716.55,242.00 710.64,245.28 701.00,254.74 C691.65,263.90 692.57,263.75 687.77,256.95 C686.18,254.69 685.97,254.64 684.97,256.26 C681.54,261.85 670.60,274.14 664.07,279.74 C654.53,287.91 647.45,292.75 638.27,297.36 C629.81,301.62 627.57,302.12 634.00,298.32 C647.18,290.52 658.29,279.00 666.34,264.76 C673.31,252.43 679.13,237.93 690.69,204.06 C696.42,187.25 701.46,173.15 701.89,172.72 C702.31,172.29 707.81,177.24 714.10,183.72 C736.28,206.56 749.12,230.81 755.18,261.27 C756.97,270.26 757.41,275.89 757.40,289.50 C757.38,311.61 754.88,325.32 746.97,346.62 L 744.70 352.74 L 750.39 363.87 C753.52,369.99 755.95,374.99 755.79,374.97 C755.63,374.96 750.44,370.50 744.26,365.06 ZM 599.50 283.65 C597.30,282.93 593.95,281.53 592.06,280.54 C588.16,278.51 578.83,269.98 575.69,265.57 L 573.60 262.63 L 578.05 265.68 C587.30,272.01 599.58,277.00 605.91,276.99 C613.22,276.98 626.37,271.66 634.60,265.37 C640.78,260.66 638.81,264.08 630.68,272.21 C620.40,282.47 608.84,286.72 599.50,283.65 ZM 566.10 210.75 C558.05,170.02 554.04,147.56 554.70,146.90 C556.26,145.34 578.61,140.16 589.00,138.95 C601.57,137.48 621.98,138.20 633.93,140.51 C645.31,142.72 658.00,146.81 658.02,148.29 C658.04,149.93 645.72,214.38 645.27,214.96 C645.08,215.21 643.70,214.62 642.21,213.65 C636.05,209.63 625.09,204.95 619.00,203.73 L 612.50 202.42 L 609.50 189.22 C607.85,181.95 606.28,176.01 606.00,176.01 C605.72,176.00 604.15,181.95 602.50,189.22 L 599.50 202.43 L 592.50 204.04 C584.25,205.93 577.76,208.69 571.60,212.93 L 567.14 216.00 L 566.10 210.75 ZM 582.65 391.91 C580.27,388.52 580.62,385.45 583.63,383.07 C586.75,380.62 589.75,380.49 596.41,382.51 C599.11,383.33 603.42,384.00 606.00,384.00 C608.58,384.00 612.89,383.33 615.59,382.51 C622.25,380.49 625.25,380.62 628.37,383.07 C631.38,385.45 631.73,388.52 629.35,391.91 C627.79,394.14 627.36,394.22 621.10,393.43 C617.47,392.98 610.67,392.61 606.00,392.61 C601.33,392.61 594.53,392.98 590.90,393.43 C584.64,394.22 584.21,394.14 582.65,391.91 ZM 594.42 369.85 C585.74,365.30 584.29,364.83 581.81,365.77 C579.22,366.74 579.00,366.64 579.00,364.44 C579.00,362.99 579.99,361.40 581.52,360.40 C583.91,358.83 584.40,358.88 591.27,361.45 C595.25,362.94 600.19,364.67 602.25,365.29 C606.38,366.53 608.18,366.15 620.73,361.45 C627.60,358.88 628.09,358.83 630.48,360.40 C632.01,361.40 633.00,362.99 633.00,364.44 C633.00,366.64 632.78,366.74 630.19,365.77 C627.71,364.83 626.26,365.30 617.58,369.85 C612.19,372.68 606.98,375.00 606.00,375.00 C605.02,375.00 599.81,372.68 594.42,369.85 Z" fill="rgba(27,54,144,1)"/>
</g>
</svg>