<svg xmlns="http://www.w3.org/2000/svg" width="1212" height="865" viewBox="0 0 1212 865">
<g>
<path d="M 109.15 531.93 C99.66,530.06 90.47,521.94 87.41,512.73 C85.26,506.27 85.90,496.07 88.80,490.39 C91.85,484.41 99.84,477.64 106.18,475.65 C111.12,474.10 146.83,474.00 608.00,474.24 L 747.92 474.31 C747.27,474.46 746.52,475.30 745.01,477.07 C741.78,480.85 741.44,482.04 743.14,483.74 C743.99,484.59 745.25,484.09 748.14,481.77 C750.26,480.06 752.00,478.36 752.00,477.99 C752.00,477.61 751.09,476.48 749.97,475.48 C749.25,474.82 748.78,474.41 748.33,474.31 L 1104.50 474.50 L 1109.26 476.87 C1111.88,478.17 1116.00,481.43 1118.42,484.12 C1131.60,498.78 1127.14,520.89 1109.21,529.69 L 1103.50 532.50 L 608.50 532.64 C336.06,532.72 111.54,532.40 109.15,531.93 ZM 118.19 760.97 C97.53,758.86 86.00,750.41 86.00,737.39 C86.00,733.43 106.96,578.92 108.61,570.75 L 109.16 568.00 L 162.62 568.00 C222.34,568.00 225.77,568.30 238.67,574.55 C247.31,578.74 254.19,585.82 255.85,592.21 C256.74,595.66 256.54,599.54 254.86,612.00 C253.71,620.53 251.88,629.86 250.81,632.75 C247.85,640.70 240.36,648.27 230.87,652.89 L 222.98 656.72 L 228.98 658.91 C240.70,663.18 247.76,671.36 248.74,681.78 C249.20,686.62 243.74,727.87 241.86,733.79 C241.29,735.60 238.31,739.79 235.25,743.10 C230.88,747.81 227.72,750.05 220.59,753.47 C205.29,760.81 201.54,761.33 161.50,761.59 C142.25,761.72 122.76,761.44 118.19,760.97 ZM 841.81 764.02 C822.23,761.56 807.77,753.12 803.46,741.62 L 801.63 736.74 L 808.31 687.21 C814.28,643.04 815.27,637.22 817.49,633.42 C824.76,621.02 843.66,611.97 866.76,609.84 C882.91,608.35 923.41,609.36 931.91,611.46 C947.30,615.28 958.71,623.72 961.47,633.32 C962.91,638.33 962.74,640.07 956.11,687.03 C950.90,723.96 948.78,736.52 947.23,739.56 C942.42,748.99 929.01,757.69 912.50,762.11 C905.40,764.01 901.35,764.28 876.50,764.55 C861.10,764.72 845.49,764.48 841.81,764.02 ZM 557.50 764.01 C537.30,761.82 521.31,751.95 517.89,739.57 C516.30,733.79 522.26,696.23 525.81,689.64 C530.69,680.61 542.95,672.35 558.02,667.95 C564.57,666.04 568.87,665.69 592.50,665.13 C617.15,664.55 619.84,664.32 623.44,662.43 C629.03,659.50 631.25,656.07 631.79,649.51 C632.16,645.03 631.89,643.53 630.38,641.87 C626.90,638.02 622.81,636.69 613.00,636.22 C597.41,635.46 587.85,638.52 583.99,645.50 L 582.34 648.50 L 534.50 648.50 L 534.84 643.50 C535.78,629.79 549.70,618.09 572.50,611.84 C579.94,609.80 582.76,609.64 612.50,609.59 C640.00,609.54 645.48,609.78 651.50,611.31 C661.33,613.80 668.10,617.12 673.51,622.12 C679.29,627.44 682.01,632.63 681.96,638.21 C681.94,640.57 678.23,669.28 673.70,702.00 L 665.47 761.50 L 656.49 762.67 C645.00,764.17 626.63,764.30 621.64,762.92 C619.16,762.23 617.58,761.12 617.25,759.84 C616.85,758.33 616.21,758.00 614.61,758.50 C600.78,762.87 593.90,764.05 580.09,764.45 C572.06,764.68 561.90,764.48 557.50,764.01 ZM 583.50 439.89 C567.03,437.52 546.12,430.30 531.54,421.96 C523.84,417.55 522.41,416.00 526.05,416.00 C530.64,416.00 542.16,412.74 542.72,411.29 C543.04,410.45 541.68,404.08 539.71,397.13 C537.73,390.19 535.62,382.62 535.03,380.31 C534.03,376.42 533.55,375.98 528.23,373.99 C519.64,370.78 512.03,366.46 507.00,361.95 L 502.50 357.92 L 506.50 360.29 C514.22,364.89 521.24,366.70 529.25,366.18 L 532.00 366.00 L 532.01 356.75 C532.01,351.66 532.45,343.67 532.99,339.00 C534.25,328.01 534.80,323.97 533.34,320.89 C532.40,318.90 530.64,317.31 527.71,314.52 C519.70,306.89 515.00,299.80 515.00,295.34 C515.00,291.03 519.67,285.71 524.82,284.17 C531.36,282.21 532.12,282.68 528.40,286.40 C526.53,288.27 525.00,290.82 525.00,292.06 C525.00,295.74 529.47,302.28 534.41,305.83 C544.41,313.01 567.92,322.25 588.50,327.09 C605.57,331.11 624.54,328.73 649.86,319.39 C681.39,307.77 693.33,296.13 683.80,286.30 C681.07,283.48 680.89,283.01 682.55,283.04 C685.52,283.11 691.90,285.60 694.03,287.53 C695.07,288.47 696.43,290.77 697.04,292.64 C698.68,297.60 695.36,303.69 685.68,313.44 L 677.76 321.43 L 678.35 327.46 C678.67,330.78 679.48,340.78 680.15,349.67 C681.37,365.84 681.37,365.84 683.93,366.34 C688.19,367.16 696.10,365.23 703.25,361.60 C706.96,359.72 710.00,358.34 710.00,358.52 C710.00,358.71 706.58,361.36 702.40,364.41 C697.98,367.64 691.39,371.26 686.65,373.07 L 678.50 376.17 L 673.69 393.33 C670.45,404.93 668.99,409.64 670.73,411.95 C672.02,413.67 675.06,414.07 680.42,414.99 C684.59,415.70 688.00,416.59 688.00,416.96 C688.00,418.18 673.16,426.17 663.64,430.09 C652.92,434.51 638.76,438.37 627.63,439.92 C618.63,441.17 592.27,441.15 583.50,439.89 ZM 308.68 761.00 C287.87,758.40 271.65,747.71 269.53,735.20 C268.90,731.42 279.94,646.67 282.18,638.13 C283.80,631.95 292.17,623.20 300.74,618.73 C316.46,610.52 330.90,608.48 367.83,609.27 C394.43,609.84 399.09,610.56 410.55,615.89 C422.02,621.23 428.24,629.01 428.14,637.90 C428.11,640.43 426.71,652.40 425.04,664.50 C423.37,676.60 422.00,686.84 422.00,687.25 C422.00,687.66 399.95,688.00 373.00,688.00 C346.05,688.00 324.00,688.37 324.00,688.83 C324.00,689.28 322.85,697.88 321.45,707.94 C319.13,724.65 319.04,726.42 320.46,728.59 C323.70,733.53 327.33,734.50 342.50,734.50 C355.84,734.50 356.75,734.37 361.71,731.75 C367.38,728.76 369.00,726.66 369.00,722.30 C369.00,719.67 369.55,719.27 376.75,716.75 C393.76,710.77 409.57,708.48 415.39,711.13 C419.16,712.85 420.57,717.17 419.03,722.30 C413.97,739.22 398.51,753.06 377.98,759.05 C371.25,761.01 367.75,761.26 343.00,761.54 C327.88,761.71 312.43,761.47 308.68,761.00 ZM 741.76 760.95 C719.31,758.34 703.00,746.01 703.00,731.66 C703.00,729.06 705.92,707.49 709.50,683.72 C713.07,659.95 716.00,640.16 716.00,639.75 C716.00,639.34 711.95,639.00 707.00,639.00 C702.05,639.00 698.00,638.77 698.00,638.49 C698.00,637.48 701.03,617.43 701.59,614.75 C702.16,612.00 702.17,612.00 710.91,612.00 L 719.65 612.00 L 720.90 603.75 C722.53,593.02 724.73,588.22 731.11,581.48 C737.16,575.08 744.03,570.89 752.50,568.43 C758.75,566.62 772.52,566.12 774.04,567.64 C774.74,568.34 771.65,591.24 768.50,608.75 L 767.91 612.00 L 776.95 612.00 C781.57,612.00 784.03,611.70 785.12,612.78 C786.53,614.18 785.66,617.88 784.19,627.50 L 782.50 638.50 L 773.25 638.79 C767.49,638.97 764.00,639.48 764.00,640.15 C764.00,640.74 761.51,659.24 758.46,681.26 C755.42,703.28 752.87,722.87 752.80,724.80 C752.53,731.81 759.51,734.99 775.22,734.99 L 784.95 735.00 L 784.46 737.75 C784.19,739.26 783.31,744.73 782.51,749.89 C781.71,755.06 780.89,759.45 780.69,759.65 C780.48,759.85 776.98,760.45 772.91,760.98 C764.34,762.09 751.43,762.08 741.76,760.95 ZM 974.03 759.25 C974.08,755.15 994.55,613.11 995.19,612.48 C996.32,611.35 1019.82,609.85 1026.86,610.46 C1034.69,611.14 1041.53,613.34 1042.33,615.42 C1042.70,616.37 1044.88,615.99 1051.16,613.89 C1066.74,608.68 1090.75,607.66 1106.21,611.54 C1115.80,613.95 1125.43,618.99 1125.83,621.81 C1126.75,628.34 1103.88,641.00 1091.17,641.00 C1087.60,641.00 1085.49,640.39 1083.41,638.75 C1080.74,636.65 1079.57,636.50 1066.02,636.50 C1052.37,636.50 1051.23,636.65 1047.09,639.00 C1044.66,640.38 1041.89,642.62 1040.92,644.00 C1039.58,645.91 1037.36,659.87 1031.48,703.50 C1027.25,734.85 1023.59,760.84 1023.34,761.25 C1023.09,761.66 1011.88,762.00 998.44,762.00 L 974.00 762.00 ZM 460.10 766.90 C449.41,763.64 442.02,753.06 442.01,741.00 C442.00,738.53 447.17,699.32 453.50,653.87 C459.83,608.42 465.00,570.74 465.00,570.14 C465.00,568.42 470.13,566.21 477.10,564.93 C490.55,562.45 500.87,567.31 506.75,578.91 C509.41,584.15 510.01,586.51 510.05,591.91 C510.08,595.53 505.02,635.27 498.81,680.22 L 487.53 761.94 L 481.82 764.50 C475.35,767.40 465.35,768.51 460.10,766.90 ZM 456.11 374.47 C456.34,373.94 458.95,368.74 461.91,362.93 L 467.28 352.35 L 464.12 344.16 C442.57,288.28 456.38,224.72 499.35,181.89 C504.81,176.45 509.60,172.00 510.00,172.00 C510.40,172.00 515.12,184.94 520.48,200.75 C534.37,241.67 542.02,259.78 551.01,273.00 C555.99,280.34 569.57,293.17 576.45,297.06 C582.36,300.40 583.56,301.54 579.53,300.01 C574.80,298.21 568.45,294.68 561.00,289.70 C552.28,283.88 533.60,265.66 529.22,258.72 L 526.21 253.93 L 523.85 257.65 C522.56,259.69 521.22,261.79 520.87,262.30 C520.52,262.82 516.66,259.66 512.29,255.29 C501.13,244.13 491.70,240.19 482.13,242.68 C479.08,243.48 478.43,244.34 475.41,251.65 C471.95,260.01 467.46,275.90 466.85,281.94 C466.51,285.32 466.59,285.41 472.00,287.02 C479.83,289.36 483.13,291.29 487.42,296.04 C491.48,300.54 497.02,311.26 496.96,314.50 C496.94,315.60 493.36,321.64 489.02,327.93 L 481.12 339.36 L 484.06 343.08 C485.68,345.12 487.00,347.22 487.00,347.74 C487.00,348.27 484.41,350.92 481.25,353.62 C461.05,370.92 455.73,375.33 456.11,374.47 ZM 623.49 424.01 C626.79,423.47 630.62,422.19 631.99,421.17 C635.82,418.35 638.82,412.13 640.44,403.67 C641.24,399.46 642.82,393.93 643.95,391.39 C646.32,386.03 653.36,375.91 659.67,368.81 C665.18,362.60 668.47,357.41 671.06,350.84 C673.46,344.75 672.92,340.65 669.41,338.35 C665.72,335.93 661.49,338.09 658.55,343.89 C655.67,349.57 653.78,351.33 647.55,354.08 C643.57,355.84 641.35,356.16 635.58,355.78 C626.49,355.19 620.55,352.53 612.42,345.39 L 605.96 339.72 L 600.23 344.91 C592.38,352.01 585.39,355.21 576.47,355.78 C570.65,356.16 568.43,355.84 564.45,354.08 C558.22,351.33 556.33,349.57 553.45,343.89 C547.57,332.31 536.09,337.50 540.42,349.77 C542.65,356.10 546.82,362.72 552.74,369.36 C558.89,376.25 566.32,387.12 568.58,392.55 C569.45,394.62 570.80,399.66 571.58,403.76 C574.01,416.45 578.21,422.29 585.78,423.53 C587.83,423.86 590.17,424.28 591.00,424.45 C594.63,425.22 618.05,424.90 623.49,424.01 ZM 744.26 365.06 C738.08,359.62 731.17,353.59 728.90,351.65 L 724.79 348.12 L 727.98 343.68 L 731.17 339.23 L 722.96 327.25 L 714.76 315.26 L 715.99 311.38 C717.51,306.59 721.11,300.22 724.70,295.95 C727.55,292.55 737.24,287.43 742.75,286.39 C744.54,286.05 746.00,285.18 746.00,284.45 C746.00,281.51 742.80,268.01 740.32,260.51 C734.63,243.30 733.48,242.00 723.92,242.00 C716.55,242.00 710.64,245.28 701.00,254.74 C695.75,259.89 693.74,262.10 692.13,261.83 C690.88,261.63 689.88,259.92 687.77,256.95 C686.18,254.69 685.97,254.64 684.97,256.26 C681.54,261.85 670.60,274.14 664.07,279.74 C654.53,287.91 647.45,292.75 638.27,297.36 C629.81,301.62 627.57,302.12 634.00,298.32 C647.18,290.52 658.29,279.00 666.34,264.76 C673.31,252.43 679.13,237.93 690.69,204.06 C696.42,187.25 701.46,173.15 701.89,172.72 C702.31,172.29 707.81,177.24 714.10,183.72 C736.28,206.56 749.12,230.81 755.18,261.27 C756.97,270.26 757.41,275.89 757.40,289.50 C757.38,311.61 754.88,325.32 746.97,346.62 L 744.70 352.74 L 750.39 363.87 C753.52,369.99 755.95,374.99 755.79,374.97 C755.63,374.96 750.44,370.50 744.26,365.06 ZM 566.10 210.75 C558.05,170.02 554.04,147.56 554.70,146.90 C556.26,145.34 578.61,140.16 589.00,138.95 C601.57,137.48 621.98,138.20 633.93,140.51 C645.31,142.72 658.00,146.81 658.02,148.29 C658.04,149.93 645.72,214.38 645.27,214.96 C645.08,215.21 643.70,214.62 642.21,213.65 C636.05,209.63 625.09,204.95 619.00,203.73 L 612.50 202.42 L 609.50 189.22 C607.85,181.95 606.28,176.01 606.00,176.01 C605.72,176.00 604.15,181.95 602.50,189.22 L 599.50 202.43 L 592.50 204.04 C584.25,205.93 577.76,208.69 571.60,212.93 L 567.14 216.00 ZM 891.90 728.74 C897.28,725.97 897.62,724.57 902.95,683.50 C905.73,662.05 908.00,643.52 908.00,642.32 C908.00,640.34 907.71,640.22 904.76,641.07 C899.97,642.44 890.22,642.20 881.34,640.49 C877.03,639.66 872.15,639.26 870.50,639.61 C866.53,640.45 862.28,643.54 861.44,646.18 C860.83,648.10 850.08,728.26 850.38,728.67 C850.45,728.76 853.88,728.37 858.00,727.80 C863.88,726.99 867.23,727.09 873.50,728.25 C883.74,730.15 888.89,730.28 891.90,728.74 ZM 183.76 733.48 C186.58,732.64 190.18,730.67 191.75,729.10 C194.53,726.32 194.69,725.56 197.40,703.08 C198.94,690.34 199.93,678.85 199.60,677.54 C199.27,676.24 197.32,674.12 195.25,672.83 C191.60,670.56 190.88,670.50 168.00,670.50 L 144.50 670.50 L 140.36 698.50 C138.08,713.90 135.95,728.41 135.63,730.75 L 135.04 735.00 L 156.84 735.00 C173.45,735.00 179.86,734.64 183.76,733.48 ZM 193.75 641.58 C201.20,638.43 202.30,636.22 204.82,619.30 C207.40,602.01 207.06,600.09 200.84,596.92 C197.49,595.21 194.81,595.00 176.06,595.00 C155.07,595.00 155.04,595.00 154.54,597.25 C153.03,604.08 148.10,642.36 148.63,643.20 C149.02,643.84 156.60,644.05 169.37,643.79 C185.84,643.45 190.27,643.05 193.75,641.58 ZM 613.67 734.57 C616.51,733.25 619.30,731.30 619.87,730.24 C620.77,728.56 626.00,692.49 626.00,687.94 C626.00,686.31 625.64,686.32 620.02,688.07 C612.81,690.31 600.13,692.00 590.47,692.00 C582.56,692.00 574.42,695.19 571.69,699.35 C569.51,702.68 566.50,727.60 567.90,730.69 C570.10,735.51 575.88,736.95 593.00,736.97 C607.29,736.98 608.90,736.79 613.67,734.57 ZM 378.96 653.36 C380.10,646.27 380.05,645.55 378.24,643.11 C374.08,637.53 370.70,636.50 356.50,636.50 C345.29,636.50 342.86,636.80 338.83,638.66 C332.86,641.42 331.25,643.99 329.62,653.37 L 328.29 661.00 L 377.73 661.00 ZM 739.46 524.12 C747.52,527.78 756.58,525.32 761.86,518.04 C767.31,510.51 766.87,501.34 760.72,494.34 C754.96,487.77 746.41,486.17 738.25,490.12 C724.31,496.87 725.05,517.57 739.46,524.12 ZM 533.67 525.33 C534.68,526.35 545.94,526.08 550.98,524.92 C565.17,521.65 570.84,504.86 561.19,494.66 C556.62,489.83 553.95,489.00 543.05,489.00 L 533.00 489.00 L 533.00 506.83 C533.00,516.64 533.30,524.97 533.67,525.33 ZM 477.71 525.38 C478.10,525.77 479.34,525.95 480.46,525.79 C482.36,525.52 482.54,524.63 483.00,513.07 L 483.50 500.64 L 492.80 512.73 C501.75,524.38 504.13,526.65 506.09,525.44 C506.59,525.14 507.00,516.81 507.00,506.94 L 507.00 489.00 L 501.00 489.00 L 501.00 500.50 C501.00,506.83 500.61,512.00 500.14,512.00 C499.67,512.00 495.37,506.83 490.58,500.52 C485.79,494.20 481.49,488.80 481.02,488.51 C480.56,488.23 479.46,488.27 478.59,488.60 C477.22,489.13 477.00,491.66 477.00,506.94 C477.00,516.69 477.32,524.99 477.71,525.38 ZM 791.25 525.35 C795.05,526.92 795.49,525.79 796.00,512.99 L 796.50 500.50 L 805.81 512.49 C815.23,524.64 817.22,526.60 819.01,525.50 C820.17,524.78 820.40,487.99 819.25,488.01 C818.84,488.02 817.49,488.30 816.25,488.63 C814.08,489.21 814.00,489.66 814.00,500.62 C814.00,506.88 813.66,511.99 813.25,511.97 C812.66,511.95 797.17,492.43 794.96,488.93 C794.67,488.46 793.43,488.34 792.21,488.65 C790.03,489.22 790.00,489.50 790.00,507.03 C790.00,520.33 790.32,524.96 791.25,525.35 ZM 588.57 525.12 C588.87,525.60 590.22,526.00 591.57,526.00 C593.49,526.00 594.36,525.14 595.62,522.00 L 597.22 518.00 L 612.84 518.00 L 613.97 521.41 C614.59,523.29 615.79,525.09 616.63,525.41 C618.79,526.24 622.00,526.14 621.99,525.25 C621.98,524.84 618.65,516.40 614.59,506.50 C607.86,490.12 606.99,488.52 604.91,488.77 C603.65,488.92 602.53,489.15 602.42,489.27 C601.25,490.60 588.17,524.46 588.57,525.12 ZM 582.65 391.91 C580.27,388.52 580.62,385.45 583.63,383.07 C586.75,380.62 589.75,380.49 596.41,382.51 C599.11,383.33 603.42,384.00 606.00,384.00 C608.58,384.00 612.89,383.33 615.59,382.51 C622.25,380.49 625.25,380.62 628.37,383.07 C631.38,385.45 631.73,388.52 629.35,391.91 C627.79,394.14 627.36,394.22 621.10,393.43 C617.47,392.98 610.67,392.61 606.00,392.61 C601.33,392.61 594.53,392.98 590.90,393.43 C584.64,394.22 584.21,394.14 582.65,391.91 ZM 755.12 516.12 C750.82,520.42 747.13,521.07 741.33,518.54 C733.86,515.29 732.20,502.91 738.46,497.04 C741.38,494.30 749.49,493.12 752.91,494.95 C756.49,496.87 758.99,501.98 759.00,507.37 C759.00,511.69 758.57,512.67 755.12,516.12 ZM 430.02 524.25 C431.93,525.21 434.85,526.00 436.50,526.00 C440.83,526.00 446.11,523.02 448.73,519.10 C450.82,515.97 451.00,514.59 451.00,501.75 C451.00,489.43 450.81,487.86 449.42,488.39 C448.55,488.73 447.20,489.00 446.42,489.00 C445.27,489.00 445.00,491.39 445.00,501.58 C445.00,514.14 445.00,514.16 442.08,517.08 C440.31,518.84 438.10,520.00 436.50,520.00 C434.90,520.00 432.69,518.84 430.92,517.08 L 428.00 514.15 L 428.00 501.08 C428.00,493.88 427.66,488.01 427.25,488.01 C426.84,488.02 425.49,488.30 424.25,488.63 C422.06,489.22 422.00,489.59 422.00,502.47 C422.00,514.56 422.20,516.00 424.27,519.10 C425.52,520.97 428.11,523.29 430.02,524.25 ZM 553.02 518.14 C549.65,519.94 541.04,520.71 539.67,519.33 C539.30,518.97 539.00,513.12 539.00,506.33 L 539.00 494.00 L 544.85 494.00 C552.54,494.00 556.94,496.79 558.88,502.90 C560.13,506.82 560.08,507.69 558.38,511.76 C557.08,514.89 555.43,516.85 553.02,518.14 ZM 652.46 524.12 C659.21,527.19 668.24,526.03 671.89,521.64 C673.08,520.19 673.04,519.70 671.55,518.05 C669.84,516.17 669.77,516.17 666.66,518.07 C664.92,519.13 662.22,519.99 660.65,520.00 C656.43,520.00 651.11,517.11 649.46,513.91 C647.78,510.68 647.55,504.31 648.98,500.57 C651.11,494.95 661.71,492.01 666.84,495.60 C668.95,497.08 669.27,497.06 671.06,495.44 C673.78,492.98 673.53,492.31 669.04,490.02 C663.65,487.27 656.52,487.37 650.91,490.29 C647.53,492.04 645.86,493.83 643.75,497.97 C642.24,500.93 641.00,504.52 641.01,505.93 C641.02,513.71 645.62,521.01 652.46,524.12 ZM 374.71 525.38 C375.10,525.77 376.34,525.95 377.46,525.79 C379.28,525.53 379.53,524.68 379.79,517.75 L 380.08 510.00 L 397.00 510.00 L 397.00 504.00 L 380.00 504.00 L 380.00 494.00 L 398.00 494.00 L 398.00 490.88 C398.00,488.14 397.73,487.84 395.75,488.37 C394.51,488.70 389.11,488.98 383.75,488.99 L 374.00 489.00 L 374.00 506.83 C374.00,516.64 374.32,524.99 374.71,525.38 ZM 594.42 369.85 C585.74,365.30 584.29,364.83 581.81,365.77 C579.22,366.74 579.00,366.64 579.00,364.44 C579.00,362.99 579.99,361.40 581.52,360.40 C583.91,358.83 584.40,358.88 591.27,361.45 C595.25,362.94 600.19,364.67 602.25,365.29 C606.38,366.53 608.18,366.15 620.73,361.45 C627.60,358.88 628.09,358.83 630.48,360.40 C632.01,361.40 633.00,362.99 633.00,364.44 C633.00,366.64 632.78,366.74 630.19,365.77 C627.71,364.83 626.26,365.30 617.58,369.85 C612.19,372.68 606.98,375.00 606.00,375.00 C605.02,375.00 599.81,372.68 594.42,369.85 ZM 599.50 283.65 C597.30,282.93 593.95,281.53 592.06,280.54 C588.16,278.51 578.83,269.98 575.69,265.57 L 573.60 262.63 L 578.05 265.68 C587.30,272.01 599.58,277.00 605.91,276.99 C613.22,276.98 626.37,271.66 634.60,265.37 C640.78,260.66 638.81,264.08 630.68,272.21 C620.40,282.47 608.84,286.72 599.50,283.65 ZM 698.25 525.36 C698.94,525.64 700.40,525.79 701.50,525.69 C703.41,525.51 703.51,524.67 703.77,507.36 L 704.04 489.23 L 701.48 488.58 C700.06,488.23 698.48,488.20 697.95,488.53 C696.43,489.47 696.71,524.71 698.25,525.36 ZM 610.00 512.35 C610.00,512.71 607.75,513.00 605.00,513.00 C602.25,513.00 600.00,512.57 600.00,512.04 C600.00,510.14 604.16,500.00 604.94,500.00 C605.63,500.00 610.00,510.65 610.00,512.35 Z" fill="rgba(146,22,104,1)"/>
<path d="M 374.71 525.38 C374.32,524.99 374.00,516.64 374.00,506.83 L 374.00 489.00 L 383.75 488.99 C389.11,488.98 394.51,488.70 395.75,488.37 C397.73,487.84 398.00,488.14 398.00,490.88 L 398.00 494.00 L 389.00 494.00 L 380.00 494.00 L 380.00 499.00 L 380.00 504.00 L 388.50 504.00 L 397.00 504.00 L 397.00 507.00 L 397.00 510.00 L 388.54 510.00 L 380.08 510.00 L 379.79 517.75 C379.53,524.68 379.28,525.53 377.46,525.79 C376.34,525.95 375.10,525.77 374.71,525.38 ZM 430.02 524.25 C428.11,523.29 425.52,520.97 424.27,519.10 C422.20,516.00 422.00,514.56 422.00,502.47 C422.00,489.59 422.06,489.22 424.25,488.63 C425.49,488.30 426.84,488.02 427.25,488.01 C427.66,488.01 428.00,493.88 428.00,501.08 L 428.00 514.15 L 430.92 517.08 C432.69,518.84 434.90,520.00 436.50,520.00 C438.10,520.00 440.31,518.84 442.08,517.08 C445.00,514.16 445.00,514.14 445.00,501.58 C445.00,491.39 445.27,489.00 446.42,489.00 C447.20,489.00 448.55,488.73 449.42,488.39 C450.81,487.86 451.00,489.43 451.00,501.75 C451.00,514.59 450.82,515.97 448.73,519.10 C446.11,523.02 440.83,526.00 436.50,526.00 C434.85,526.00 431.93,525.21 430.02,524.25 ZM 477.71 525.38 C477.32,524.99 477.00,516.69 477.00,506.94 C477.00,491.66 477.22,489.13 478.59,488.60 C479.46,488.27 480.56,488.23 481.02,488.51 C481.49,488.80 485.79,494.20 490.58,500.52 C495.37,506.83 499.67,512.00 500.14,512.00 C500.61,512.00 501.00,506.83 501.00,500.50 L 501.00 489.00 L 504.00 489.00 L 507.00 489.00 L 507.00 506.94 C507.00,516.81 506.59,525.14 506.09,525.44 C504.13,526.65 501.75,524.38 492.80,512.73 L 483.50 500.64 L 483.00 513.07 C482.54,524.63 482.36,525.52 480.46,525.79 C479.34,525.95 478.10,525.77 477.71,525.38 ZM 533.67 525.33 C533.30,524.97 533.00,516.64 533.00,506.83 L 533.00 489.00 L 543.05 489.00 C553.95,489.00 556.62,489.83 561.19,494.66 C570.84,504.86 565.17,521.65 550.98,524.92 C545.94,526.08 534.68,526.35 533.67,525.33 ZM 553.02 518.14 C555.43,516.85 557.08,514.89 558.38,511.76 C560.08,507.69 560.13,506.82 558.88,502.90 C556.94,496.79 552.54,494.00 544.85,494.00 L 539.00 494.00 L 539.00 506.33 C539.00,513.12 539.30,518.97 539.67,519.33 C541.04,520.71 549.65,519.94 553.02,518.14 ZM 588.57 525.12 C588.17,524.46 601.25,490.60 602.42,489.27 C602.53,489.15 603.65,488.92 604.91,488.77 C606.99,488.52 607.86,490.12 614.59,506.50 C618.65,516.40 621.98,524.84 621.99,525.25 C622.00,526.14 618.79,526.24 616.63,525.41 C615.79,525.09 614.59,523.29 613.97,521.41 L 612.84 518.00 L 605.03 518.00 L 597.22 518.00 L 595.62 522.00 C594.36,525.14 593.49,526.00 591.57,526.00 C590.22,526.00 588.87,525.60 588.57,525.12 ZM 610.00 512.35 C610.00,510.65 605.63,500.00 604.94,500.00 C604.16,500.00 600.00,510.14 600.00,512.04 C600.00,512.57 602.25,513.00 605.00,513.00 C607.75,513.00 610.00,512.71 610.00,512.35 ZM 652.46 524.12 C645.62,521.01 641.02,513.71 641.01,505.93 C641.00,504.52 642.24,500.93 643.75,497.97 C645.86,493.83 647.53,492.04 650.91,490.29 C656.52,487.37 663.65,487.27 669.04,490.02 C673.53,492.31 673.78,492.98 671.06,495.44 C669.27,497.06 668.95,497.08 666.84,495.60 C661.71,492.01 651.11,494.95 648.98,500.57 C647.55,504.31 647.78,510.68 649.46,513.91 C651.11,517.11 656.43,520.00 660.65,520.00 C662.22,519.99 664.92,519.13 666.66,518.07 C669.77,516.17 669.84,516.17 671.55,518.05 C673.04,519.70 673.08,520.19 671.89,521.64 C668.24,526.03 659.21,527.19 652.46,524.12 ZM 698.25 525.36 C696.71,524.71 696.43,489.47 697.95,488.53 C698.48,488.20 700.06,488.23 701.48,488.58 L 704.04 489.23 L 703.77 507.36 C703.51,524.67 703.41,525.51 701.50,525.69 C700.40,525.79 698.94,525.64 698.25,525.36 ZM 739.46 524.12 C725.05,517.57 724.31,496.87 738.25,490.12 C746.41,486.17 754.96,487.77 760.72,494.34 C766.87,501.34 767.31,510.51 761.86,518.04 C756.58,525.32 747.52,527.78 739.46,524.12 ZM 755.12 516.12 C758.57,512.67 759.00,511.69 759.00,507.37 C758.99,501.98 756.49,496.87 752.91,494.95 C749.49,493.12 741.38,494.30 738.46,497.04 C732.20,502.91 733.86,515.29 741.33,518.54 C747.13,521.07 750.82,520.42 755.12,516.12 ZM 791.25 525.35 C790.32,524.96 790.00,520.33 790.00,507.03 C790.00,489.50 790.03,489.22 792.21,488.65 C793.43,488.34 794.67,488.46 794.96,488.93 C797.17,492.43 812.66,511.95 813.25,511.97 C813.66,511.99 814.00,506.88 814.00,500.62 C814.00,489.66 814.08,489.21 816.25,488.63 C817.49,488.30 818.84,488.02 819.25,488.01 C820.40,487.99 820.17,524.78 819.01,525.50 C817.22,526.60 815.23,524.64 805.81,512.49 L 796.50 500.50 L 796.00 512.99 C795.49,525.79 795.05,526.92 791.25,525.35 ZM 743.14 483.74 C741.44,482.04 741.78,480.85 745.01,477.07 C747.88,473.71 747.99,473.68 749.97,475.48 C751.09,476.48 752.00,477.61 752.00,477.99 C752.00,478.36 750.26,480.06 748.14,481.77 C745.25,484.09 743.99,484.59 743.14,483.74 Z" fill="rgba(254,253,253,1)"/>
</g>
</svg>