<svg xmlns="http://www.w3.org/2000/svg" width="1212" height="865" viewBox="0 0 1212 865">
<g>
<path d="M 549.39 717.02 C546.44,715.83 543.00,711.19 543.00,708.40 C543.00,701.70 552.12,641.54 553.24,640.83 C553.93,640.39 556.45,640.02 558.83,640.02 C562.29,640.00 563.74,640.59 566.08,642.92 C569.94,646.79 569.91,648.17 565.00,683.38 C562.80,699.17 561.00,712.76 561.00,713.59 C561.00,714.42 559.44,715.75 557.53,716.55 C553.64,718.18 552.42,718.25 549.39,717.02 ZM 578.97 713.75 C572.27,710.36 571.48,708.24 572.98,697.62 C575.09,682.79 580.33,679.03 600.00,678.25 C612.65,677.76 616.00,676.56 616.00,672.53 C616.00,669.39 612.52,667.00 607.93,667.00 C603.30,667.00 598.32,668.72 597.61,670.57 C597.19,671.66 594.94,672.00 588.03,672.00 L 579.00 672.00 L 579.00 669.40 C579.00,665.42 584.62,660.46 591.33,658.51 C599.92,656.01 622.94,656.68 628.50,659.59 C635.83,663.42 635.86,663.67 632.17,690.64 C630.23,704.80 628.42,714.75 627.71,715.20 C625.90,716.35 611.56,716.16 610.36,714.96 C609.65,714.25 608.48,714.25 606.60,714.96 C605.10,715.53 599.27,716.00 593.65,716.00 C585.03,716.00 582.72,715.65 578.97,713.75 ZM 609.56 704.58 C610.98,703.55 611.80,701.06 612.62,695.33 C613.24,691.03 613.66,687.40 613.56,687.27 C612.92,686.48 595.20,689.58 593.86,690.72 C592.91,691.53 591.92,694.49 591.51,697.75 C590.92,702.52 591.08,703.59 592.60,704.69 C595.05,706.49 607.05,706.41 609.56,704.58 ZM 688.21 713.88 C680.77,710.19 680.56,708.96 683.52,686.76 C686.41,665.12 686.87,664.00 694.59,660.03 C699.26,657.62 700.31,657.50 716.00,657.50 C734.02,657.50 736.86,658.24 741.22,664.08 C743.12,666.64 743.12,666.83 740.25,686.81 C737.01,709.34 736.85,709.71 728.50,713.63 C723.93,715.78 722.17,715.98 708.00,715.99 C694.20,716.00 692.03,715.77 688.21,713.88 ZM 716.83 701.70 C717.41,701.01 718.59,694.83 719.47,687.97 C720.35,681.11 721.32,674.10 721.62,672.38 L 722.17 669.26 L 716.34 669.05 C706.79,668.70 705.84,668.76 704.83,669.77 C704.01,670.59 700.01,696.55 700.02,701.00 C700.02,703.00 715.23,703.64 716.83,701.70 ZM 412.50 713.64 C408.33,711.78 406.59,709.37 406.70,705.59 C406.75,703.81 408.72,688.52 411.07,671.61 L 415.34 640.87 L 438.42 641.19 C459.37,641.47 461.81,641.68 464.90,643.50 C466.76,644.60 469.20,646.72 470.31,648.20 C472.16,650.68 472.23,651.52 471.27,658.40 C470.09,666.77 467.67,671.09 462.99,673.17 C459.27,674.81 459.26,675.28 462.89,676.65 C464.49,677.25 466.59,678.98 467.58,680.48 C469.22,682.99 469.27,684.03 468.11,693.36 C467.42,698.93 466.09,704.83 465.15,706.46 C464.21,708.08 461.22,710.56 458.50,711.96 C453.78,714.39 452.72,714.51 434.53,714.74 C420.36,714.92 414.73,714.64 412.50,713.64 ZM 445.35 703.89 C448.06,702.65 448.55,701.00 449.57,689.76 C450.20,682.78 450.10,682.12 448.19,681.10 C445.90,679.88 429.02,679.57 428.97,680.75 C428.95,681.16 428.11,686.79 427.11,693.25 L 425.29 705.00 L 434.10 705.00 C438.94,705.00 444.01,704.50 445.35,703.89 ZM 448.40 668.86 C450.88,667.73 451.25,666.80 452.52,658.36 C453.40,652.49 451.04,651.00 440.82,651.00 L 433.09 651.00 L 432.57 654.25 C432.28,656.04 431.66,660.31 431.18,663.75 L 430.32 670.00 L 438.11 670.00 C442.40,670.00 447.03,669.49 448.40,668.86 ZM 483.97 712.75 C476.32,708.88 476.18,708.09 479.18,685.87 L 481.79 666.58 L 485.33 663.34 C490.92,658.21 497.70,656.75 513.83,657.18 C525.40,657.49 528.12,657.88 531.53,659.69 C537.77,662.99 538.35,664.83 536.81,676.54 L 535.50 686.50 L 516.85 686.77 C495.61,687.08 497.81,685.96 496.47,697.16 C495.86,702.21 496.01,702.94 497.83,703.91 C503.03,706.69 515.00,704.33 515.00,700.52 C515.00,698.33 526.12,695.30 532.14,695.85 C534.76,696.09 535.13,698.82 533.09,702.81 C530.63,707.60 527.56,710.39 522.00,712.92 C518.14,714.67 515.43,714.96 502.96,714.98 C489.85,715.00 487.99,714.78 483.97,712.75 ZM 518.81 673.35 C519.04,670.98 518.54,669.79 516.83,668.60 C514.22,666.76 508.41,666.51 504.34,668.06 C500.94,669.36 500.04,670.65 500.02,674.29 L 500.00 677.08 L 509.25 676.79 L 518.50 676.50 L 518.81 673.35 ZM 652.50 713.67 C642.52,709.77 642.19,708.52 645.42,687.14 C646.84,677.76 648.00,669.61 648.00,669.04 C648.00,668.47 646.42,668.00 644.48,668.00 C641.26,668.00 641.01,667.79 641.48,665.50 C641.77,664.12 642.23,661.88 642.52,660.50 C642.95,658.43 643.62,658.00 646.39,658.00 C649.53,658.00 649.77,657.76 650.26,654.08 C650.92,649.21 653.40,645.76 658.23,643.02 C661.58,641.11 669.21,639.87 670.37,641.04 C670.77,641.45 670.47,643.76 668.52,655.25 C668.08,657.83 668.28,658.00 671.66,658.00 L 675.26 658.00 L 674.64 661.75 C674.30,663.81 674.02,666.06 674.01,666.75 C674.00,667.51 672.63,668.00 670.52,668.00 C666.40,668.00 666.80,666.82 664.01,687.50 C661.68,704.70 661.78,705.00 669.69,705.00 C673.73,705.00 674.00,705.17 673.99,707.75 C673.95,714.75 673.60,715.01 664.13,714.92 C659.39,714.88 654.15,714.32 652.50,713.67 ZM 747.00 714.65 C747.00,712.50 755.14,658.52 755.52,658.14 C755.98,657.69 760.40,657.66 774.00,658.04 C775.92,658.09 781.38,657.83 786.13,657.45 C796.19,656.65 805.00,658.74 805.00,661.92 C805.00,665.70 790.40,671.08 788.50,668.00 C787.55,666.46 778.25,666.82 774.95,668.53 C773.33,669.36 772.00,670.67 772.00,671.42 C772.00,673.26 767.09,709.91 766.46,712.75 C765.99,714.89 765.50,715.00 756.48,715.00 C751.27,715.00 747.00,714.84 747.00,714.65 ZM 132.50 610.10 C130.37,609.64 129.52,608.87 129.56,607.47 C129.59,606.39 133.64,576.59 138.56,541.25 L 147.50 477.01 L 186.00 477.01 C227.60,477.02 230.80,477.35 239.50,482.45 C245.10,485.73 249.00,491.29 248.99,495.98 C248.98,504.21 245.96,519.40 243.50,523.59 C240.42,528.85 234.88,533.53 229.54,535.37 C226.16,536.54 225.83,536.88 227.50,537.44 C236.73,540.52 242.52,546.16 243.61,553.11 C243.91,554.97 242.54,568.11 240.57,582.31 C238.61,596.51 237.00,608.32 237.00,608.56 C237.00,608.80 229.31,609.00 219.92,609.00 L 202.84 609.00 L 203.40 606.25 C204.84,599.14 210.07,555.34 209.80,552.60 C209.28,547.20 205.18,546.00 187.25,546.00 C178.86,546.00 172.00,546.15 172.00,546.34 C172.00,550.39 166.58,583.23 165.17,587.75 C159.65,605.37 147.82,613.47 132.50,610.10 ZM 207.04 525.75 L 211.50 523.50 L 213.27 513.00 C214.25,507.23 214.80,501.50 214.51,500.27 C213.49,496.04 209.36,495.00 193.55,495.00 C185.55,495.00 178.99,495.34 178.98,495.75 C178.96,496.16 178.07,502.35 177.00,509.50 C175.93,516.65 175.04,523.74 175.02,525.25 L 175.00 528.00 L 188.79 528.00 C201.10,528.00 203.05,527.76 207.04,525.75 ZM 274.48 609.58 C271.17,608.83 266.83,607.54 264.84,606.71 C259.63,604.53 253.19,598.34 252.13,594.50 C251.44,592.00 252.81,579.54 257.71,543.84 C265.14,489.63 264.85,490.64 275.06,484.04 C285.34,477.39 290.74,476.50 320.50,476.51 C345.46,476.51 346.73,476.61 352.34,478.86 C359.38,481.69 366.43,488.17 367.75,493.02 C369.23,498.45 355.88,590.84 352.92,595.62 C349.67,600.89 341.27,605.93 330.50,609.09 C324.32,610.90 281.95,611.27 274.48,609.58 ZM 317.45 590.58 C319.31,589.81 321.28,588.34 321.81,587.33 C322.34,586.33 325.39,566.25 328.59,542.73 L 334.40 499.96 L 332.18 497.73 C330.18,495.73 328.76,495.47 318.56,495.17 C308.85,494.88 306.50,495.13 302.62,496.84 C299.56,498.20 297.90,499.61 297.55,501.18 C296.62,505.33 286.00,582.64 286.00,585.29 C286.00,586.87 287.01,588.65 288.63,589.93 C290.95,591.75 292.65,592.00 302.67,592.00 C310.23,592.00 315.20,591.52 317.45,590.58 ZM 462.27 610.06 C459.94,609.68 457.83,609.16 457.57,608.90 C457.18,608.51 472.76,570.39 504.77,493.50 L 511.85 476.50 L 527.43 476.22 C541.51,475.98 543.49,476.16 548.00,478.09 C553.98,480.67 559.50,486.47 560.93,491.69 C561.50,493.78 565.15,519.80 569.03,549.50 C572.91,579.20 576.33,604.74 576.62,606.25 L 577.16 609.00 L 560.74 609.00 L 544.32 609.00 L 542.59 596.80 C541.64,590.08 540.65,584.23 540.37,583.80 C540.10,583.36 531.02,583.01 520.19,583.03 L 500.50 583.06 L 496.01 591.19 C486.83,607.83 478.20,612.66 462.27,610.06 ZM 537.72 562.25 C537.43,560.74 535.72,548.81 533.93,535.75 C532.14,522.69 530.41,512.01 530.09,512.02 C529.66,512.04 511.71,554.70 508.17,564.11 C507.98,564.60 514.63,565.00 523.04,565.00 L 538.25 565.00 L 537.72 562.25 ZM 820.69 610.30 C818.60,610.07 816.66,609.27 816.38,608.54 C816.10,607.81 819.95,577.96 824.93,542.20 C829.92,506.44 834.00,476.91 834.00,476.59 C834.00,476.27 841.70,476.00 851.11,476.00 L 868.22 476.00 L 867.65 479.25 C867.34,481.04 863.66,506.58 859.47,536.00 C851.25,593.86 850.45,597.27 843.66,603.84 C838.34,608.99 829.95,611.35 820.69,610.30 ZM 976.27 610.06 C973.94,609.68 971.85,609.17 971.62,608.94 C971.39,608.70 972.77,604.67 974.69,600.00 C983.07,579.64 1024.19,480.68 1025.20,478.45 C1026.32,476.00 1026.33,476.00 1041.91,476.01 C1056.14,476.02 1057.94,476.22 1062.50,478.35 C1068.59,481.19 1074.69,487.71 1075.45,492.19 C1075.76,494.01 1079.16,519.35 1083.01,548.50 C1086.85,577.65 1090.26,603.19 1090.59,605.25 L 1091.18 609.00 L 1074.75 609.00 L 1058.32 609.00 L 1056.59 596.80 C1055.64,590.08 1054.65,584.23 1054.37,583.80 C1054.10,583.36 1045.02,583.00 1034.19,583.01 L 1014.50 583.02 L 1010.50 590.69 C1001.90,607.19 992.22,612.66 976.27,610.06 ZM 1051.93 563.25 C1051.89,562.29 1050.19,550.03 1048.15,536.00 L 1044.45 510.50 L 1033.47 536.91 C1027.44,551.43 1022.35,563.69 1022.17,564.16 C1021.98,564.62 1028.62,565.00 1036.92,565.00 C1050.64,565.00 1051.99,564.84 1051.93,563.25 ZM 10.00 607.36 C10.00,604.24 24.12,505.49 25.20,501.00 C27.76,490.45 34.31,482.64 43.83,478.79 C49.31,476.58 50.51,476.50 80.00,476.50 C109.04,476.50 110.78,476.61 116.35,478.71 C124.19,481.67 128.85,485.40 131.12,490.53 C132.99,494.76 132.98,494.85 129.95,516.64 C127.38,535.08 126.52,539.08 124.44,542.24 C121.39,546.88 116.08,550.46 107.28,553.80 C100.85,556.25 99.23,556.41 75.50,556.94 L 50.51 557.50 L 47.32 582.00 C45.58,595.47 44.11,607.06 44.07,607.75 C44.02,608.70 39.90,609.00 27.00,609.00 C11.90,609.00 10.00,608.82 10.00,607.36 ZM 88.53 537.55 C90.44,536.76 92.45,535.07 93.01,533.80 C94.68,529.98 98.87,500.64 97.97,498.96 C96.01,495.26 92.18,494.50 75.63,494.50 L 59.56 494.50 L 56.86 513.50 C55.37,523.95 53.93,533.96 53.64,535.75 L 53.13 539.00 L 69.09 539.00 C80.77,539.00 86.00,538.61 88.53,537.55 ZM 400.00 608.11 C400.00,606.71 414.97,499.82 415.60,496.75 L 416.16 494.00 L 398.10 494.00 L 380.04 494.00 L 379.36 491.31 C378.28,487.00 381.64,481.93 387.50,479.00 L 392.50 476.50 L 439.88 476.21 L 487.27 475.93 L 486.68 479.71 C486.36,481.80 485.79,485.86 485.42,488.75 L 484.74 494.00 L 467.39 494.00 C450.20,494.00 450.03,494.02 449.56,496.25 C449.29,497.49 445.61,523.36 441.37,553.75 L 433.67 609.00 L 416.84 609.00 C407.58,609.00 400.00,608.60 400.00,608.11 ZM 607.23 607.45 C594.19,603.94 587.00,596.99 587.00,587.89 C587.00,581.97 598.79,498.06 600.07,494.90 C601.62,491.05 608.79,484.48 614.61,481.58 C624.52,476.64 631.14,475.81 657.48,476.21 C679.87,476.55 681.90,476.73 687.42,478.92 C694.55,481.75 701.63,487.99 702.89,492.56 C704.00,496.58 702.85,502.41 700.41,505.10 C697.32,508.51 688.71,510.33 679.25,509.57 C674.64,509.19 670.33,508.68 669.68,508.43 C668.93,508.14 668.62,506.35 668.83,503.63 C669.13,499.88 668.81,498.99 666.45,497.14 C664.03,495.24 662.47,495.00 652.27,495.00 C639.35,495.00 634.86,496.36 633.16,500.82 C632.59,502.29 629.55,521.81 626.40,544.20 C620.09,589.02 620.08,586.88 626.72,589.65 C630.87,591.39 645.33,591.33 650.32,589.55 C656.21,587.45 657.71,585.55 658.45,579.19 C659.63,569.17 657.99,570.00 676.57,570.00 C686.00,570.00 693.00,570.40 693.00,570.93 C693.00,573.70 690.76,587.96 689.90,590.68 C687.78,597.36 676.08,605.03 664.13,607.56 C654.91,609.51 614.61,609.44 607.23,607.45 ZM 735.00 607.75 C735.00,606.41 749.63,501.35 750.46,496.75 L 750.95 494.00 L 732.99 494.00 L 715.04 494.00 L 714.36 491.31 C713.36,487.30 716.64,482.01 722.00,479.02 L 726.50 476.50 L 774.25 476.21 C819.56,475.94 822.00,476.02 821.94,477.71 C821.90,478.70 821.33,482.65 820.67,486.50 L 819.46 493.50 L 802.24 493.77 C785.36,494.04 785.02,494.09 784.53,496.27 C783.84,499.33 769.00,605.63 769.00,607.50 C769.00,608.77 766.45,609.00 752.00,609.00 C739.07,609.00 735.00,608.70 735.00,607.75 ZM 885.50 607.61 C874.23,604.87 865.71,598.30 864.41,591.35 C863.65,587.30 875.48,501.00 877.57,495.31 C880.44,487.54 890.89,480.39 903.72,477.41 C909.12,476.16 915.27,475.92 934.48,476.21 C956.33,476.53 958.99,476.76 963.88,478.73 C974.99,483.22 981.01,489.54 981.00,496.71 C980.99,500.53 977.72,505.57 974.02,507.49 C970.09,509.52 960.19,510.35 952.50,509.29 C946.64,508.48 946.50,508.40 946.67,505.48 C947.19,496.61 944.45,495.00 928.80,495.00 C919.26,495.01 916.99,495.32 914.22,497.01 C912.41,498.11 910.72,499.57 910.47,500.26 C910.21,500.94 907.33,520.17 904.06,543.00 C897.37,589.68 897.33,587.93 905.25,590.07 C907.61,590.71 913.50,591.04 918.50,590.82 C932.40,590.20 934.91,588.03 936.52,575.25 L 937.19 570.00 L 953.71 570.00 L 970.23 570.00 L 969.54 577.75 C968.51,589.32 967.30,592.45 961.85,597.55 C956.54,602.51 950.69,605.39 941.51,607.55 C933.78,609.38 892.92,609.42 885.50,607.61 ZM 1104.00 607.04 C1104.00,601.89 1119.06,499.98 1120.35,496.36 C1125.00,483.37 1132.21,476.29 1142.54,474.57 C1145.95,474.00 1154.38,475.04 1155.49,476.16 C1155.68,476.35 1152.28,501.92 1147.94,533.00 C1143.61,564.08 1140.05,589.83 1140.03,590.24 C1140.01,590.64 1153.84,591.09 1170.75,591.24 L 1201.50 591.50 L 1201.81 596.30 C1202.08,600.54 1201.77,601.42 1199.09,603.92 C1194.01,608.66 1190.46,609.00 1145.56,609.00 C1104.95,609.00 1104.00,608.96 1104.00,607.04 ZM 589.00 431.49 C577.79,429.96 570.19,428.07 558.26,423.86 C549.56,420.79 535.07,413.86 529.69,410.20 L 526.88 408.28 L 532.69 407.14 C542.59,405.18 545.87,404.00 546.38,402.22 C546.65,401.27 544.74,393.10 542.12,384.05 L 537.38 367.60 L 529.23 364.42 C521.65,361.45 510.12,354.26 507.07,350.59 C506.35,349.71 508.33,350.55 511.49,352.45 C517.76,356.23 525.53,358.38 531.00,357.84 L 534.50 357.50 L 535.17 349.00 C535.54,344.33 536.39,334.30 537.06,326.72 L 538.29 312.93 L 530.28 304.72 C520.40,294.57 517.42,289.28 518.97,284.58 C520.49,280.00 524.12,276.92 529.72,275.47 C532.35,274.79 534.63,274.36 534.79,274.50 C534.96,274.64 533.72,276.13 532.04,277.80 C529.73,280.12 529.00,281.75 529.00,284.62 C529.00,287.91 529.75,289.13 534.75,293.98 C543.51,302.48 563.12,311.17 588.00,317.57 C607.75,322.65 620.83,321.63 647.17,312.98 C674.42,304.04 690.98,293.18 691.00,284.25 C691.00,283.02 689.37,280.21 687.39,278.00 L 683.77 274.00 L 687.14 274.63 C692.19,275.57 696.82,277.96 699.03,280.76 C703.41,286.34 700.42,293.74 689.24,304.97 L 681.75 312.50 L 682.51 322.50 C682.92,328.00 683.54,338.12 683.88,345.00 L 684.50 357.50 L 691.55 357.45 C697.86,357.40 699.40,356.96 706.30,353.24 C710.53,350.95 714.00,349.26 714.00,349.48 C714.00,349.70 711.41,351.87 708.25,354.30 C701.90,359.19 692.69,364.12 686.42,365.99 L 682.33 367.22 L 677.54 384.29 C674.15,396.32 673.02,401.81 673.70,402.89 C674.70,404.47 676.37,405.01 686.46,407.03 C693.56,408.46 693.54,408.48 679.03,415.93 C650.89,430.39 619.96,435.73 589.00,431.49 ZM 629.47 415.01 C637.57,413.18 642.17,407.01 643.99,395.49 C645.81,384.02 651.80,373.27 664.18,359.25 C670.13,352.51 676.00,341.02 676.00,336.11 C676.00,330.46 671.82,327.60 666.54,329.62 C665.64,329.97 663.79,332.45 662.43,335.13 C657.63,344.61 646.33,349.50 635.05,346.99 C627.31,345.28 622.44,342.60 615.62,336.29 L 609.73 330.86 L 606.12 334.31 C598.60,341.48 593.29,344.71 586.14,346.46 C578.21,348.41 573.09,347.97 566.20,344.74 C562.01,342.79 557.00,337.53 557.00,335.11 C557.00,334.45 555.90,332.80 554.55,331.45 C549.64,326.55 543.00,329.38 543.00,336.37 C543.00,341.09 549.43,352.96 556.08,360.50 C563.14,368.50 570.17,378.86 572.43,384.59 C573.28,386.74 574.65,392.07 575.47,396.43 C577.16,405.36 580.38,411.11 585.05,413.52 C591.15,416.68 618.07,417.58 629.47,415.01 ZM 460.00 365.84 C460.00,365.57 462.50,360.55 465.55,354.70 L 471.11 344.07 L 467.53 334.52 C460.09,314.64 457.50,298.12 458.30,275.61 C459.40,244.99 467.33,220.61 484.36,195.50 C490.35,186.68 511.26,164.00 513.42,164.00 C514.02,164.00 518.51,175.81 523.41,190.25 C545.21,254.58 555.21,272.24 578.45,287.45 C587.29,293.24 585.88,293.25 575.13,287.47 C560.07,279.39 540.95,262.54 533.49,250.79 C531.85,248.19 530.28,246.06 530.00,246.04 C529.72,246.02 528.24,247.99 526.71,250.43 L 523.91 254.85 L 516.21 247.05 C508.41,239.16 501.44,234.77 495.00,233.68 C490.58,232.93 483.03,234.35 481.90,236.14 C479.11,240.55 472.17,262.87 470.55,272.60 L 469.87 276.71 L 476.99 279.00 C485.80,281.83 492.90,287.85 496.92,295.90 C501.97,306.02 502.03,305.65 492.89,318.97 L 484.73 330.87 L 488.07 335.09 L 491.41 339.31 L 486.96 343.28 C484.51,345.46 478.45,350.63 473.50,354.77 C468.55,358.91 463.49,363.21 462.25,364.32 C461.01,365.44 460.00,366.12 460.00,365.84 ZM 743.82 353.13 C735.75,346.18 729.13,340.05 729.10,339.50 C729.08,338.95 730.37,336.77 731.97,334.65 L 734.89 330.79 L 726.94 319.24 C722.58,312.88 719.00,306.74 719.01,305.59 C719.02,302.63 723.46,293.48 727.10,288.87 C730.75,284.26 736.33,280.86 744.25,278.41 C747.41,277.43 750.00,276.38 749.99,276.07 C749.94,273.01 744.53,252.72 742.05,246.29 C737.43,234.29 736.70,233.62 728.39,233.59 C719.33,233.56 714.97,235.88 704.21,246.48 L 695.87 254.68 L 692.76 250.15 C689.95,246.07 689.54,245.80 688.57,247.46 C686.05,251.78 675.54,264.23 670.73,268.59 C659.42,278.83 639.25,292.00 634.88,292.00 C634.14,292.00 636.45,290.31 639.99,288.25 C643.54,286.19 650.28,280.66 654.97,275.97 C669.61,261.32 677.02,246.21 694.37,195.60 C700.19,178.61 705.17,164.50 705.42,164.25 C706.29,163.38 716.26,172.48 723.24,180.50 C736.83,196.11 747.44,214.33 753.51,232.42 C764.47,265.11 763.81,302.66 751.70,334.89 L 748.19 344.24 L 753.71 354.67 C756.74,360.41 759.06,365.25 758.86,365.43 C758.66,365.61 751.90,360.07 743.82,353.13 ZM 600.76 274.55 C595.63,272.58 589.28,268.02 584.47,262.84 C576.24,253.99 576.14,253.51 583.50,258.23 C590.45,262.68 600.67,267.20 606.58,268.44 C608.27,268.79 611.83,268.60 614.48,268.01 C620.89,266.57 633.59,260.64 638.25,256.91 C644.18,252.16 642.63,255.12 635.25,262.63 C626.43,271.61 619.80,275.18 611.10,275.64 C606.97,275.85 603.10,275.44 600.76,274.55 ZM 570.66 206.18 C569.79,204.57 557.66,139.01 558.14,138.52 C559.31,137.35 575.28,133.09 584.60,131.46 C597.68,129.18 621.17,129.14 634.00,131.39 C644.46,133.22 662.00,137.92 662.00,138.89 C662.00,140.16 649.10,206.23 648.79,206.54 C648.62,206.72 646.02,205.31 643.02,203.42 C636.32,199.20 628.48,196.19 621.65,195.23 L 616.50 194.50 L 613.05 180.50 L 609.61 166.50 L 606.49 179.55 C604.77,186.72 603.04,193.13 602.63,193.80 C602.22,194.46 600.65,195.00 599.14,195.00 C594.90,195.00 585.07,198.65 577.70,202.96 C574.03,205.10 570.86,206.55 570.66,206.18 ZM 587.12 384.12 C583.29,380.29 584.86,374.60 590.27,372.68 C591.24,372.33 595.86,372.96 600.54,374.07 C609.33,376.15 611.94,376.07 621.61,373.37 C627.55,371.71 631.02,372.57 633.47,376.32 C635.23,379.00 634.45,382.55 631.57,384.94 C630.19,386.08 628.41,386.03 620.05,384.56 C611.79,383.11 609.03,383.01 603.33,383.96 C588.84,386.38 589.38,386.38 587.12,384.12 ZM 598.15 361.37 C590.92,357.39 589.28,356.86 585.90,357.40 C581.53,358.10 580.91,357.00 583.56,353.22 C585.69,350.17 589.25,350.38 598.11,354.09 C607.62,358.08 610.73,358.09 620.72,354.20 C625.24,352.44 630.04,351.00 631.40,351.00 C634.30,351.00 637.00,353.40 637.00,355.98 C637.00,357.52 636.40,357.73 633.19,357.30 C630.01,356.87 627.96,357.55 620.86,361.39 C616.17,363.93 611.02,365.99 609.42,365.98 C607.81,365.97 602.74,363.90 598.15,361.37 Z" fill="rgba(26,54,144,1)"/>
</g>
</svg>