<svg xmlns="http://www.w3.org/2000/svg" width="1024" height="1024" viewBox="0 0 1024 1024">
<g>
<path d="M 284.76 859.84 C280.26,858.59 275.98,853.86 276.04,850.17 C276.07,848.70 278.43,830.85 281.30,810.50 L 286.52 773.50 L 312.51 773.50 C340.47,773.50 343.37,773.92 349.11,778.75 C353.63,782.55 354.11,784.75 352.52,794.53 C350.95,804.25 348.28,808.78 342.33,811.83 L 338.77 813.66 L 341.90 814.96 C346.61,816.91 350.00,821.48 349.98,825.83 C349.96,831.29 347.34,847.50 346.11,849.79 C344.64,852.54 339.48,856.75 335.13,858.73 C332.17,860.08 327.52,860.43 310.00,860.63 C297.42,860.78 286.95,860.45 284.76,859.84 ZM 617.20 861.95 C614.29,861.43 610.63,860.34 609.07,859.54 C605.25,857.56 601.00,852.35 601.02,849.67 C601.03,848.48 602.37,837.83 604.00,826.02 C607.17,802.97 607.67,801.55 613.99,797.25 C619.85,793.26 624.50,792.50 643.03,792.50 C659.85,792.50 660.76,792.60 665.50,795.04 C668.36,796.52 671.23,798.94 672.32,800.81 C674.18,803.99 674.17,804.23 670.90,827.23 C667.63,850.30 667.59,850.45 664.23,854.17 C658.81,860.17 652.10,862.16 636.00,862.56 C628.58,862.75 620.12,862.47 617.20,861.95 ZM 488.28 862.05 C482.01,861.06 474.94,857.13 473.04,853.58 C471.88,851.40 471.86,849.42 472.93,841.24 C474.31,830.66 474.94,828.90 478.81,824.75 C483.35,819.88 490.87,817.79 505.93,817.23 C518.41,816.76 519.53,816.56 521.75,814.34 C524.82,811.27 524.47,807.06 521.00,805.23 C519.44,804.41 516.10,804.05 512.12,804.27 C506.65,804.56 505.40,805.00 503.41,807.31 C501.17,809.91 500.76,810.00 490.55,810.00 L 480.00 810.00 L 480.00 807.13 C480.00,801.33 487.80,795.21 498.05,792.98 C501.52,792.22 509.21,791.91 518.58,792.14 C532.22,792.47 534.00,792.73 538.44,795.01 C541.65,796.67 543.93,798.71 545.11,801.01 C546.86,804.44 546.83,805.01 543.03,832.39 C540.46,850.97 538.72,860.56 537.83,861.12 C535.87,862.37 518.60,862.20 517.32,860.92 C516.55,860.15 515.13,860.15 512.37,860.91 C506.89,862.43 494.43,863.02 488.28,862.05 ZM 370.71 859.47 C368.62,858.70 365.64,857.17 364.09,856.06 C358.76,852.27 358.64,850.65 361.98,826.66 C363.64,814.67 365.41,804.10 365.91,803.18 C367.50,800.23 371.38,797.16 376.51,794.80 C381.15,792.66 382.81,792.50 400.03,792.50 C417.87,792.50 418.74,792.59 423.53,795.03 C431.36,799.02 432.21,801.71 430.14,816.00 L 428.47 827.50 L 406.34 827.77 L 384.20 828.04 L 382.97 836.70 C381.77,845.19 381.79,845.41 383.98,847.19 C385.61,848.50 387.90,849.00 392.36,848.99 C399.46,848.97 402.99,847.50 404.74,843.86 C406.90,839.34 424.06,835.95 426.97,839.46 C430.46,843.67 421.31,855.24 411.62,858.87 C406.66,860.73 403.91,860.99 390.21,860.93 C379.43,860.88 373.31,860.42 370.71,859.47 ZM 568.99 860.07 C561.36,857.74 556.00,852.78 556.00,848.02 C556.00,846.53 557.35,836.47 559.00,825.66 C560.65,814.86 562.00,805.79 562.00,805.51 C562.00,805.23 560.16,805.00 557.91,805.00 L 553.81 805.00 L 554.52 799.75 C554.91,796.86 555.43,794.16 555.67,793.75 C555.92,793.34 557.83,793.00 559.93,793.00 C563.64,793.00 563.76,792.88 564.42,788.80 C565.39,782.72 568.27,778.72 573.86,775.67 C577.37,773.76 580.23,773.00 583.90,773.00 C588.71,773.00 589.01,773.14 588.55,775.25 C587.52,779.96 586.00,789.44 586.00,791.18 C586.00,792.64 586.80,793.00 590.05,793.00 L 594.09 793.00 L 593.49 796.75 C592.65,801.96 592.38,803.88 591.31,804.59 C590.64,805.03 589.66,805.00 588.03,805.00 C586.71,805.00 585.84,804.81 585.19,805.10 C583.61,805.82 583.32,809.43 581.02,825.83 C577.81,848.59 577.94,849.00 588.03,849.00 L 593.19 849.00 L 592.48 854.25 C592.09,857.14 591.57,859.84 591.33,860.25 C590.75,861.22 572.28,861.07 568.99,860.07 ZM 679.00 860.25 C678.98,857.07 688.39,794.32 688.98,793.69 C690.19,792.37 706.25,792.52 708.75,793.86 C710.56,794.84 712.03,794.77 716.19,793.54 C725.98,790.63 742.44,792.25 746.93,796.56 C748.17,797.75 748.11,798.22 746.44,800.07 C742.15,804.80 733.28,807.43 728.50,805.38 C721.48,802.37 709.78,804.60 708.72,809.14 C708.42,810.44 706.70,822.64 704.89,836.25 L 701.61 861.00 L 690.30 861.00 C684.09,861.00 679.00,860.66 679.00,860.25 ZM 444.39 863.02 C440.48,861.44 438.00,857.12 438.00,851.89 C438.00,849.23 440.27,830.73 443.04,810.78 C446.99,782.34 448.43,774.23 449.73,773.25 C450.64,772.56 453.51,772.00 456.11,772.00 C459.72,772.00 461.56,772.60 463.86,774.53 C469.59,779.36 469.60,780.06 464.03,820.64 C461.24,840.92 458.75,858.47 458.49,859.65 C457.71,863.18 449.58,865.12 444.39,863.02 ZM 642.47 845.65 C643.97,844.55 644.76,840.95 646.63,826.90 C647.90,817.33 648.95,808.83 648.97,808.00 C648.99,806.77 647.29,806.50 639.55,806.50 C633.83,806.50 629.66,806.95 628.97,807.64 C628.13,808.47 623.27,839.21 623.03,845.20 C623.01,845.59 626.04,846.07 629.75,846.26 C633.46,846.45 637.43,846.70 638.56,846.80 C639.69,846.91 641.45,846.39 642.47,845.65 ZM 323.64 846.79 C325.47,844.95 328.46,826.03 327.43,822.77 C326.65,820.32 324.03,819.87 312.51,820.21 L 302.53 820.50 L 300.84 832.00 C299.91,838.33 299.12,844.78 299.07,846.34 L 299.00 849.17 L 310.47 848.84 C319.63,848.57 322.28,848.16 323.64,846.79 ZM 324.95 806.25 C328.65,804.37 329.28,802.94 330.43,793.68 L 331.15 787.96 L 327.61 786.48 C323.11,784.60 308.15,784.43 307.48,786.25 C306.64,788.51 304.35,807.02 304.85,807.52 C305.12,807.78 308.97,808.00 313.42,808.00 C319.13,808.00 322.51,807.48 324.95,806.25 ZM 515.98 848.72 C518.59,847.40 519.07,845.73 520.50,833.10 C521.19,827.10 521.11,826.75 519.37,827.47 C518.34,827.89 513.76,828.59 509.20,829.04 C499.49,829.97 496.29,831.67 495.60,836.24 C494.04,846.55 494.06,846.93 496.29,848.49 C498.98,850.37 512.39,850.53 515.98,848.72 ZM 408.50 811.03 C408.50,807.26 408.11,806.36 406.00,805.29 C402.68,803.61 395.74,803.66 391.59,805.40 C387.68,807.03 387.48,807.31 386.58,812.28 L 385.90 816.07 L 397.20 815.78 L 408.50 815.50 Z" fill="rgba(0,48,182,1)"/>
<path d="M 561.52 763.88 C553.77,761.21 548.10,757.37 545.08,752.72 L 542.66 749.00 L 524.08 748.99 C513.86,748.99 502.58,748.52 499.00,747.96 C478.58,744.74 463.55,734.42 462.30,722.77 C461.72,717.31 479.50,587.06 481.66,581.00 C485.25,570.92 499.78,560.74 517.62,555.80 C524.98,553.77 527.74,553.62 559.50,553.56 C589.15,553.51 594.33,553.73 600.00,555.28 C617.67,560.13 628.64,568.82 631.35,580.12 C631.70,581.58 627.60,613.36 622.12,651.65 C614.49,705.01 611.81,721.46 610.23,724.55 C607.48,729.94 599.53,737.20 593.19,740.11 C590.33,741.42 588.00,743.01 588.00,743.66 C588.00,745.31 593.68,749.88 596.68,750.63 C598.06,750.98 603.22,751.04 608.14,750.76 C614.53,750.39 616.98,750.57 616.71,751.37 C616.02,753.47 598.28,762.01 590.45,764.01 C580.24,766.62 569.36,766.57 561.52,763.88 ZM 557.67 719.57 C560.51,718.25 563.37,716.18 564.01,714.98 C564.66,713.77 568.99,685.05 573.64,651.14 C579.90,605.45 581.83,588.93 581.09,587.30 C578.88,582.44 574.89,581.50 556.50,581.50 C540.95,581.50 539.15,581.69 535.43,583.68 C533.20,584.87 530.80,586.54 530.10,587.38 C529.36,588.27 525.11,615.09 519.97,651.20 C511.38,711.63 511.17,713.57 512.88,716.00 C516.47,721.10 520.11,722.00 537.00,721.99 C551.27,721.98 552.91,721.79 557.67,719.57 ZM 330.24 747.93 C317.10,745.63 306.33,740.45 300.18,733.47 C292.98,725.29 292.82,729.37 303.48,651.96 C309.82,605.91 313.57,581.58 314.72,579.15 C319.05,569.94 333.89,560.28 350.50,555.86 C357.46,554.01 362.06,553.67 386.00,553.27 C416.16,552.76 427.76,553.62 438.50,557.14 C452.17,561.63 462.43,571.21 463.67,580.65 C464.20,584.71 445.76,716.85 443.81,722.96 C442.32,727.63 433.85,735.81 426.47,739.70 C423.16,741.45 416.41,744.11 411.47,745.62 C402.55,748.34 402.31,748.35 369.00,748.60 C350.58,748.74 333.13,748.44 330.24,747.93 ZM 390.90 719.50 C397.51,715.60 397.20,717.01 405.93,652.50 C410.39,619.50 414.04,591.34 414.02,589.92 C414.01,588.51 412.99,586.41 411.75,585.27 C407.86,581.68 402.45,580.78 386.95,581.15 C374.23,581.46 371.93,581.78 367.73,583.85 C365.11,585.14 362.56,586.95 362.07,587.86 C361.58,588.78 357.25,617.33 352.44,651.30 C345.30,701.77 343.92,713.52 344.86,715.58 C345.49,716.97 347.91,718.98 350.25,720.07 C354.03,721.83 356.33,722.01 371.00,721.77 C385.40,721.53 387.93,721.25 390.90,719.50 ZM 804.61 748.01 C801.93,747.52 799.38,746.76 798.96,746.31 C798.55,745.87 804.23,702.30 811.59,649.50 C818.95,596.70 824.98,553.39 824.99,553.25 C825.02,552.57 874.00,553.11 874.00,553.78 C874.00,556.63 850.82,715.95 849.92,719.29 C846.84,730.74 838.56,741.13 829.16,745.35 C822.59,748.30 812.38,749.40 804.61,748.01 ZM 665.00 745.95 C645.14,741.98 631.91,731.35 631.87,719.32 C631.86,716.67 636.84,678.80 642.93,635.17 C649.02,591.53 654.00,555.64 654.00,555.42 C654.00,555.19 664.84,555.00 678.08,555.00 L 702.16 555.00 L 701.60 557.75 C701.29,559.26 696.30,594.70 690.49,636.50 C682.23,696.05 680.18,712.95 681.05,714.58 C683.59,719.36 687.51,720.48 703.07,720.84 C719.85,721.23 724.66,720.29 729.56,715.69 L 732.95 712.50 L 743.52 637.00 C749.32,595.47 754.33,560.08 754.63,558.35 C755.11,555.61 755.76,555.05 759.54,554.10 C765.22,552.66 774.27,552.70 779.19,554.18 C784.82,555.86 791.31,561.99 794.06,568.21 C795.93,572.45 796.47,575.68 796.76,584.50 C797.07,594.24 796.08,602.65 788.05,657.87 C782.59,695.42 778.34,721.60 777.37,723.64 C773.73,731.30 759.86,740.42 745.50,744.59 C740.39,746.08 734.30,746.37 704.50,746.59 C685.25,746.73 667.47,746.44 665.00,745.95 ZM 180.00 745.25 C180.01,744.84 185.18,707.66 191.50,662.64 C197.83,617.61 203.00,580.61 203.00,580.40 C203.00,580.20 191.41,579.91 177.25,579.77 L 151.50 579.50 L 150.61 575.89 C149.39,570.97 150.41,567.66 154.53,563.09 C158.66,558.53 165.21,555.50 174.07,554.06 C180.36,553.04 305.14,552.47 306.13,553.46 C306.39,553.72 305.69,559.79 304.60,566.96 L 302.60 580.00 L 262.05 580.12 L 221.50 580.23 L 235.90 583.10 C243.82,584.68 250.53,586.20 250.81,586.48 C251.23,586.90 230.95,734.55 229.28,743.25 L 228.75 746.00 L 204.38 746.00 C190.97,746.00 180.00,745.66 180.00,745.25 ZM 496.69 521.91 C478.32,520.39 457.57,515.21 440.69,507.91 C432.42,504.34 415.00,494.81 415.00,493.86 C415.00,493.51 416.69,492.92 418.75,492.54 C430.42,490.43 436.08,488.71 436.99,487.03 C437.70,485.70 436.45,479.93 432.23,465.11 L 426.52 445.00 L 421.51 443.36 C413.90,440.87 404.19,435.74 397.39,430.63 C390.76,425.65 386.11,420.90 391.69,424.81 C400.59,431.05 414.75,435.28 421.27,433.65 C423.64,433.05 423.71,432.74 424.36,419.77 C424.73,412.47 425.49,402.49 426.04,397.59 C428.10,379.48 428.58,381.18 418.88,371.78 C410.17,363.34 404.03,354.40 404.01,350.14 C403.98,343.39 411.09,337.06 420.50,335.44 L 424.50 334.76 L 420.86 338.63 C418.86,340.76 416.91,343.52 416.53,344.78 C415.51,348.18 419.42,355.34 424.84,360.01 C439.96,373.01 489.64,390.00 512.58,390.00 C525.43,390.00 549.70,383.85 572.50,374.81 C589.85,367.94 600.15,361.32 605.25,353.77 C609.35,347.70 609.00,343.64 603.96,338.85 C599.56,334.66 600.12,334.25 607.67,336.15 C610.49,336.86 613.71,338.71 616.11,340.99 C619.51,344.22 620.00,345.26 620.00,349.19 C620.00,355.10 614.95,362.88 604.63,372.89 C600.43,376.96 597.00,381.01 597.00,381.89 C597.00,382.78 597.67,389.80 598.49,397.50 C599.31,405.20 599.98,416.29 599.99,422.13 C600.00,432.31 600.10,432.79 602.25,433.37 C608.79,435.12 620.90,432.34 629.00,427.23 C635.98,422.83 636.78,422.58 633.00,425.98 C627.08,431.31 615.21,438.78 609.21,440.95 C597.09,445.34 598.17,444.03 593.87,459.55 C585.94,488.15 586.42,485.85 588.07,487.50 C588.89,488.32 593.83,489.91 599.03,491.03 C604.24,492.15 608.91,493.19 609.42,493.34 C609.92,493.49 606.77,495.70 602.42,498.25 C579.50,511.68 553.55,519.69 525.50,521.99 C512.20,523.07 510.75,523.07 496.69,521.91 ZM 538.49 500.63 C546.62,497.11 550.43,491.20 552.60,478.74 C555.06,464.69 561.44,452.60 573.64,438.93 C580.78,430.92 586.34,422.38 588.97,415.36 C591.74,407.93 591.56,405.41 587.97,401.82 C585.53,399.37 584.43,398.93 582.22,399.48 C578.59,400.38 576.14,402.72 574.37,406.98 C570.08,417.27 555.69,423.82 543.24,421.14 C532.66,418.88 527.31,416.10 519.54,408.84 L 512.00 401.80 L 504.46 408.84 C496.69,416.10 491.34,418.88 480.76,421.14 C468.45,423.78 454.43,417.56 450.01,407.50 C447.94,402.77 445.51,400.41 441.78,399.48 C439.57,398.93 438.47,399.37 436.03,401.82 C434.25,403.60 433.00,405.89 433.00,407.39 C433.00,413.62 441.01,428.91 448.10,436.21 C454.11,442.40 463.31,455.50 466.56,462.50 C468.34,466.35 470.55,473.52 471.47,478.43 C473.78,490.83 476.84,496.29 483.40,499.70 C488.38,502.29 494.85,502.89 515.00,502.62 C530.84,502.40 535.25,502.03 538.49,500.63 ZM 341.54 430.14 L 348.22 417.28 L 344.71 408.39 C332.23,376.80 329.19,340.84 336.10,306.50 C342.06,276.90 355.96,249.18 377.41,224.10 C383.82,216.60 397.26,203.99 398.82,204.01 C399.19,204.02 405.29,221.00 412.36,241.76 C430.30,294.39 439.66,314.96 452.80,330.60 C459.67,338.77 471.34,348.77 478.99,353.03 C486.85,357.41 481.04,355.56 471.54,350.66 C461.41,345.44 449.68,336.77 439.61,327.09 C431.04,318.84 420.54,306.28 419.51,303.03 C419.16,301.91 418.56,301.00 418.18,301.01 C417.81,301.01 415.92,303.48 414.00,306.50 C412.08,309.52 410.27,311.97 410.00,311.94 C409.73,311.91 407.83,309.69 405.79,307.01 C400.86,300.54 390.78,292.25 384.14,289.21 C378.69,286.71 369.13,285.87 364.16,287.45 C361.46,288.31 359.20,292.62 354.68,305.63 C351.50,314.74 347.00,332.80 347.00,336.41 C347.00,337.31 349.16,338.49 352.71,339.52 C361.29,342.01 367.12,345.32 371.73,350.32 C376.15,355.12 380.56,362.96 382.52,369.50 L 383.72 373.50 L 374.36 387.15 C369.21,394.66 365.00,401.13 365.00,401.53 C365.00,401.93 366.63,404.52 368.61,407.29 C372.18,412.25 372.20,412.34 370.22,413.91 C364.12,418.75 339.15,440.11 338.05,441.44 C337.34,442.30 336.33,443.00 335.81,443.00 C335.29,443.00 337.87,437.21 341.54,430.14 ZM 680.28 436.27 C669.21,426.69 655.74,414.94 654.11,413.43 C652.93,412.34 653.29,411.34 656.43,406.96 L 660.15 401.79 L 650.46 387.51 L 640.77 373.24 L 642.02 369.37 C647.22,353.31 655.59,344.59 670.18,340.04 C674.20,338.78 677.62,337.65 677.76,337.53 C677.90,337.41 677.30,333.53 676.43,328.91 C674.66,319.57 669.24,302.05 665.49,293.57 C662.71,287.28 661.19,286.52 651.50,286.51 C642.32,286.50 635.60,290.26 623.80,302.04 L 614.09 311.71 L 610.49 306.28 L 606.88 300.85 L 601.78 308.18 C595.26,317.52 578.78,333.78 568.04,341.45 C560.24,347.03 543.88,356.01 541.54,355.99 C540.97,355.99 543.65,354.10 547.50,351.79 C556.82,346.21 571.90,331.46 578.61,321.38 C584.04,313.22 592.32,296.62 597.52,283.50 C599.04,279.65 605.83,260.36 612.60,240.62 C619.38,220.89 625.14,204.53 625.41,204.26 C626.25,203.41 638.92,215.18 646.67,224.00 C691.04,274.54 703.71,345.46 679.53,408.05 L 675.98 417.25 L 682.53 430.13 C686.13,437.21 688.85,443.00 688.57,443.00 C688.29,443.00 684.56,439.97 680.28,436.27 ZM 503.29 335.61 C496.30,333.33 489.94,329.04 482.81,321.80 C473.89,312.76 472.22,309.73 478.69,314.35 C488.98,321.67 504.60,328.00 512.41,328.00 C520.16,328.00 536.50,321.32 545.44,314.50 C548.05,312.50 550.42,311.09 550.69,311.36 C550.96,311.63 546.98,316.06 541.84,321.19 C530.62,332.42 523.96,336.12 514.00,336.64 C510.23,336.84 505.73,336.41 503.29,335.61 ZM 465.53 252.75 C465.24,251.51 461.84,233.85 457.96,213.50 C454.08,193.15 450.72,175.95 450.50,175.28 C449.99,173.77 462.09,169.83 475.92,167.02 C499.62,162.19 524.38,162.19 548.08,167.02 C558.89,169.22 574.00,173.71 574.00,174.71 C574.00,175.91 558.73,254.50 558.42,254.86 C558.26,255.05 554.83,253.17 550.81,250.67 C543.21,245.95 530.21,241.01 525.32,240.98 C523.77,240.98 521.84,240.55 521.04,240.05 C520.17,239.50 518.12,232.76 515.97,223.37 C513.98,214.70 512.12,208.04 511.82,208.56 C511.53,209.08 509.81,216.02 508.01,224.00 C506.21,231.98 504.39,238.88 503.97,239.35 C503.55,239.81 500.08,240.79 496.26,241.52 C488.48,243.00 478.40,247.25 471.63,251.91 C469.16,253.61 466.89,255.00 466.59,255.00 C466.29,255.00 465.81,253.99 465.53,252.75 ZM 485.72 465.25 C481.57,460.66 481.86,455.45 486.43,452.45 C489.29,450.58 491.93,450.75 504.59,453.58 C512.62,455.38 512.77,455.37 521.64,453.20 C533.56,450.27 535.52,450.36 539.18,454.03 C542.61,457.46 542.48,460.75 538.75,464.75 C536.28,467.40 534.80,467.49 525.50,465.52 C521.65,464.70 515.58,464.03 512.00,464.03 C508.42,464.03 502.35,464.70 498.50,465.52 C489.51,467.42 487.66,467.38 485.72,465.25 ZM 497.17 437.39 C487.06,432.03 486.28,431.85 481.25,433.74 C479.52,434.39 479.63,429.88 481.41,427.46 C483.49,424.61 489.00,425.22 499.24,429.42 C504.29,431.49 509.67,433.00 512.00,433.00 C514.33,433.00 519.71,431.49 524.76,429.42 C535.00,425.22 540.51,424.61 542.59,427.46 C544.37,429.88 544.48,434.39 542.75,433.74 C537.72,431.85 536.92,432.04 526.54,437.46 C512.68,444.69 510.94,444.69 497.17,437.39 Z" fill="rgba(236,13,14,1)"/>
</g>
</svg>