<svg xmlns="http://www.w3.org/2000/svg" width="1024" height="1024" viewBox="0 0 1024 1024">
<g>
<path d="M 435.21 862.83 C430.91,861.64 428.01,856.89 428.00,851.05 C428.00,843.24 438.07,773.57 439.32,772.78 C441.38,771.47 446.90,770.76 449.65,771.45 C453.16,772.33 457.58,777.17 458.34,780.96 C458.84,783.43 450.29,850.82 448.48,858.72 C447.63,862.45 441.13,864.47 435.21,862.83 ZM 475.50 861.06 C467.63,859.15 462.00,853.96 462.00,848.62 C462.00,842.27 464.96,828.86 466.98,826.02 C468.12,824.43 471.62,821.86 474.77,820.31 C479.98,817.76 481.63,817.47 493.00,817.22 C507.70,816.88 509.41,816.59 512.03,813.97 C514.79,811.21 514.55,807.41 511.50,805.41 C507.65,802.88 495.39,803.80 492.97,806.79 C491.32,808.83 490.32,809.00 480.26,809.00 L 469.35 809.00 L 469.79 805.96 C470.35,802.14 475.11,797.31 480.99,794.59 C484.90,792.79 487.83,792.46 502.99,792.17 C521.33,791.81 526.05,792.48 531.27,796.19 C537.28,800.47 537.29,800.78 532.97,831.99 C530.81,847.55 528.80,860.54 528.50,860.84 C527.32,862.01 507.94,861.51 507.18,860.28 C506.59,859.34 505.33,859.40 501.55,860.53 C496.47,862.06 480.91,862.38 475.50,861.06 ZM 506.88 847.61 C508.23,846.39 509.08,843.37 509.91,836.83 C510.55,831.83 510.88,827.55 510.63,827.30 C510.39,827.05 508.46,827.33 506.34,827.92 C504.23,828.51 500.12,828.99 497.20,828.99 C489.18,829.00 486.26,830.94 485.51,836.74 C485.17,839.36 484.71,842.40 484.49,843.51 C483.55,848.15 487.81,850.12 497.76,849.65 C502.78,849.41 505.59,848.78 506.88,847.61 ZM 602.01 860.08 C595.98,857.95 591.00,853.27 591.00,849.73 C591.00,848.51 592.34,837.69 593.97,825.70 C597.37,800.71 597.78,799.73 606.77,795.31 C612.28,792.61 613.18,792.49 629.99,792.16 C648.94,791.80 653.22,792.47 658.81,796.70 C664.27,800.81 664.35,801.94 660.98,826.13 C659.30,838.19 657.54,849.05 657.07,850.28 C655.82,853.50 652.17,856.58 646.49,859.20 C642.00,861.26 639.79,861.52 624.50,861.75 C609.80,861.98 606.76,861.76 602.01,860.08 ZM 633.38 843.71 C634.59,841.76 639.64,807.23 638.82,806.54 C638.64,806.40 634.61,806.02 629.86,805.70 C623.81,805.29 620.73,805.48 619.55,806.34 C618.28,807.27 617.31,811.91 615.44,826.03 C614.10,836.19 613.00,844.72 613.01,845.00 C613.01,845.28 617.29,845.59 622.51,845.71 C631.34,845.90 632.10,845.76 633.38,843.71 ZM 277.12 859.97 C274.71,859.47 271.65,858.35 270.32,857.48 C265.25,854.15 265.25,853.86 271.04,811.92 L 276.42 772.89 L 303.96 773.19 C331.20,773.50 331.55,773.53 336.00,776.00 C342.76,779.76 344.16,783.41 342.66,793.50 C341.22,803.20 338.42,808.18 332.98,810.69 C330.82,811.68 329.04,812.72 329.04,813.00 C329.03,813.28 330.80,814.25 332.99,815.17 C339.39,817.85 340.64,821.66 339.11,833.73 C337.29,848.01 336.46,850.48 332.28,853.92 C325.64,859.39 321.48,860.27 300.50,860.59 C290.05,860.75 279.53,860.47 277.12,859.97 ZM 310.21 847.96 C312.26,847.39 314.22,846.46 314.57,845.88 C314.92,845.31 315.87,839.86 316.66,833.76 C318.56,819.24 318.79,819.50 303.74,819.50 L 292.54 819.50 L 290.84 831.00 C289.91,837.33 289.12,843.96 289.07,845.75 L 289.00 849.00 L 297.75 848.99 C302.56,848.99 308.17,848.52 310.21,847.96 ZM 315.90 805.55 C318.40,804.26 318.85,803.25 319.96,796.34 C321.18,788.80 321.15,788.54 318.99,786.79 C317.20,785.34 314.92,785.00 307.03,785.00 L 297.28 785.00 L 296.07 794.25 C295.41,799.34 294.64,804.29 294.36,805.25 C293.91,806.83 294.80,807.00 303.48,807.00 C309.93,807.00 314.02,806.52 315.90,805.55 ZM 365.50 860.37 C356.94,858.23 351.62,854.76 349.89,850.20 C349.22,848.45 349.84,841.28 352.02,825.70 C355.54,800.52 355.89,799.67 364.77,795.31 C370.28,792.61 371.18,792.49 387.99,792.16 C406.41,791.81 411.04,792.48 416.36,796.26 C421.23,799.72 421.76,802.41 420.11,815.44 L 418.65 827.00 L 396.44 827.00 L 374.23 827.00 L 373.64 831.25 C371.75,844.79 371.75,845.55 373.55,847.04 C375.88,848.98 387.76,848.99 391.37,847.07 C392.85,846.28 394.30,844.66 394.59,843.48 C394.98,841.93 396.59,840.87 400.32,839.72 C414.98,835.19 419.81,836.72 416.44,844.81 C414.27,850.01 408.59,855.49 402.61,858.14 C398.15,860.11 395.59,860.43 382.50,860.64 C374.25,860.77 366.60,860.65 365.50,860.37 ZM 398.82 810.66 C399.24,805.49 397.21,804.07 389.30,804.03 C381.76,803.99 378.14,805.48 377.38,808.92 C377.07,810.34 376.60,812.30 376.33,813.28 C375.88,814.93 376.71,815.05 387.17,814.78 L 398.50 814.50 L 398.82 810.66 ZM 560.73 859.96 C554.04,858.30 549.03,855.13 547.28,851.45 C545.70,848.15 545.76,847.06 548.39,829.24 C549.91,818.93 551.40,809.26 551.70,807.75 C552.23,805.10 552.10,805.00 547.99,805.00 L 543.74 805.00 L 544.36 801.25 C544.70,799.19 544.98,796.51 544.99,795.31 C545.00,793.45 545.64,793.07 549.22,792.81 C553.37,792.51 553.46,792.41 554.32,788.00 C555.50,781.88 559.27,777.25 565.38,774.40 C569.99,772.25 576.89,771.22 578.16,772.49 C578.43,772.76 578.08,776.47 577.38,780.74 C575.35,793.09 575.34,793.00 580.08,793.00 C584.07,793.00 584.15,793.06 583.58,796.00 C583.26,797.65 582.74,800.35 582.42,802.00 C581.90,804.72 581.48,805.00 577.97,805.00 C573.44,805.00 574.11,802.88 570.64,828.25 C567.95,847.88 567.99,848.00 577.56,848.80 L 583.08 849.25 L 582.43 853.88 C582.06,856.42 581.35,858.95 580.84,859.49 C579.61,860.82 565.49,861.14 560.73,859.96 ZM 668.97 860.25 C668.95,859.84 671.04,844.57 673.63,826.33 C678.96,788.64 677.43,792.03 689.00,792.02 C692.64,792.02 696.68,792.63 698.18,793.41 C700.46,794.60 701.44,794.61 704.68,793.45 C710.31,791.44 727.36,791.67 733.00,793.83 C739.03,796.14 738.97,798.50 732.79,802.33 C727.77,805.43 719.74,807.01 718.57,805.12 C718.17,804.46 714.87,804.00 710.55,804.00 C698.81,804.00 699.33,803.00 695.32,833.08 C693.45,847.06 691.73,859.06 691.49,859.75 C691.02,861.13 669.03,861.62 668.97,860.25 ZM 212.40 760.98 C199.86,759.66 186.47,754.63 179.20,748.52 C175.31,745.24 172.00,739.93 170.95,735.28 C169.95,730.85 189.02,590.27 191.39,584.60 C196.17,573.16 216.61,561.26 237.00,558.04 C245.71,556.67 300.23,556.71 309.31,558.10 C318.78,559.55 330.30,564.07 336.47,568.76 C342.30,573.19 346.96,580.23 347.66,585.65 C348.17,589.55 329.03,726.06 326.96,733.35 C325.56,738.24 319.17,745.24 311.59,750.17 C303.71,755.29 289.75,759.64 277.05,760.95 C265.62,762.12 223.41,762.14 212.40,760.98 ZM 270.00 731.38 C278.37,727.50 277.35,731.69 287.11,660.77 C291.97,625.42 295.96,596.44 295.98,596.36 C296.08,595.71 337.18,590.35 344.88,589.97 C345.22,589.95 344.78,589.52 343.90,589.01 C341.63,587.67 291.90,585.76 270.00,586.16 C253.07,586.48 251.14,586.70 247.26,588.77 C244.94,590.01 242.39,592.03 241.61,593.26 C240.73,594.64 236.85,619.37 231.54,657.50 C226.79,691.60 222.51,720.45 222.04,721.61 C220.99,724.17 220.22,724.33 196.37,727.06 C185.99,728.25 177.11,729.59 176.64,730.03 C174.61,731.91 213.05,733.89 246.50,733.62 C263.47,733.48 265.98,733.24 270.00,731.38 ZM 393.00 757.25 C393.01,755.55 415.38,594.79 416.52,588.25 L 417.09 585.00 L 390.08 585.00 L 363.08 585.00 L 361.98 580.93 C359.27,570.85 368.28,561.42 383.80,558.13 C391.79,556.43 525.00,556.55 525.00,558.25 C525.00,558.94 524.11,564.90 523.02,571.50 C521.93,578.10 521.03,583.84 521.02,584.25 C521.01,584.66 509.08,585.00 494.50,585.00 C472.58,585.00 468.00,585.24 468.00,586.39 C468.00,587.88 445.32,750.36 444.36,755.75 L 443.78 759.00 L 418.39 759.00 C394.87,759.00 393.00,758.87 393.00,757.25 ZM 545.50 757.88 C528.28,755.38 518.10,747.86 516.56,736.50 C516.23,734.03 520.69,699.13 528.26,645.00 L 540.51 557.50 L 613.00 557.50 L 685.50 557.50 L 685.83 562.00 C686.26,567.91 683.90,572.21 678.13,576.04 C667.40,583.15 654.64,585.00 616.42,585.00 L 588.29 585.00 L 585.08 608.75 C583.31,621.81 581.64,633.29 581.37,634.25 C580.90,635.89 583.12,636.00 618.25,636.00 L 655.63 636.00 L 653.65 650.00 L 651.68 664.00 L 614.57 664.00 L 577.45 664.00 L 573.12 694.75 C570.74,711.66 568.56,726.74 568.27,728.25 L 567.75 731.00 L 613.88 731.00 C657.13,731.00 660.00,731.11 660.01,732.75 C660.02,733.71 659.49,740.01 658.85,746.75 L 657.67 759.00 L 604.59 758.88 C575.39,758.81 548.80,758.36 545.50,757.88 ZM 713.76 758.00 C695.20,754.73 680.05,744.33 676.93,732.73 C675.45,727.23 694.11,591.76 697.28,585.00 C702.02,574.89 716.89,564.58 733.50,559.91 C740.88,557.83 744.03,557.62 774.21,557.24 C808.80,556.81 815.89,557.34 827.76,561.23 C840.86,565.52 851.93,575.70 853.48,584.86 C854.85,593.00 850.54,601.09 842.62,605.26 C839.22,607.05 836.39,607.49 826.38,607.81 C816.36,608.13 801.63,606.99 800.47,605.80 C800.31,605.63 800.65,603.12 801.23,600.21 C802.58,593.42 801.43,590.80 795.79,587.81 C791.85,585.73 790.19,585.54 775.50,585.52 C760.40,585.50 759.22,585.64 754.55,588.00 C751.83,589.38 748.81,591.62 747.84,593.00 C745.15,596.80 727.68,720.46 729.33,724.00 C729.97,725.38 732.51,727.51 734.96,728.75 C738.99,730.78 740.86,731.00 754.35,731.00 C771.05,731.00 775.40,730.10 780.60,725.58 C784.02,722.61 784.21,722.08 785.74,711.25 L 787.32 700.00 L 812.67 700.00 L 838.02 700.00 L 837.48 703.75 C837.18,705.81 836.34,712.24 835.62,718.03 C834.89,723.82 833.47,730.35 832.44,732.53 C827.92,742.18 813.89,751.62 797.20,756.24 C790.10,758.20 786.71,758.38 754.00,758.60 C734.47,758.73 716.37,758.46 713.76,758.00 ZM 496.69 521.91 C478.32,520.39 457.57,515.21 440.69,507.91 C432.42,504.34 415.00,494.81 415.00,493.86 C415.00,493.51 416.69,492.92 418.75,492.54 C430.42,490.43 436.08,488.71 436.99,487.03 C437.70,485.70 436.45,479.93 432.23,465.11 L 426.52 445.00 L 421.51 443.36 C413.90,440.87 404.19,435.74 397.39,430.63 C390.76,425.65 386.11,420.90 391.69,424.81 C400.59,431.05 414.75,435.28 421.27,433.65 C423.64,433.05 423.71,432.74 424.36,419.77 C424.73,412.47 425.49,402.49 426.04,397.59 C428.10,379.48 428.58,381.18 418.88,371.78 C410.17,363.34 404.03,354.40 404.01,350.14 C403.98,343.39 411.09,337.06 420.50,335.44 L 424.50 334.76 L 420.86 338.63 C418.86,340.76 416.91,343.52 416.53,344.78 C415.51,348.18 419.42,355.34 424.84,360.01 C439.96,373.01 489.64,390.00 512.58,390.00 C525.43,390.00 549.70,383.85 572.50,374.81 C589.85,367.94 600.15,361.32 605.25,353.77 C609.35,347.70 609.00,343.64 603.96,338.85 C599.56,334.66 600.12,334.25 607.67,336.15 C610.49,336.86 613.71,338.71 616.11,340.99 C619.51,344.22 620.00,345.26 620.00,349.19 C620.00,355.10 614.95,362.88 604.63,372.89 C600.43,376.96 597.00,381.01 597.00,381.89 C597.00,382.78 597.67,389.80 598.49,397.50 C599.31,405.20 599.98,416.29 599.99,422.13 C600.00,432.31 600.10,432.79 602.25,433.37 C608.79,435.12 620.90,432.34 629.00,427.23 C635.98,422.83 636.78,422.58 633.00,425.98 C627.08,431.31 615.21,438.78 609.21,440.95 C597.09,445.34 598.17,444.03 593.87,459.55 C585.94,488.15 586.42,485.85 588.07,487.50 C588.89,488.32 593.83,489.91 599.03,491.03 C604.24,492.15 608.91,493.19 609.42,493.34 C609.92,493.49 606.77,495.70 602.42,498.25 C579.50,511.68 553.55,519.69 525.50,521.99 C512.20,523.07 510.75,523.07 496.69,521.91 ZM 538.49 500.63 C546.62,497.11 550.43,491.20 552.60,478.74 C555.06,464.69 561.44,452.60 573.64,438.93 C580.78,430.92 586.34,422.38 588.97,415.36 C591.74,407.93 591.56,405.41 587.97,401.82 C585.53,399.37 584.43,398.93 582.22,399.48 C578.59,400.38 576.14,402.72 574.37,406.98 C570.08,417.27 555.69,423.82 543.24,421.14 C532.66,418.88 527.31,416.10 519.54,408.84 L 512.00 401.80 L 504.46 408.84 C496.69,416.10 491.34,418.88 480.76,421.14 C468.45,423.78 454.43,417.56 450.01,407.50 C447.94,402.77 445.51,400.41 441.78,399.48 C439.57,398.93 438.47,399.37 436.03,401.82 C434.25,403.60 433.00,405.89 433.00,407.39 C433.00,413.62 441.01,428.91 448.10,436.21 C454.11,442.40 463.31,455.50 466.56,462.50 C468.34,466.35 470.55,473.52 471.47,478.43 C473.78,490.83 476.84,496.29 483.40,499.70 C488.38,502.29 494.85,502.89 515.00,502.62 C530.84,502.40 535.25,502.03 538.49,500.63 ZM 341.54 430.14 L 348.22 417.28 L 344.71 408.39 C332.23,376.80 329.19,340.84 336.10,306.50 C342.06,276.90 355.96,249.18 377.41,224.10 C383.82,216.60 397.26,203.99 398.82,204.01 C399.19,204.02 405.29,221.00 412.36,241.76 C430.30,294.39 439.66,314.96 452.80,330.60 C459.67,338.77 471.34,348.77 478.99,353.03 C486.85,357.41 481.04,355.56 471.54,350.66 C461.41,345.44 449.68,336.77 439.61,327.09 C431.04,318.84 420.54,306.28 419.51,303.03 C419.16,301.91 418.56,301.00 418.18,301.01 C417.81,301.01 415.92,303.48 414.00,306.50 C412.08,309.52 410.27,311.97 410.00,311.94 C409.73,311.91 407.83,309.69 405.79,307.01 C400.86,300.54 390.78,292.25 384.14,289.21 C378.69,286.71 369.13,285.87 364.16,287.45 C361.46,288.31 359.20,292.62 354.68,305.63 C351.50,314.74 347.00,332.80 347.00,336.41 C347.00,337.31 349.16,338.49 352.71,339.52 C361.29,342.01 367.12,345.32 371.73,350.32 C376.15,355.12 380.56,362.96 382.52,369.50 L 383.72 373.50 L 374.36 387.15 C369.21,394.66 365.00,401.13 365.00,401.53 C365.00,401.93 366.63,404.52 368.61,407.29 C372.18,412.25 372.20,412.34 370.22,413.91 C364.12,418.75 339.15,440.11 338.05,441.44 C337.34,442.30 336.33,443.00 335.81,443.00 C335.29,443.00 337.87,437.21 341.54,430.14 ZM 680.28 436.27 C669.21,426.69 655.74,414.94 654.11,413.43 C652.93,412.34 653.29,411.34 656.43,406.96 L 660.15 401.79 L 650.46 387.51 L 640.77 373.24 L 642.02 369.37 C647.22,353.31 655.59,344.59 670.18,340.04 C674.20,338.78 677.62,337.65 677.76,337.53 C677.90,337.41 677.30,333.53 676.43,328.91 C674.66,319.57 669.24,302.05 665.49,293.57 C662.71,287.28 661.19,286.52 651.50,286.51 C642.32,286.50 635.60,290.26 623.80,302.04 L 614.09 311.71 L 610.49 306.28 L 606.88 300.85 L 601.78 308.18 C595.26,317.52 578.78,333.78 568.04,341.45 C560.24,347.03 543.88,356.01 541.54,355.99 C540.97,355.99 543.65,354.10 547.50,351.79 C556.82,346.21 571.90,331.46 578.61,321.38 C584.04,313.22 592.32,296.62 597.52,283.50 C599.04,279.65 605.83,260.36 612.60,240.62 C619.38,220.89 625.14,204.53 625.41,204.26 C626.25,203.41 638.92,215.18 646.67,224.00 C691.04,274.54 703.71,345.46 679.53,408.05 L 675.98 417.25 L 682.53 430.13 C686.13,437.21 688.85,443.00 688.57,443.00 C688.29,443.00 684.56,439.97 680.28,436.27 ZM 503.29 335.61 C496.30,333.33 489.94,329.04 482.81,321.80 C473.89,312.76 472.22,309.73 478.69,314.35 C488.98,321.67 504.60,328.00 512.41,328.00 C520.16,328.00 536.50,321.32 545.44,314.50 C548.05,312.50 550.42,311.09 550.69,311.36 C550.96,311.63 546.98,316.06 541.84,321.19 C530.62,332.42 523.96,336.12 514.00,336.64 C510.23,336.84 505.73,336.41 503.29,335.61 ZM 465.53 252.75 C465.24,251.51 461.84,233.85 457.96,213.50 C454.08,193.15 450.72,175.95 450.50,175.28 C449.99,173.77 462.09,169.83 475.92,167.02 C499.62,162.19 524.38,162.19 548.08,167.02 C558.89,169.22 574.00,173.71 574.00,174.71 C574.00,175.91 558.73,254.50 558.42,254.86 C558.26,255.05 554.83,253.17 550.81,250.67 C543.21,245.95 530.21,241.01 525.32,240.98 C523.77,240.98 521.84,240.55 521.04,240.05 C520.17,239.50 518.12,232.76 515.97,223.37 C513.98,214.70 512.12,208.04 511.82,208.56 C511.53,209.08 509.81,216.02 508.01,224.00 C506.21,231.98 504.39,238.88 503.97,239.35 C503.55,239.81 500.08,240.79 496.26,241.52 C488.48,243.00 478.40,247.25 471.63,251.91 C469.16,253.61 466.89,255.00 466.59,255.00 C466.29,255.00 465.81,253.99 465.53,252.75 ZM 485.72 465.25 C481.57,460.66 481.86,455.45 486.43,452.45 C489.29,450.58 491.93,450.75 504.59,453.58 C512.62,455.38 512.77,455.37 521.64,453.20 C533.56,450.27 535.52,450.36 539.18,454.03 C542.61,457.46 542.48,460.75 538.75,464.75 C536.28,467.40 534.80,467.49 525.50,465.52 C521.65,464.70 515.58,464.03 512.00,464.03 C508.42,464.03 502.35,464.70 498.50,465.52 C489.51,467.42 487.66,467.38 485.72,465.25 ZM 497.17 437.39 C487.06,432.03 486.28,431.85 481.25,433.74 C479.52,434.39 479.63,429.88 481.41,427.46 C483.49,424.61 489.00,425.22 499.24,429.42 C504.29,431.49 509.67,433.00 512.00,433.00 C514.33,433.00 519.71,431.49 524.76,429.42 C535.00,425.22 540.51,424.61 542.59,427.46 C544.37,429.88 544.48,434.39 542.75,433.74 C537.72,431.85 536.92,432.04 526.54,437.46 C512.68,444.69 510.94,444.69 497.17,437.39 Z" fill="rgba(251,148,0,1)"/>
</g>
</svg>