<svg xmlns="http://www.w3.org/2000/svg" width="1024" height="1024" viewBox="0 0 1024 1024">
<g>
<path d="M 374.50 813.06 C363.32,810.34 356.07,800.57 356.02,788.18 C356.01,783.47 373.50,652.48 377.56,626.87 C378.10,623.46 378.50,623.12 383.81,621.45 C390.50,619.34 400.30,619.26 405.10,621.27 C413.58,624.83 419.58,633.52 420.60,643.75 C421.03,648.05 418.50,668.82 410.57,726.00 C404.73,768.08 399.71,803.75 399.40,805.27 C398.73,808.55 394.14,811.19 386.20,812.88 C380.35,814.12 378.91,814.14 374.50,813.06 ZM 466.40 809.98 C452.78,808.54 442.83,804.65 435.50,797.89 C430.26,793.06 427.83,788.23 427.83,782.62 C427.83,775.25 433.16,743.65 435.01,740.00 C439.35,731.48 450.66,723.40 464.50,718.94 C470.75,716.93 474.28,716.62 497.50,716.08 C521.18,715.52 523.92,715.27 528.17,713.33 C533.93,710.68 535.97,707.69 536.68,700.83 C537.17,696.03 536.97,695.24 534.59,692.86 C531.28,689.55 525.23,688.00 515.61,688.00 C501.87,688.00 493.34,691.34 490.94,697.66 L 490.05 700.00 L 467.02 700.00 L 444.00 700.00 L 444.02 695.75 C444.07,686.06 452.37,676.48 466.30,670.02 C480.07,663.63 484.82,663.00 519.20,663.01 C553.33,663.03 557.65,663.61 569.20,669.67 C576.73,673.63 581.15,678.21 583.58,684.58 C585.10,688.54 584.86,690.80 576.97,748.09 C572.47,780.77 568.71,807.59 568.61,807.70 C567.83,808.59 543.94,810.15 535.89,809.83 C526.52,809.45 525.57,809.22 523.62,806.90 L 521.50 804.39 L 514.16 806.71 C502.06,810.54 483.65,811.80 466.40,809.98 ZM 519.41 782.04 C522.61,780.49 524.60,778.73 525.52,776.62 C526.86,773.54 531.72,737.38 530.90,736.56 C530.66,736.33 527.33,737.02 523.49,738.10 C519.36,739.26 510.97,740.40 503.00,740.88 C488.41,741.75 482.62,743.60 479.50,748.36 C477.72,751.07 474.52,773.96 475.42,777.54 C476.08,780.18 480.47,782.91 486.00,784.13 C487.92,784.55 495.16,784.77 502.08,784.62 C512.81,784.38 515.37,784.00 519.41,782.04 ZM 736.32 809.96 C717.09,807.57 701.51,797.55 699.38,786.23 C698.56,781.86 710.46,692.22 712.51,687.31 C716.21,678.47 731.11,668.85 747.00,665.05 C754.58,663.23 758.80,663.01 786.04,663.01 C819.34,663.00 822.79,663.42 834.65,668.94 C842.28,672.49 848.17,678.25 850.56,684.52 L 852.39 689.30 L 846.12 734.40 C842.67,759.21 839.40,781.26 838.84,783.41 C837.34,789.26 828.24,798.29 819.56,802.54 C805.93,809.22 799.73,810.23 770.00,810.56 C755.42,810.72 740.27,810.45 736.32,809.96 ZM 783.75 776.48 C785.83,775.65 788.13,774.02 788.86,772.85 C790.11,770.85 800.77,693.41 799.91,692.60 C799.68,692.39 796.95,692.69 793.83,693.26 C789.31,694.09 785.79,693.94 776.54,692.49 C765.75,690.79 764.69,690.78 761.51,692.29 C759.63,693.19 757.41,694.96 756.58,696.24 C755.58,697.77 753.34,711.67 750.03,736.98 C747.26,758.11 745.00,775.71 745.00,776.09 C745.00,776.48 746.69,776.40 748.75,775.92 C754.09,774.68 762.45,774.88 770.00,776.43 C778.76,778.23 779.39,778.23 783.75,776.48 ZM 45.39 806.99 C27.29,804.50 18.13,798.33 16.48,787.50 C16.08,784.87 19.66,756.33 26.93,704.08 C33.02,660.41 38.00,624.29 38.00,623.83 C38.00,623.38 60.97,623.00 89.04,623.00 C131.18,623.00 141.39,623.27 147.56,624.55 C161.78,627.48 171.29,633.08 176.00,641.31 C179.57,647.52 179.65,649.76 177.01,667.85 C173.90,689.12 169.06,696.98 154.84,703.90 L 146.98 707.72 L 153.08 709.95 C163.13,713.62 170.08,721.40 171.56,730.66 C171.92,732.93 170.90,743.46 169.04,756.50 C164.73,786.73 162.30,791.21 145.64,799.66 C131.54,806.81 127.80,807.32 87.50,807.59 C67.70,807.72 48.75,807.45 45.39,806.99 ZM 112.67 779.57 C115.51,778.25 118.32,776.27 118.90,775.18 C120.70,771.82 125.49,730.30 124.43,727.33 C123.92,725.90 121.93,723.89 120.02,722.86 C116.92,721.21 114.07,721.00 94.27,721.00 C82.02,721.00 72.00,721.17 72.00,721.39 C72.00,722.05 64.06,776.34 63.54,779.25 L 63.05 782.00 L 85.28 781.99 C106.64,781.98 107.70,781.89 112.67,779.57 ZM 117.30 693.93 C119.40,693.35 122.52,691.62 124.24,690.08 C127.23,687.41 127.48,686.59 129.59,672.39 C132.14,655.25 131.85,653.67 125.50,650.50 C121.99,648.75 119.08,648.46 101.75,648.16 C90.89,647.97 81.99,648.20 81.97,648.66 C81.95,649.12 80.46,659.74 78.64,672.25 L 75.35 695.00 L 94.42 694.99 C104.92,694.99 115.21,694.51 117.30,693.93 ZM 226.53 806.94 C207.29,803.97 192.52,793.45 191.33,781.86 C190.63,774.97 202.57,690.75 204.91,686.18 C209.01,678.14 219.72,670.80 234.50,665.91 C241.12,663.73 243.26,663.58 273.87,663.23 C301.13,662.91 307.39,663.11 313.58,664.48 C323.29,666.65 331.87,671.05 336.83,676.43 C343.54,683.71 343.65,685.00 339.83,713.01 L 336.50 737.50 L 289.95 737.76 L 243.41 738.02 L 241.18 754.26 C238.33,775.03 238.34,775.26 242.03,778.37 C246.00,781.71 249.56,782.28 263.72,781.86 C274.47,781.53 275.92,781.26 280.24,778.71 C284.72,776.08 285.40,775.03 286.22,769.50 C286.81,765.47 317.39,757.05 326.10,758.52 C334.78,759.98 336.53,765.39 331.77,776.00 C325.72,789.48 311.62,800.46 293.56,805.77 C287.52,807.54 236.26,808.44 226.53,806.94 ZM 295.61 704.50 C296.42,699.63 296.46,696.91 295.74,695.54 C292.99,690.32 286.47,688.00 274.61,688.00 C263.82,688.00 257.37,689.62 253.34,693.36 C250.42,696.07 249.77,697.57 248.62,704.27 L 247.28 712.04 L 270.87 711.77 L 294.46 711.50 L 295.61 704.50 ZM 639.20 806.92 C620.99,804.12 606.49,793.78 604.53,782.19 C604.13,779.79 606.22,763.19 610.45,735.16 C614.05,711.34 617.00,691.66 617.00,691.42 C617.00,691.19 613.17,691.00 608.50,691.00 C602.37,691.00 600.00,690.65 600.00,689.75 C600.00,689.06 600.75,683.21 601.66,676.75 L 603.32 665.00 L 611.59 665.00 C620.94,665.00 620.16,665.75 622.03,655.00 C622.65,651.42 623.99,646.59 625.01,644.27 C627.87,637.76 635.87,630.44 644.72,626.24 C651.51,623.01 653.55,622.52 661.79,622.16 C666.94,621.94 671.58,622.18 672.10,622.70 C672.68,623.28 671.90,630.87 670.02,642.89 C668.36,653.48 667.00,662.78 667.00,663.57 C667.00,664.70 668.79,665.00 675.50,665.00 C680.17,665.00 684.00,665.28 684.00,665.63 C684.00,666.64 680.98,686.27 680.45,688.75 C679.99,690.87 679.46,691.00 671.59,691.00 C663.73,691.00 663.19,691.14 662.70,693.25 C660.96,700.85 651.83,773.20 652.36,775.28 C653.49,779.79 659.93,782.00 671.95,782.00 L 682.28 782.00 L 681.61 787.75 C680.00,801.68 678.92,805.78 676.66,806.48 C672.96,807.61 645.82,807.93 639.20,806.92 ZM 862.92 807.58 C862.34,807.01 882.39,666.28 883.15,665.52 C883.49,665.18 889.43,664.45 896.36,663.90 C911.41,662.69 921.87,663.79 926.26,667.03 L 929.17 669.18 L 937.83 666.34 C946.22,663.59 947.15,663.50 967.00,663.52 L 987.50 663.53 L 996.15 666.82 C1000.90,668.63 1005.61,671.02 1006.61,672.13 C1008.26,673.95 1008.30,674.39 1006.95,676.82 C1005.04,680.26 994.73,687.20 987.29,690.04 C979.47,693.03 970.04,693.24 967.01,690.50 C965.01,688.70 963.38,688.50 950.65,688.50 C937.87,688.50 936.09,688.72 932.26,690.76 C929.94,692.01 927.38,694.03 926.58,695.26 C925.66,696.68 922.54,716.71 918.05,750.00 C914.15,778.88 910.71,803.74 910.40,805.25 L 909.84 808.00 L 886.59 808.00 C873.80,808.00 863.15,807.81 862.92,807.58 ZM 359.50 591.13 C344.77,584.43 342.12,564.47 354.59,554.19 C362.84,547.39 376.13,547.66 384.27,554.79 C385.95,556.27 385.90,556.49 383.37,559.14 L 380.70 561.92 L 377.69 559.78 C373.33,556.67 365.46,556.29 361.19,558.97 C355.24,562.70 353.14,572.45 356.96,578.70 C360.14,583.91 363.50,585.43 371.17,585.11 C374.49,584.97 380.00,580.48 380.00,577.91 C380.00,576.24 379.24,576.00 374.00,576.00 L 368.00 576.00 L 368.00 572.50 L 368.00 569.00 L 379.06 569.00 L 390.12 569.00 L 389.44 573.75 C388.48,580.41 386.82,583.99 382.95,587.76 C377.41,593.15 367.17,594.63 359.50,591.13 ZM 426.71 592.38 C426.32,591.99 426.00,582.25 426.00,570.75 L 426.00 549.83 L 437.98 550.17 C449.89,550.50 449.99,550.52 453.09,553.63 C459.27,559.81 457.24,570.90 449.47,573.45 C447.84,573.98 446.33,574.53 446.13,574.66 C445.92,574.80 448.73,578.64 452.37,583.20 C456.01,587.77 458.99,591.84 458.99,592.25 C459.00,592.66 457.00,593.00 454.56,593.00 C450.14,593.00 450.08,592.95 443.31,584.05 C439.56,579.13 436.18,575.08 435.79,575.05 C435.40,575.02 434.95,578.94 434.79,583.75 L 434.50 592.50 L 430.96 592.80 C429.02,592.96 427.11,592.77 426.71,592.38 ZM 447.67 565.38 C449.20,563.04 449.23,562.50 447.91,560.13 C446.62,557.84 445.70,557.46 440.72,557.20 L 435.00 556.90 L 435.00 562.45 L 435.00 568.00 L 440.48 568.00 C445.28,568.00 446.16,567.68 447.67,565.38 ZM 502.85 591.04 C500.84,589.95 498.14,587.35 496.85,585.28 C494.69,581.81 494.47,580.22 494.16,565.75 L 493.82 550.00 L 498.41 550.00 L 503.00 550.00 L 503.00 565.33 C503.00,580.18 503.07,580.72 505.38,582.89 C509.89,587.12 517.98,585.35 519.95,579.71 C520.53,578.05 521.00,570.69 521.00,563.35 L 521.00 550.00 L 525.00 550.00 L 529.00 550.00 L 529.00 565.04 C529.00,581.97 527.90,585.80 521.82,590.13 C517.30,593.35 507.92,593.79 502.85,591.04 ZM 568.00 571.50 L 568.00 550.00 L 578.25 550.00 C586.00,550.00 589.35,550.43 592.00,551.75 C600.70,556.10 600.95,569.05 592.45,574.62 C591.00,575.57 586.98,576.48 582.97,576.77 L 576.00 577.27 L 576.00 585.13 L 576.00 593.00 L 572.00 593.00 L 568.00 593.00 L 568.00 571.50 ZM 587.78 568.44 C589.33,567.36 590.00,565.87 590.00,563.51 C590.00,558.63 587.85,557.00 581.43,557.00 L 576.00 557.00 L 576.00 563.50 L 576.00 570.00 L 580.78 570.00 C583.48,570.00 586.52,569.32 587.78,568.44 ZM 645.08 590.35 C624.95,580.32 632.74,549.05 655.38,549.01 C669.28,548.98 680.43,563.05 676.97,576.24 C673.24,590.41 658.39,596.99 645.08,590.35 ZM 664.18 582.34 C668.97,578.00 670.29,571.03 667.56,564.49 C663.52,554.83 648.36,554.60 643.44,564.12 C640.80,569.22 641.88,577.34 645.71,581.17 C650.63,586.09 659.42,586.65 664.18,582.34 ZM 488.00 516.57 C468.62,513.10 451.94,507.00 435.15,497.22 C430.10,494.29 430.52,493.85 440.00,492.04 C447.45,490.62 450.00,489.49 450.00,487.60 C450.00,485.81 441.17,454.83 440.45,454.12 C440.14,453.81 437.22,452.59 433.96,451.41 C426.99,448.89 418.90,444.14 413.42,439.37 L 409.50 435.95 L 416.17 439.52 C423.07,443.22 430.59,445.01 435.92,444.22 L 439.00 443.77 L 439.04 435.14 C439.07,430.39 439.69,420.88 440.43,414.00 C441.19,406.95 441.40,400.80 440.93,399.90 C440.47,399.02 436.98,395.19 433.19,391.40 C426.44,384.64 422.00,377.85 422.00,374.29 C422.01,371.45 425.65,366.23 428.74,364.63 C430.30,363.83 433.35,362.87 435.53,362.49 L 439.50 361.82 L 436.84 364.16 C430.77,369.52 431.05,374.76 437.77,381.22 C443.55,386.78 450.28,390.56 464.01,395.97 C493.91,407.74 512.96,410.15 533.50,404.76 C560.95,397.55 582.91,387.25 589.13,378.66 C592.90,373.46 592.81,369.99 588.79,365.41 L 585.57 361.75 L 589.04 362.48 C597.66,364.30 602.00,368.41 602.00,374.75 C602.00,378.74 597.27,385.77 589.41,393.48 L 582.72 400.03 L 583.34 405.77 C583.68,408.92 584.51,418.81 585.17,427.75 L 586.38 444.00 L 588.94 444.15 C596.79,444.59 603.83,442.68 610.50,438.29 C616.62,434.26 612.62,438.46 605.47,443.56 C602.09,445.97 595.77,449.31 591.42,450.98 L 583.50 454.02 L 578.91 470.51 C573.44,490.14 573.43,490.12 583.72,492.01 C593.49,493.81 593.94,494.26 588.85,497.22 C574.81,505.40 557.92,511.99 542.00,515.53 C531.81,517.79 498.43,518.43 488.00,516.57 ZM 530.91 500.93 C540.11,498.95 542.97,495.18 546.00,481.02 C547.04,476.13 548.88,470.18 550.07,467.81 C552.85,462.30 560.36,451.68 565.19,446.42 C569.98,441.22 575.75,431.64 577.08,426.72 C578.74,420.52 576.22,416.00 571.08,416.00 C567.98,416.00 566.54,417.40 562.67,424.18 C560.60,427.80 558.76,429.46 554.48,431.55 C549.53,433.98 548.16,434.20 541.23,433.76 C531.26,433.12 525.44,430.52 517.93,423.35 L 512.00 417.70 L 506.07 423.35 C498.59,430.48 492.73,433.12 482.91,433.75 C471.27,434.50 465.91,431.47 458.64,420.01 C455.24,414.63 449.24,414.59 447.03,419.93 C444.80,425.32 450.11,436.80 459.79,447.50 C469.03,457.71 478.00,473.90 478.00,480.36 C478.00,484.59 480.92,492.48 483.73,495.84 C485.66,498.15 488.06,499.60 491.51,500.53 C497.65,502.17 523.85,502.44 530.91,500.93 ZM 369.31 442.63 C372.44,436.72 375.00,431.32 375.00,430.62 C375.00,429.92 373.82,426.45 372.38,422.92 C368.21,412.70 364.23,395.34 362.98,381.91 C359.72,346.85 369.69,310.45 390.48,281.50 C398.05,270.95 416.52,252.09 417.87,253.53 C418.36,254.07 423.37,268.00 429.00,284.50 C440.35,317.72 447.63,335.51 454.76,347.39 C460.45,356.85 472.08,369.01 480.99,374.79 C489.16,380.09 488.05,380.17 478.15,375.00 C463.91,367.56 448.12,353.97 438.53,340.92 C435.93,337.39 433.68,334.37 433.53,334.20 C433.37,334.04 431.98,335.90 430.44,338.34 L 427.64 342.77 L 420.01 335.07 C410.54,325.52 404.01,322.00 395.74,322.00 C392.51,322.00 389.03,322.45 388.01,323.00 C385.79,324.18 380.83,336.63 377.51,349.34 C373.53,364.59 373.37,363.86 381.40,366.57 C385.20,367.85 389.92,370.19 391.90,371.77 C396.57,375.50 401.40,382.67 403.50,388.99 L 405.16 394.01 L 398.33 404.02 C394.57,409.53 390.94,414.84 390.25,415.83 C389.20,417.35 389.48,418.25 392.08,421.79 C393.76,424.08 394.89,426.37 394.57,426.88 C394.26,427.39 387.17,433.56 378.82,440.59 L 363.63 453.38 L 369.31 442.63 ZM 644.38 439.71 L 629.26 426.50 L 632.13 422.32 C633.71,420.02 635.00,417.84 635.00,417.48 C635.00,417.12 631.62,411.95 627.50,406.00 C623.30,399.95 620.01,394.15 620.02,392.84 C620.05,389.61 623.33,382.68 627.55,376.93 C631.27,371.87 639.85,366.68 646.61,365.41 C650.58,364.67 650.73,363.76 648.46,354.00 C646.45,345.35 643.34,335.79 640.24,328.73 C637.47,322.41 636.14,321.64 627.96,321.63 C621.05,321.61 614.56,325.30 605.26,334.54 L 597.01 342.73 L 594.26 338.37 C592.74,335.97 591.28,334.02 591.00,334.04 C590.72,334.06 589.23,336.08 587.67,338.54 C580.57,349.75 560.43,367.76 547.00,374.92 C540.84,378.20 534.05,380.89 537.39,378.73 C538.43,378.05 541.85,375.82 544.99,373.77 C553.07,368.48 564.71,355.90 570.23,346.46 C577.58,333.92 583.22,320.08 595.20,285.25 C601.30,267.51 606.61,253.00 607.01,253.00 C607.41,253.00 611.77,256.99 616.69,261.86 C649.00,293.80 665.34,337.91 661.10,381.71 C659.78,395.34 655.77,412.75 651.62,422.92 C650.18,426.45 649.00,429.79 649.00,430.34 C649.00,430.89 651.49,436.21 654.54,442.17 C657.59,448.13 659.95,452.98 659.79,452.96 C659.63,452.95 652.70,446.98 644.38,439.71 ZM 506.50 363.12 C498.69,361.06 489.66,354.42 482.69,345.60 L 479.50 341.57 L 484.26 344.84 C486.87,346.63 492.50,349.77 496.76,351.80 C503.59,355.07 505.38,355.50 512.00,355.47 C520.90,355.43 527.89,352.98 537.55,346.51 C545.15,341.41 544.63,343.21 536.00,351.84 C526.67,361.17 515.43,365.46 506.50,363.12 ZM 545.19 292.30 C538.97,288.27 529.38,284.53 522.92,283.59 L 518.34 282.93 L 515.49 269.96 C513.92,262.83 512.38,257.00 512.06,257.00 C511.73,257.00 510.18,262.81 508.60,269.91 L 505.72 282.83 L 499.34 284.03 C493.40,285.15 483.13,289.53 476.79,293.65 C475.30,294.62 473.92,295.21 473.72,294.96 C472.61,293.57 460.91,228.70 461.63,228.01 C462.90,226.80 475.17,223.37 485.50,221.34 C492.03,220.05 499.30,219.57 512.00,219.57 C530.75,219.57 540.02,220.84 555.80,225.60 C562.55,227.63 564.01,228.41 563.60,229.80 C563.33,230.73 560.35,245.89 556.98,263.49 C553.62,281.08 550.78,295.53 550.68,295.60 C550.58,295.67 548.11,294.18 545.19,292.30 ZM 489.85 470.33 C487.02,467.11 486.80,464.52 489.12,461.57 C491.04,459.13 491.79,458.88 495.89,459.27 C498.43,459.52 503.09,460.33 506.25,461.07 C511.09,462.20 512.91,462.20 517.75,461.04 C520.91,460.29 525.70,459.63 528.38,459.59 C532.54,459.51 533.56,459.89 535.24,462.14 C537.00,464.48 537.07,465.08 535.86,467.54 C533.67,472.02 532.02,472.51 524.26,471.05 C517.68,469.81 506.18,470.02 495.48,471.58 C492.34,472.04 491.11,471.77 489.85,470.33 ZM 501.03 447.92 C492.08,443.46 490.51,442.98 487.93,443.87 C485.34,444.78 485.00,444.67 485.00,442.95 C485.00,441.88 485.94,440.06 487.09,438.91 C489.51,436.49 490.82,436.68 501.83,441.07 C505.85,442.68 510.43,444.00 512.00,444.00 C513.57,444.00 518.15,442.68 522.17,441.07 C533.18,436.68 534.49,436.49 536.91,438.91 C538.06,440.06 539.00,441.89 539.00,442.98 C539.00,444.70 538.66,444.82 536.37,443.95 C533.15,442.73 531.92,443.10 523.15,447.92 C512.66,453.69 512.61,453.69 501.03,447.92 Z" fill="rgba(27,54,144,1)"/>
</g>
</svg>