<svg xmlns="http://www.w3.org/2000/svg" width="1212" height="865" viewBox="0 0 1212 865">
<g>
<path d="M 365.83 762.46 C363.03,761.58 360.09,759.71 358.48,757.79 C356.14,755.02 355.87,754.00 356.39,750.16 C356.73,747.72 357.00,744.88 357.00,743.86 C357.00,742.17 357.91,742.00 366.90,742.00 L 376.81 742.00 L 376.27 745.99 C375.44,752.20 376.71,753.00 387.43,753.00 C393.51,753.00 397.23,752.55 398.44,751.67 C399.78,750.69 400.62,747.81 401.59,740.92 C402.32,735.74 402.68,730.71 402.39,729.75 C401.71,727.48 399.81,727.14 386.00,726.77 C373.30,726.43 368.31,724.80 364.68,719.83 C362.79,717.24 362.77,716.83 364.32,706.94 C366.08,695.65 367.35,693.49 374.50,689.66 C378.02,687.78 380.46,687.48 394.87,687.17 C413.34,686.78 417.95,687.78 422.47,693.15 C425.66,696.94 425.69,700.40 422.55,703.55 C420.49,705.60 419.13,706.00 414.13,706.00 C406.37,706.00 405.00,705.40 405.00,702.00 C405.00,698.50 403.69,698.00 394.57,698.00 C385.87,698.00 384.54,699.05 383.51,706.78 C382.49,714.41 383.28,715.00 394.49,715.00 C410.22,715.00 416.63,716.94 421.22,723.09 C423.01,725.49 423.01,725.94 421.12,739.43 C418.90,755.19 417.95,757.12 410.43,760.99 C405.84,763.36 404.56,763.51 388.03,763.72 C374.84,763.89 369.34,763.58 365.83,762.46 ZM 560.53 762.58 C555.18,761.09 550.00,756.40 550.00,753.03 C550.00,751.13 557.39,696.68 558.52,690.25 L 559.09 687.00 L 568.55 687.00 C573.75,687.00 578.00,687.20 578.00,687.45 C578.00,688.45 569.94,746.63 569.57,748.27 C568.82,751.63 571.68,753.00 579.46,753.00 C590.81,753.00 590.01,754.76 595.05,718.50 C597.42,701.45 599.84,687.17 600.43,686.77 C602.21,685.55 607.92,685.91 610.85,687.42 C614.46,689.29 616.00,692.87 616.00,699.41 C616.00,708.25 609.16,753.10 607.41,755.78 C606.54,757.10 603.28,759.38 600.17,760.84 C594.95,763.28 593.34,763.51 580.00,763.72 C570.10,763.88 563.92,763.52 560.53,762.58 ZM 618.27 763.25 C617.33,762.60 618.24,753.89 622.30,724.96 L 627.54 687.50 L 651.02 687.50 C673.49,687.50 674.68,687.60 678.73,689.76 C684.91,693.06 686.13,696.05 684.83,704.75 C683.57,713.25 681.22,717.45 676.46,719.72 L 672.91 721.41 L 676.53 723.27 C682.74,726.46 683.21,729.09 680.74,747.31 L 678.62 763.00 L 668.70 763.00 C661.13,763.00 658.90,762.70 659.27,761.74 C659.54,761.04 660.58,753.57 661.58,745.13 C663.83,726.25 664.16,726.78 650.55,727.22 L 641.58 727.50 L 639.91 738.72 C638.09,750.97 635.21,758.16 630.86,761.31 C627.99,763.39 620.23,764.59 618.27,763.25 ZM 663.01 714.24 C665.18,711.56 666.49,701.29 664.90,699.38 C664.08,698.39 661.16,698.00 654.56,698.00 L 645.36 698.00 L 644.21 706.64 C643.57,711.39 643.33,715.72 643.66,716.26 C644.01,716.83 647.79,717.05 652.78,716.79 C659.91,716.42 661.58,716.00 663.01,714.24 ZM 689.64 763.34 C688.25,762.94 687.91,762.15 688.29,760.16 C688.57,758.70 690.97,741.64 693.64,722.25 L 698.48 687.00 L 708.24 687.00 C713.61,687.00 717.99,687.11 717.97,687.25 C717.96,687.39 715.77,702.50 713.11,720.83 C708.01,755.96 707.76,756.85 701.85,761.26 C699.26,763.20 692.94,764.27 689.64,763.34 ZM 808.42 762.63 C803.80,760.54 802.61,756.59 803.27,745.51 L 803.83 736.12 L 795.40 713.38 C790.76,700.87 786.75,690.42 786.48,690.15 C786.22,689.88 786.00,690.60 786.00,691.75 C786.00,696.67 785.34,697.00 775.45,697.00 C770.32,697.00 765.91,697.34 765.65,697.76 C765.39,698.17 763.33,711.79 761.07,728.01 C758.81,744.23 756.71,758.74 756.40,760.25 L 755.84 763.00 L 746.42 763.00 C739.18,763.00 737.00,762.69 737.00,761.65 C737.00,760.59 742.44,721.53 745.48,700.75 L 746.02 697.00 L 735.45 697.00 L 724.87 697.00 L 725.18 694.28 C725.39,692.51 726.69,690.77 728.92,689.27 L 732.33 686.98 L 769.41 687.24 L 806.49 687.50 L 811.88 702.22 C814.85,710.32 817.62,716.73 818.05,716.47 C818.48,716.21 823.00,709.47 828.11,701.50 L 837.39 687.00 L 846.30 687.00 C853.50,687.00 855.11,687.27 854.68,688.39 C854.39,689.15 847.28,700.29 838.88,713.14 L 823.62 736.50 L 821.79 749.44 C820.78,756.55 819.78,762.55 819.56,762.77 C818.40,763.93 811.09,763.84 808.42,762.63 ZM 433.00 761.83 C428.11,760.44 425.00,757.27 425.00,753.66 C425.00,750.82 432.45,695.50 433.61,689.75 L 434.16 687.00 L 461.58 687.00 C488.33,687.00 489.00,687.05 489.00,689.00 C489.00,691.80 485.81,694.68 481.31,695.93 C479.22,696.51 471.78,696.99 464.80,696.99 L 452.09 697.00 L 451.57 700.25 C450.08,709.48 449.38,716.04 449.83,716.50 C450.11,716.77 456.39,717.00 463.80,717.00 L 477.26 717.00 L 476.64 720.75 C476.30,722.81 476.02,725.06 476.01,725.75 C476.00,726.69 472.54,727.00 462.08,727.00 L 448.16 727.00 L 447.63 729.75 C447.35,731.26 446.61,735.88 446.01,740.00 C445.41,744.12 444.70,748.51 444.44,749.75 L 443.96 752.00 L 461.48 752.00 C480.99,752.00 479.65,751.42 478.36,759.25 L 477.74 763.00 L 457.12 762.91 C445.78,762.86 434.92,762.37 433.00,761.83 ZM 495.76 761.58 C490.51,759.71 487.09,757.28 485.86,754.58 C485.06,752.83 485.71,745.68 488.58,724.97 C492.20,698.79 492.47,697.53 495.24,694.38 C500.20,688.73 506.80,687.00 523.36,687.00 C539.68,687.00 545.44,688.36 549.49,693.17 C552.49,696.74 552.68,699.93 550.09,703.14 C548.38,705.26 547.37,705.50 540.34,705.50 L 532.50 705.50 L 532.16 702.50 C531.97,700.86 531.30,699.17 530.66,698.77 C530.02,698.36 526.08,698.02 521.90,698.02 C515.92,698.00 513.98,698.37 512.75,699.75 C511.69,700.95 510.17,708.96 507.92,725.18 C505.21,744.79 504.87,749.14 505.95,750.43 C506.90,751.59 509.13,752.00 514.40,752.00 C522.48,752.00 526.00,750.34 526.00,746.53 C526.00,741.29 526.56,741.00 536.59,741.00 L 545.96 741.00 L 545.33 745.75 C544.99,748.36 544.34,751.50 543.89,752.72 C542.67,756.03 535.56,760.71 529.90,761.93 C522.79,763.45 500.37,763.22 495.76,761.58 ZM 462.30 657.92 C456.80,656.87 454.30,655.53 449.74,651.17 C445.30,646.92 442.00,638.86 441.99,632.21 C441.98,624.48 465.05,460.61 466.33,459.34 C468.07,457.60 477.78,455.00 482.50,455.00 C490.24,455.00 497.09,457.78 502.10,462.94 C507.65,468.66 510.00,474.89 510.01,483.93 C510.02,491.93 488.13,651.01 486.78,652.71 C485.40,654.45 476.29,657.63 471.00,658.22 C468.52,658.50 464.61,658.36 462.30,657.92 ZM 549.00 653.49 C534.18,650.18 520.99,640.59 518.13,631.03 C516.29,624.89 521.94,587.81 525.81,580.65 C529.31,574.16 536.74,567.68 545.39,563.54 C558.18,557.44 561.80,556.86 592.00,556.11 C617.77,555.47 619.77,555.28 623.74,553.20 C629.19,550.33 630.99,547.47 631.71,540.53 C632.24,535.35 632.07,534.68 629.49,531.99 C625.73,528.06 618.92,526.66 605.93,527.16 C597.14,527.49 594.79,527.94 591.01,530.04 C588.54,531.41 585.62,533.96 584.51,535.72 L 582.50 538.92 L 558.27 538.96 L 534.04 539.00 L 534.63 534.25 C535.96,523.49 543.27,514.91 556.62,508.44 C571.71,501.12 575.49,500.59 613.00,500.54 C642.47,500.51 647.27,500.72 652.92,502.32 C670.26,507.24 681.93,517.60 682.03,528.15 C682.08,533.97 665.69,651.47 664.74,652.11 C663.36,653.04 642.39,655.00 633.94,654.99 C625.01,654.99 619.55,653.63 617.66,650.93 C616.27,648.95 616.20,648.95 607.38,651.63 C599.11,654.14 597.02,654.35 577.00,654.63 C560.94,654.86 553.85,654.57 549.00,653.49 ZM 614.56 625.17 C616.79,623.90 619.14,622.01 619.78,620.98 C620.97,619.07 626.67,578.34 625.86,577.53 C625.61,577.28 622.51,577.99 618.96,579.10 C615.02,580.33 607.04,581.51 598.50,582.13 C581.25,583.39 577.99,584.20 573.69,588.28 C570.58,591.24 570.21,592.24 569.17,600.50 C566.64,620.74 566.65,620.35 568.64,622.79 C572.12,627.07 577.10,628.02 594.50,627.75 C609.16,627.52 610.84,627.31 614.56,625.17 ZM 832.31 653.01 C817.33,649.08 806.97,641.74 803.47,632.56 L 801.63 627.74 L 808.25 578.45 C813.34,540.54 815.34,528.26 816.89,525.22 C821.44,516.30 835.46,507.21 851.50,502.79 C858.98,500.73 861.64,500.59 892.50,500.54 C921.23,500.51 926.34,500.73 932.00,502.29 C949.44,507.10 959.63,515.06 962.08,525.81 C962.71,528.57 961.17,541.84 955.99,578.37 C949.85,621.60 948.77,627.72 946.54,631.52 C940.98,641.00 927.85,649.15 911.98,652.95 C904.34,654.78 900.32,654.98 871.50,654.94 C843.47,654.90 838.61,654.66 832.31,653.01 ZM 891.45 619.58 C893.32,618.80 895.52,617.12 896.34,615.83 C897.32,614.31 899.71,599.09 903.21,572.19 C908.42,532.06 908.52,530.89 906.54,531.44 C900.38,533.12 893.13,533.15 882.74,531.52 C872.53,529.92 871.16,529.90 867.83,531.30 C865.81,532.14 863.43,533.94 862.55,535.29 C861.43,536.99 859.31,550.18 855.58,578.62 C852.64,601.10 850.30,619.59 850.39,619.69 C850.48,619.80 852.34,619.48 854.53,618.97 C860.08,617.68 868.35,617.86 876.00,619.43 C884.76,621.22 887.46,621.25 891.45,619.58 ZM 109.40 650.51 C102.30,648.97 94.43,645.20 91.30,641.84 C88.16,638.47 86.00,632.75 86.00,627.80 C86.00,624.08 107.09,469.15 108.61,461.71 L 109.18 458.92 L 166.34 459.21 L 223.50 459.50 L 231.41 462.20 C245.32,466.93 254.99,475.67 256.42,484.80 C257.32,490.51 252.72,519.63 250.03,525.28 C245.54,534.72 236.15,542.51 224.50,546.49 C222.92,547.03 223.81,547.66 228.73,549.46 C236.52,552.30 241.40,555.98 245.06,561.76 C249.58,568.88 249.68,572.77 246.04,599.00 C243.53,617.06 242.23,623.57 240.44,627.11 C235.43,637.00 221.46,646.00 204.98,649.95 C197.15,651.83 193.41,651.98 156.00,651.91 C126.32,651.86 113.87,651.49 109.40,650.51 ZM 186.66 623.28 C194.11,619.30 194.36,618.60 197.49,593.09 C200.72,566.79 200.63,566.10 193.75,562.97 C189.96,561.25 187.06,561.04 166.92,561.02 L 144.34 561.00 L 140.08 591.25 C137.73,607.89 135.57,622.55 135.28,623.83 L 134.74 626.16 L 158.62 625.83 C181.03,625.52 182.76,625.36 186.66,623.28 ZM 194.58 532.10 C201.48,528.97 202.39,526.96 204.87,509.49 C207.41,491.65 207.24,490.83 200.32,487.41 C197.03,485.77 193.65,485.47 175.81,485.17 L 155.12 484.83 L 154.54 488.16 C153.96,491.50 148.00,532.90 148.00,533.62 C148.00,533.83 157.56,533.99 169.25,533.98 C187.77,533.96 191.02,533.72 194.58,532.10 ZM 299.37 650.05 C288.91,647.26 280.99,642.89 275.66,636.97 C267.89,628.33 267.91,629.90 274.97,578.00 C278.37,552.97 281.57,530.88 282.08,528.89 C284.74,518.49 299.31,507.93 318.10,502.79 C326.07,500.62 328.19,500.50 359.50,500.50 C395.13,500.50 398.53,500.90 410.68,506.45 C416.98,509.34 424.22,515.83 426.50,520.64 C428.76,525.41 428.58,529.66 425.03,555.50 C423.37,567.60 422.00,577.84 422.00,578.25 C422.00,578.66 399.95,579.00 373.00,579.00 C346.05,579.00 324.00,579.32 324.00,579.70 C324.00,580.09 322.85,588.72 321.43,598.88 C318.91,617.08 318.90,617.38 320.77,619.92 C324.05,624.39 330.89,626.08 344.00,625.68 C356.52,625.30 361.42,623.88 366.25,619.26 C368.15,617.44 369.00,615.62 369.00,613.36 L 369.00 610.10 L 379.75 606.64 C394.02,602.04 401.51,600.67 409.58,601.19 C417.88,601.71 420.52,604.11 419.68,610.35 C418.96,615.74 413.82,625.79 408.96,631.30 C403.13,637.93 391.32,645.47 381.71,648.69 L 373.50 651.45 L 340.00 651.70 C309.77,651.93 305.80,651.77 299.37,650.05 ZM 378.98 544.12 C380.07,537.14 380.02,535.96 378.54,533.71 C375.27,528.72 370.84,527.50 356.00,527.51 C344.16,527.53 342.01,527.79 338.50,529.66 C332.45,532.88 331.27,534.77 329.72,543.75 L 328.29 552.00 L 353.02 552.00 L 377.76 552.00 L 378.98 544.12 ZM 734.21 650.51 C715.75,646.39 703.03,634.96 703.01,622.44 C703.00,619.66 705.92,598.07 709.50,574.46 C713.08,550.85 716.00,531.19 716.00,530.77 C716.00,530.35 711.95,530.00 707.00,530.00 C701.92,530.00 698.00,529.58 698.00,529.04 C698.00,527.83 700.93,508.26 701.55,505.29 C701.98,503.24 702.66,503.06 710.74,502.79 L 719.45 502.50 L 721.14 493.38 C722.06,488.37 723.76,482.43 724.90,480.19 C730.10,469.99 744.35,460.37 757.78,457.97 C764.41,456.78 773.42,457.26 774.41,458.85 C774.77,459.44 770.83,486.73 768.49,499.75 L 767.91 503.00 L 776.95 503.00 C787.54,503.00 786.81,501.45 784.16,518.50 L 782.44 529.50 L 773.22 529.79 C768.15,529.95 764.00,530.49 764.00,530.99 C764.00,531.49 761.51,549.98 758.46,572.07 C755.42,594.17 752.87,613.76 752.80,615.61 C752.54,622.61 760.05,626.00 775.79,626.00 C783.28,626.00 785.11,626.28 784.70,627.35 C784.41,628.09 783.61,633.06 782.91,638.40 C782.21,643.74 781.08,648.87 780.40,649.81 C779.32,651.28 776.70,651.53 759.83,651.71 C746.21,651.85 738.64,651.50 734.21,650.51 ZM 974.00 650.25 C974.00,648.32 993.75,508.79 994.51,505.37 C995.13,502.56 997.04,502.15 1013.00,501.40 C1028.04,500.69 1036.88,501.82 1041.22,505.01 L 1043.93 507.01 L 1051.45 504.49 C1061.98,500.95 1073.34,499.65 1088.50,500.25 C1099.68,500.68 1102.87,501.21 1111.29,504.02 C1121.88,507.54 1126.00,510.07 1126.00,513.02 C1126.00,518.34 1108.00,529.15 1095.63,531.27 C1089.15,532.38 1088.59,532.32 1084.65,530.05 C1081.05,527.97 1078.88,527.60 1068.35,527.23 C1054.16,526.73 1046.85,528.31 1042.30,532.85 C1039.47,535.68 1039.45,535.80 1031.71,593.09 C1027.45,624.67 1023.97,650.84 1023.98,651.25 C1023.99,651.66 1012.75,652.00 999.00,652.00 C975.86,652.00 974.00,651.87 974.00,650.25 ZM 583.50 439.89 C567.03,437.52 546.12,430.30 531.54,421.96 C523.84,417.55 522.41,416.00 526.05,416.00 C530.64,416.00 542.16,412.74 542.72,411.29 C543.04,410.45 541.68,404.08 539.71,397.13 C537.73,390.19 535.62,382.62 535.03,380.31 C534.03,376.42 533.55,375.98 528.23,373.99 C519.64,370.78 512.03,366.46 507.00,361.95 L 502.50 357.92 L 506.50 360.29 C514.22,364.89 521.24,366.70 529.25,366.18 L 532.00 366.00 L 532.01 356.75 C532.01,351.66 532.45,343.67 532.99,339.00 C535.06,320.96 535.21,321.66 527.71,314.52 C519.70,306.89 515.00,299.80 515.00,295.34 C515.00,291.03 519.67,285.71 524.82,284.17 C531.36,282.21 532.12,282.68 528.40,286.40 C526.53,288.27 525.00,290.82 525.00,292.06 C525.00,295.74 529.47,302.28 534.41,305.83 C544.41,313.01 567.92,322.25 588.50,327.09 C605.57,331.11 624.54,328.73 649.86,319.39 C681.39,307.77 693.33,296.13 683.80,286.30 C681.07,283.48 680.89,283.01 682.55,283.04 C685.52,283.11 691.90,285.60 694.03,287.53 C695.07,288.47 696.43,290.77 697.04,292.64 C698.68,297.60 695.36,303.69 685.68,313.44 L 677.76 321.43 L 678.35 327.46 C678.67,330.78 679.48,340.78 680.15,349.67 C681.37,365.84 681.37,365.84 683.93,366.34 C688.19,367.16 696.10,365.23 703.25,361.60 C706.96,359.72 710.00,358.34 710.00,358.52 C710.00,358.71 706.58,361.36 702.40,364.41 C697.98,367.64 691.39,371.26 686.65,373.07 L 678.50 376.17 L 673.69 393.33 C668.04,413.53 667.82,412.83 680.42,414.99 C684.59,415.70 688.00,416.59 688.00,416.96 C688.00,418.18 673.16,426.17 663.64,430.09 C652.92,434.51 638.76,438.37 627.63,439.92 C618.63,441.17 592.27,441.15 583.50,439.89 ZM 623.49 424.01 C626.79,423.47 630.62,422.19 631.99,421.17 C635.82,418.35 638.82,412.13 640.44,403.67 C641.24,399.46 642.82,393.93 643.95,391.39 C646.32,386.03 653.36,375.91 659.67,368.81 C665.18,362.60 668.47,357.41 671.06,350.84 C673.46,344.75 672.92,340.65 669.41,338.35 C665.72,335.93 661.49,338.09 658.55,343.89 C655.67,349.57 653.78,351.33 647.55,354.08 C643.57,355.84 641.35,356.16 635.58,355.78 C626.49,355.19 620.55,352.53 612.42,345.39 L 605.96 339.72 L 600.23 344.91 C592.38,352.01 585.39,355.21 576.47,355.78 C570.65,356.16 568.43,355.84 564.45,354.08 C558.22,351.33 556.33,349.57 553.45,343.89 C547.57,332.31 536.09,337.50 540.42,349.77 C542.65,356.10 546.82,362.72 552.74,369.36 C558.89,376.25 566.32,387.12 568.58,392.55 C569.45,394.62 570.80,399.66 571.58,403.76 C574.01,416.45 578.21,422.29 585.78,423.53 C587.83,423.86 590.17,424.28 591.00,424.45 C594.63,425.22 618.05,424.90 623.49,424.01 ZM 456.11 374.47 C456.34,373.94 458.95,368.74 461.91,362.93 L 467.28 352.35 L 464.12 344.16 C442.57,288.28 456.38,224.72 499.35,181.89 C504.81,176.45 509.60,172.00 510.00,172.00 C510.40,172.00 515.12,184.94 520.48,200.75 C534.37,241.67 542.02,259.78 551.01,273.00 C555.99,280.34 569.57,293.17 576.45,297.06 C582.36,300.40 583.56,301.54 579.53,300.01 C574.80,298.21 568.45,294.68 561.00,289.70 C552.28,283.88 533.60,265.66 529.22,258.72 L 526.21 253.93 L 523.85 257.65 C522.56,259.69 521.22,261.79 520.87,262.30 C520.52,262.82 516.66,259.66 512.29,255.29 C501.13,244.13 491.70,240.19 482.13,242.68 C479.08,243.48 478.43,244.34 475.41,251.65 C471.95,260.01 467.46,275.90 466.85,281.94 C466.51,285.32 466.59,285.41 472.00,287.02 C479.83,289.36 483.13,291.29 487.42,296.04 C491.48,300.54 497.02,311.26 496.96,314.50 C496.94,315.60 493.36,321.64 489.02,327.93 L 481.12 339.36 L 484.06 343.08 C485.68,345.12 487.00,347.22 487.00,347.74 C487.00,348.27 484.41,350.92 481.25,353.62 C461.05,370.92 455.73,375.33 456.11,374.47 ZM 744.26 365.06 C738.08,359.62 731.17,353.59 728.90,351.65 L 724.79 348.12 L 727.98 343.68 L 731.17 339.23 L 722.96 327.25 L 714.76 315.26 L 715.99 311.38 C717.51,306.59 721.11,300.22 724.70,295.95 C727.55,292.55 737.24,287.43 742.75,286.39 C744.54,286.05 746.00,285.18 746.00,284.45 C746.00,281.51 742.80,268.01 740.32,260.51 C734.63,243.30 733.48,242.00 723.92,242.00 C716.55,242.00 710.64,245.28 701.00,254.74 C691.65,263.90 692.57,263.75 687.77,256.95 C686.18,254.69 685.97,254.64 684.97,256.26 C681.54,261.85 670.60,274.14 664.07,279.74 C654.53,287.91 647.45,292.75 638.27,297.36 C629.81,301.62 627.57,302.12 634.00,298.32 C647.18,290.52 658.29,279.00 666.34,264.76 C673.31,252.43 679.13,237.93 690.69,204.06 C696.42,187.25 701.46,173.15 701.89,172.72 C702.31,172.29 707.81,177.24 714.10,183.72 C736.28,206.56 749.12,230.81 755.18,261.27 C756.97,270.26 757.41,275.89 757.40,289.50 C757.38,311.61 754.88,325.32 746.97,346.62 L 744.70 352.74 L 750.39 363.87 C753.52,369.99 755.95,374.99 755.79,374.97 C755.63,374.96 750.44,370.50 744.26,365.06 ZM 599.50 283.65 C597.30,282.93 593.95,281.53 592.06,280.54 C588.16,278.51 578.83,269.98 575.69,265.57 L 573.60 262.63 L 578.05 265.68 C587.30,272.01 599.58,277.00 605.91,276.99 C613.22,276.98 626.37,271.66 634.60,265.37 C640.78,260.66 638.81,264.08 630.68,272.21 C620.40,282.47 608.84,286.72 599.50,283.65 ZM 566.10 210.75 C558.05,170.02 554.04,147.56 554.70,146.90 C556.26,145.34 578.61,140.16 589.00,138.95 C601.57,137.48 621.98,138.20 633.93,140.51 C645.31,142.72 658.00,146.81 658.02,148.29 C658.04,149.93 645.72,214.38 645.27,214.96 C645.08,215.21 643.70,214.62 642.21,213.65 C636.05,209.63 625.09,204.95 619.00,203.73 L 612.50 202.42 L 609.50 189.22 C607.85,181.95 606.28,176.01 606.00,176.01 C605.72,176.00 604.15,181.95 602.50,189.22 L 599.50 202.43 L 592.50 204.04 C584.25,205.93 577.76,208.69 571.60,212.93 L 567.14 216.00 L 566.10 210.75 ZM 582.65 391.91 C580.27,388.52 580.62,385.45 583.63,383.07 C586.75,380.62 589.75,380.49 596.41,382.51 C599.11,383.33 603.42,384.00 606.00,384.00 C608.58,384.00 612.89,383.33 615.59,382.51 C622.25,380.49 625.25,380.62 628.37,383.07 C631.38,385.45 631.73,388.52 629.35,391.91 C627.79,394.14 627.36,394.22 621.10,393.43 C617.47,392.98 610.67,392.61 606.00,392.61 C601.33,392.61 594.53,392.98 590.90,393.43 C584.64,394.22 584.21,394.14 582.65,391.91 ZM 594.42 369.85 C585.74,365.30 584.29,364.83 581.81,365.77 C579.22,366.74 579.00,366.64 579.00,364.44 C579.00,362.99 579.99,361.40 581.52,360.40 C583.91,358.83 584.40,358.88 591.27,361.45 C595.25,362.94 600.19,364.67 602.25,365.29 C606.38,366.53 608.18,366.15 620.73,361.45 C627.60,358.88 628.09,358.83 630.48,360.40 C632.01,361.40 633.00,362.99 633.00,364.44 C633.00,366.64 632.78,366.74 630.19,365.77 C627.71,364.83 626.26,365.30 617.58,369.85 C612.19,372.68 606.98,375.00 606.00,375.00 C605.02,375.00 599.81,372.68 594.42,369.85 Z" fill="rgba(160,160,159,1)"/>
</g>
</svg>