<svg xmlns="http://www.w3.org/2000/svg" width="1024" height="1024" viewBox="0 0 1024 1024">
<g>
<path d="M 444.39 863.02 C440.48,861.44 438.00,857.12 438.00,851.89 C438.00,849.23 440.27,830.73 443.04,810.78 C446.99,782.34 448.43,774.23 449.73,773.25 C450.64,772.56 453.51,772.00 456.11,772.00 C459.72,772.00 461.56,772.60 463.86,774.53 C469.59,779.36 469.60,780.06 464.03,820.64 C461.24,840.92 458.75,858.47 458.49,859.65 C457.71,863.18 449.58,865.12 444.39,863.02 ZM 488.28 862.05 C482.01,861.06 474.94,857.13 473.04,853.58 C471.88,851.40 471.86,849.42 472.93,841.24 C474.31,830.66 474.94,828.90 478.81,824.75 C483.35,819.88 490.87,817.79 505.93,817.23 C518.41,816.76 519.53,816.56 521.75,814.34 C524.82,811.27 524.47,807.06 521.00,805.23 C519.44,804.41 516.10,804.05 512.12,804.27 C506.65,804.56 505.40,805.00 503.41,807.31 C501.17,809.91 500.76,810.00 490.55,810.00 L 480.00 810.00 L 480.00 807.13 C480.00,801.33 487.80,795.21 498.05,792.98 C501.52,792.22 509.21,791.91 518.58,792.14 C532.22,792.47 534.00,792.73 538.44,795.01 C541.65,796.67 543.93,798.71 545.11,801.01 C546.86,804.44 546.83,805.01 543.03,832.39 C540.46,850.97 538.72,860.56 537.83,861.12 C535.87,862.37 518.60,862.20 517.32,860.92 C516.55,860.15 515.13,860.15 512.37,860.91 C506.89,862.43 494.43,863.02 488.28,862.05 ZM 515.98 848.72 C518.59,847.40 519.07,845.73 520.50,833.10 C521.19,827.10 521.11,826.75 519.37,827.47 C518.34,827.89 513.76,828.59 509.20,829.04 C499.49,829.97 496.29,831.67 495.60,836.24 C494.04,846.55 494.06,846.93 496.29,848.49 C498.98,850.37 512.39,850.53 515.98,848.72 ZM 617.20 861.95 C614.29,861.43 610.63,860.34 609.07,859.54 C605.25,857.56 601.00,852.35 601.02,849.67 C601.03,848.48 602.37,837.83 604.00,826.02 C607.17,802.97 607.67,801.55 613.99,797.25 C619.85,793.26 624.50,792.50 643.03,792.50 C659.85,792.50 660.76,792.60 665.50,795.04 C668.36,796.52 671.23,798.94 672.32,800.81 C674.18,803.99 674.17,804.23 670.90,827.23 C667.63,850.30 667.59,850.45 664.23,854.17 C658.81,860.17 652.10,862.16 636.00,862.56 C628.58,862.75 620.12,862.47 617.20,861.95 ZM 642.47 845.65 C643.97,844.55 644.76,840.95 646.63,826.90 C647.90,817.33 648.95,808.83 648.97,808.00 C648.99,806.77 647.29,806.50 639.55,806.50 C633.83,806.50 629.66,806.95 628.97,807.64 C628.13,808.47 623.27,839.21 623.03,845.20 C623.01,845.59 626.04,846.07 629.75,846.26 C633.46,846.45 637.43,846.70 638.56,846.80 C639.69,846.91 641.45,846.39 642.47,845.65 ZM 284.76 859.84 C280.26,858.59 275.98,853.86 276.04,850.17 C276.07,848.70 278.43,830.85 281.30,810.50 L 286.52 773.50 L 312.51 773.50 C340.47,773.50 343.37,773.92 349.11,778.75 C353.63,782.55 354.11,784.75 352.52,794.53 C350.95,804.25 348.28,808.78 342.33,811.83 L 338.77 813.66 L 341.90 814.96 C346.61,816.91 350.00,821.48 349.98,825.83 C349.96,831.29 347.34,847.50 346.11,849.79 C344.64,852.54 339.48,856.75 335.13,858.73 C332.17,860.08 327.52,860.43 310.00,860.63 C297.42,860.78 286.95,860.45 284.76,859.84 ZM 323.64 846.79 C325.47,844.95 328.46,826.03 327.43,822.77 C326.65,820.32 324.03,819.87 312.51,820.21 L 302.53 820.50 L 300.84 832.00 C299.91,838.33 299.12,844.78 299.07,846.34 L 299.00 849.17 L 310.47 848.84 C319.63,848.57 322.28,848.16 323.64,846.79 ZM 324.95 806.25 C328.65,804.37 329.28,802.94 330.43,793.68 L 331.15 787.96 L 327.61 786.48 C323.11,784.60 308.15,784.43 307.48,786.25 C306.64,788.51 304.35,807.02 304.85,807.52 C305.12,807.78 308.97,808.00 313.42,808.00 C319.13,808.00 322.51,807.48 324.95,806.25 ZM 370.71 859.47 C368.62,858.70 365.64,857.17 364.09,856.06 C358.76,852.27 358.64,850.65 361.98,826.66 C363.64,814.67 365.41,804.10 365.91,803.18 C367.50,800.23 371.38,797.16 376.51,794.80 C381.15,792.66 382.81,792.50 400.03,792.50 C417.87,792.50 418.74,792.59 423.53,795.03 C431.36,799.02 432.21,801.71 430.14,816.00 L 428.47 827.50 L 406.34 827.77 L 384.20 828.04 L 382.97 836.70 C381.77,845.19 381.79,845.41 383.98,847.19 C385.61,848.50 387.90,849.00 392.36,848.99 C399.46,848.97 402.99,847.50 404.74,843.86 C406.90,839.34 424.06,835.95 426.97,839.46 C430.46,843.67 421.31,855.24 411.62,858.87 C406.66,860.73 403.91,860.99 390.21,860.93 C379.43,860.88 373.31,860.42 370.71,859.47 ZM 408.50 811.03 C408.50,807.26 408.11,806.36 406.00,805.29 C402.68,803.61 395.74,803.66 391.59,805.40 C387.68,807.03 387.48,807.31 386.58,812.28 L 385.90 816.07 L 397.20 815.78 L 408.50 815.50 L 408.50 811.03 ZM 568.99 860.07 C561.36,857.74 556.00,852.78 556.00,848.02 C556.00,846.53 557.35,836.47 559.00,825.66 C560.65,814.86 562.00,805.79 562.00,805.51 C562.00,805.23 560.16,805.00 557.91,805.00 L 553.81 805.00 L 554.52 799.75 C554.91,796.86 555.43,794.16 555.67,793.75 C555.92,793.34 557.83,793.00 559.93,793.00 C563.64,793.00 563.76,792.88 564.42,788.80 C565.39,782.72 568.27,778.72 573.86,775.67 C577.37,773.76 580.23,773.00 583.90,773.00 C588.71,773.00 589.01,773.14 588.55,775.25 C587.52,779.96 586.00,789.44 586.00,791.18 C586.00,792.64 586.80,793.00 590.05,793.00 L 594.09 793.00 L 593.49 796.75 C592.13,805.21 592.26,805.00 588.03,805.00 C583.50,805.00 584.27,802.72 581.02,825.83 C577.81,848.59 577.94,849.00 588.03,849.00 L 593.19 849.00 L 592.48 854.25 C592.09,857.14 591.57,859.84 591.33,860.25 C590.75,861.22 572.28,861.07 568.99,860.07 ZM 679.00 860.25 C678.98,857.07 688.39,794.32 688.98,793.69 C690.19,792.37 706.25,792.52 708.75,793.86 C710.56,794.84 712.03,794.77 716.19,793.54 C725.98,790.63 742.44,792.25 746.93,796.56 C748.17,797.75 748.11,798.22 746.44,800.07 C742.15,804.80 733.28,807.43 728.50,805.38 C721.48,802.37 709.78,804.60 708.72,809.14 C708.42,810.44 706.70,822.64 704.89,836.25 L 701.61 861.00 L 690.30 861.00 C684.09,861.00 679.00,860.66 679.00,860.25 ZM 527.00 752.67 C518.87,750.83 512.66,747.32 506.46,741.05 C495.25,729.69 491.25,721.43 477.02,680.25 C474.12,671.86 471.41,665.00 470.99,665.00 C470.57,665.00 463.93,671.64 456.24,679.75 L 442.25 694.50 L 439.11 721.37 C437.38,736.15 435.73,748.64 435.43,749.12 C434.82,750.10 385.00,750.36 385.00,749.38 C385.00,749.04 391.10,704.84 398.56,651.15 C406.94,590.88 412.57,553.26 413.30,552.81 C415.31,551.57 424.95,550.72 430.10,551.33 C444.36,553.01 453.56,562.86 456.09,579.13 C457.32,587.04 456.94,593.17 453.93,613.80 C452.87,621.12 452.00,627.97 452.00,629.02 C452.00,630.22 465.51,616.63 488.75,592.05 L 525.50 553.18 L 550.88 553.09 L 576.27 553.00 L 568.88 560.77 C564.82,565.04 549.58,581.06 535.00,596.36 C520.42,611.67 508.56,624.71 508.62,625.34 C508.69,625.98 518.93,653.83 531.37,687.23 C543.82,720.63 554.00,748.40 554.00,748.95 C554.00,750.25 544.99,752.75 538.00,753.40 C534.97,753.69 530.03,753.36 527.00,752.67 ZM 754.82 751.66 C741.59,747.94 734.57,735.53 734.65,716.00 C734.68,710.64 736.75,690.88 739.41,670.69 C742.00,650.99 743.98,634.44 743.80,633.90 C743.62,633.36 731.97,659.15 717.91,691.21 L 692.34 749.50 L 669.99 749.77 C657.70,749.92 647.29,749.69 646.87,749.27 C646.45,748.85 641.72,722.29 636.37,690.26 C631.02,658.23 626.48,632.18 626.29,632.37 C626.10,632.57 622.56,658.55 618.44,690.11 C614.31,721.68 610.74,748.06 610.50,748.75 C610.17,749.70 604.66,750.00 587.53,750.00 C575.14,750.00 565.00,749.71 565.00,749.35 C565.00,748.99 569.95,713.55 576.01,670.60 C587.48,589.24 589.05,581.01 594.78,572.00 C600.90,562.39 610.16,556.25 621.89,554.02 C627.58,552.94 666.00,552.58 666.00,553.60 C666.00,553.93 670.05,579.58 675.00,610.61 C679.95,641.64 684.01,667.58 684.03,668.26 C684.09,670.52 685.86,666.52 700.95,630.05 C709.18,610.17 717.58,591.12 719.63,587.71 C725.34,578.17 737.98,566.20 747.00,561.78 C760.38,555.24 767.24,553.80 787.63,553.26 L 805.76 552.79 L 805.36 555.14 C805.13,556.44 799.10,600.25 791.95,652.50 C784.81,704.75 778.77,748.04 778.53,748.70 C777.48,751.64 761.74,753.60 754.82,751.66 ZM 258.80 748.92 C239.13,746.84 223.18,736.89 219.41,724.35 C218.16,720.22 218.73,715.11 227.55,651.81 C236.25,589.32 237.25,583.31 239.73,578.76 C243.45,571.92 251.01,565.41 260.50,560.88 C275.11,553.89 276.64,553.67 314.43,553.24 C336.51,552.99 350.57,553.24 354.72,553.96 C380.98,558.54 396.34,575.14 389.21,591.25 C385.01,600.75 373.19,604.21 352.08,602.12 C345.18,601.43 339.41,600.74 339.25,600.58 C339.09,600.42 339.47,597.92 340.09,595.03 C341.53,588.31 340.45,585.81 334.79,582.79 C330.56,580.53 330.04,580.50 297.00,580.54 C253.37,580.60 249.81,581.43 271.61,586.51 C277.74,587.93 283.54,589.67 284.51,590.38 C286.17,591.60 285.78,595.08 277.57,652.53 C267.92,719.99 268.05,716.45 275.18,720.09 C278.37,721.72 281.13,722.00 294.09,722.00 C310.66,722.00 315.22,721.13 320.15,717.02 C323.16,714.50 323.47,713.64 324.93,703.42 L 326.50 692.50 L 351.26 692.23 L 376.03 691.97 L 375.49 695.73 C375.19,697.80 374.28,704.41 373.48,710.41 C372.41,718.31 371.32,722.49 369.51,725.57 C362.55,737.46 343.42,746.94 322.29,749.00 C310.67,750.13 269.73,750.08 258.80,748.92 ZM 496.69 521.91 C478.32,520.39 457.57,515.21 440.69,507.91 C432.42,504.34 415.00,494.81 415.00,493.86 C415.00,493.51 416.69,492.92 418.75,492.54 C430.42,490.43 436.08,488.71 436.99,487.03 C437.70,485.70 436.45,479.93 432.23,465.11 L 426.52 445.00 L 421.51 443.36 C413.90,440.87 404.19,435.74 397.39,430.63 C390.76,425.65 386.11,420.90 391.69,424.81 C400.59,431.05 414.75,435.28 421.27,433.65 C423.64,433.05 423.71,432.74 424.36,419.77 C424.73,412.47 425.49,402.49 426.04,397.59 C428.10,379.48 428.58,381.18 418.88,371.78 C410.17,363.34 404.03,354.40 404.01,350.14 C403.98,343.39 411.09,337.06 420.50,335.44 L 424.50 334.76 L 420.86 338.63 C418.86,340.76 416.91,343.52 416.53,344.78 C415.51,348.18 419.42,355.34 424.84,360.01 C439.96,373.01 489.64,390.00 512.58,390.00 C525.43,390.00 549.70,383.85 572.50,374.81 C589.85,367.94 600.15,361.32 605.25,353.77 C609.35,347.70 609.00,343.64 603.96,338.85 C599.56,334.66 600.12,334.25 607.67,336.15 C610.49,336.86 613.71,338.71 616.11,340.99 C619.51,344.22 620.00,345.26 620.00,349.19 C620.00,355.10 614.95,362.88 604.63,372.89 C600.43,376.96 597.00,381.01 597.00,381.89 C597.00,382.78 597.67,389.80 598.49,397.50 C599.31,405.20 599.98,416.29 599.99,422.13 C600.00,432.31 600.10,432.79 602.25,433.37 C608.79,435.12 620.90,432.34 629.00,427.23 C635.98,422.83 636.78,422.58 633.00,425.98 C627.08,431.31 615.21,438.78 609.21,440.95 C597.09,445.34 598.17,444.03 593.87,459.55 C585.94,488.15 586.42,485.85 588.07,487.50 C588.89,488.32 593.83,489.91 599.03,491.03 C604.24,492.15 608.91,493.19 609.42,493.34 C609.92,493.49 606.77,495.70 602.42,498.25 C579.50,511.68 553.55,519.69 525.50,521.99 C512.20,523.07 510.75,523.07 496.69,521.91 ZM 538.49 500.63 C546.62,497.11 550.43,491.20 552.60,478.74 C555.06,464.69 561.44,452.60 573.64,438.93 C580.78,430.92 586.34,422.38 588.97,415.36 C591.74,407.93 591.56,405.41 587.97,401.82 C585.53,399.37 584.43,398.93 582.22,399.48 C578.59,400.38 576.14,402.72 574.37,406.98 C570.08,417.27 555.69,423.82 543.24,421.14 C532.66,418.88 527.31,416.10 519.54,408.84 L 512.00 401.80 L 504.46 408.84 C496.69,416.10 491.34,418.88 480.76,421.14 C468.45,423.78 454.43,417.56 450.01,407.50 C447.94,402.77 445.51,400.41 441.78,399.48 C439.57,398.93 438.47,399.37 436.03,401.82 C434.25,403.60 433.00,405.89 433.00,407.39 C433.00,413.62 441.01,428.91 448.10,436.21 C454.11,442.40 463.31,455.50 466.56,462.50 C468.34,466.35 470.55,473.52 471.47,478.43 C473.78,490.83 476.84,496.29 483.40,499.70 C488.38,502.29 494.85,502.89 515.00,502.62 C530.84,502.40 535.25,502.03 538.49,500.63 ZM 341.54 430.14 L 348.22 417.28 L 344.71 408.39 C332.23,376.80 329.19,340.84 336.10,306.50 C342.06,276.90 355.96,249.18 377.41,224.10 C383.82,216.60 397.26,203.99 398.82,204.01 C399.19,204.02 405.29,221.00 412.36,241.76 C430.30,294.39 439.66,314.96 452.80,330.60 C459.67,338.77 471.34,348.77 478.99,353.03 C486.85,357.41 481.04,355.56 471.54,350.66 C461.41,345.44 449.68,336.77 439.61,327.09 C431.04,318.84 420.54,306.28 419.51,303.03 C419.16,301.91 418.56,301.00 418.18,301.01 C417.81,301.01 415.92,303.48 414.00,306.50 C412.08,309.52 410.27,311.97 410.00,311.94 C409.73,311.91 407.83,309.69 405.79,307.01 C400.86,300.54 390.78,292.25 384.14,289.21 C378.69,286.71 369.13,285.87 364.16,287.45 C361.46,288.31 359.20,292.62 354.68,305.63 C351.50,314.74 347.00,332.80 347.00,336.41 C347.00,337.31 349.16,338.49 352.71,339.52 C361.29,342.01 367.12,345.32 371.73,350.32 C376.15,355.12 380.56,362.96 382.52,369.50 L 383.72 373.50 L 374.36 387.15 C369.21,394.66 365.00,401.13 365.00,401.53 C365.00,401.93 366.63,404.52 368.61,407.29 C372.18,412.25 372.20,412.34 370.22,413.91 C364.12,418.75 339.15,440.11 338.05,441.44 C337.34,442.30 336.33,443.00 335.81,443.00 C335.29,443.00 337.87,437.21 341.54,430.14 ZM 680.28 436.27 C669.21,426.69 655.74,414.94 654.11,413.43 C652.93,412.34 653.29,411.34 656.43,406.96 L 660.15 401.79 L 650.46 387.51 L 640.77 373.24 L 642.02 369.37 C647.22,353.31 655.59,344.59 670.18,340.04 C674.20,338.78 677.62,337.65 677.76,337.53 C677.90,337.41 677.30,333.53 676.43,328.91 C674.66,319.57 669.24,302.05 665.49,293.57 C662.71,287.28 661.19,286.52 651.50,286.51 C642.32,286.50 635.60,290.26 623.80,302.04 L 614.09 311.71 L 610.49 306.28 L 606.88 300.85 L 601.78 308.18 C595.26,317.52 578.78,333.78 568.04,341.45 C560.24,347.03 543.88,356.01 541.54,355.99 C540.97,355.99 543.65,354.10 547.50,351.79 C556.82,346.21 571.90,331.46 578.61,321.38 C584.04,313.22 592.32,296.62 597.52,283.50 C599.04,279.65 605.83,260.36 612.60,240.62 C619.38,220.89 625.14,204.53 625.41,204.26 C626.25,203.41 638.92,215.18 646.67,224.00 C691.04,274.54 703.71,345.46 679.53,408.05 L 675.98 417.25 L 682.53 430.13 C686.13,437.21 688.85,443.00 688.57,443.00 C688.29,443.00 684.56,439.97 680.28,436.27 ZM 503.29 335.61 C496.30,333.33 489.94,329.04 482.81,321.80 C473.89,312.76 472.22,309.73 478.69,314.35 C488.98,321.67 504.60,328.00 512.41,328.00 C520.16,328.00 536.50,321.32 545.44,314.50 C548.05,312.50 550.42,311.09 550.69,311.36 C550.96,311.63 546.98,316.06 541.84,321.19 C530.62,332.42 523.96,336.12 514.00,336.64 C510.23,336.84 505.73,336.41 503.29,335.61 ZM 465.53 252.75 C465.24,251.51 461.84,233.85 457.96,213.50 C454.08,193.15 450.72,175.95 450.50,175.28 C449.99,173.77 462.09,169.83 475.92,167.02 C499.62,162.19 524.38,162.19 548.08,167.02 C558.89,169.22 574.00,173.71 574.00,174.71 C574.00,175.91 558.73,254.50 558.42,254.86 C558.26,255.05 554.83,253.17 550.81,250.67 C543.21,245.95 530.21,241.01 525.32,240.98 C523.77,240.98 521.84,240.55 521.04,240.05 C520.17,239.50 518.12,232.76 515.97,223.37 C513.98,214.70 512.12,208.04 511.82,208.56 C511.53,209.08 509.81,216.02 508.01,224.00 C506.21,231.98 504.39,238.88 503.97,239.35 C503.55,239.81 500.08,240.79 496.26,241.52 C488.48,243.00 478.40,247.25 471.63,251.91 C469.16,253.61 466.89,255.00 466.59,255.00 C466.29,255.00 465.81,253.99 465.53,252.75 ZM 485.72 465.25 C481.57,460.66 481.86,455.45 486.43,452.45 C489.29,450.58 491.93,450.75 504.59,453.58 C512.62,455.38 512.77,455.37 521.64,453.20 C533.56,450.27 535.52,450.36 539.18,454.03 C542.61,457.46 542.48,460.75 538.75,464.75 C536.28,467.40 534.80,467.49 525.50,465.52 C521.65,464.70 515.58,464.03 512.00,464.03 C508.42,464.03 502.35,464.70 498.50,465.52 C489.51,467.42 487.66,467.38 485.72,465.25 ZM 497.17 437.39 C487.06,432.03 486.28,431.85 481.25,433.74 C479.52,434.39 479.63,429.88 481.41,427.46 C483.49,424.61 489.00,425.22 499.24,429.42 C504.29,431.49 509.67,433.00 512.00,433.00 C514.33,433.00 519.71,431.49 524.76,429.42 C535.00,425.22 540.51,424.61 542.59,427.46 C544.37,429.88 544.48,434.39 542.75,433.74 C537.72,431.85 536.92,432.04 526.54,437.46 C512.68,444.69 510.94,444.69 497.17,437.39 Z" fill="rgba(45,177,136,1)"/>
</g>
</svg>